<?xml version="1.0" standalone="no"?>
<!DOCTYPE svg PUBLIC "-//W3C//DTD SVG 1.1//EN" "http://www.w3.org/Graphics/SVG/1.1/DTD/svg11.dtd" >
<svg xmlns="http://www.w3.org/2000/svg" xmlns:xlink="http://www.w3.org/1999/xlink" version="1.1">
<metadata>
Created by FontForge 20190801 at Sun May 24 03:38:45 2020
 By www-data
Copyright (c) 2020 Cerebri Sans ProTM Version - 2020 Edition by Alfredo Marco Pradil. All rights reserved.
</metadata>
<defs>
<font id="CerebriSansProBold" horiz-adv-x="0" >
  <font-face 
    font-family="CerebriSansProBold"
    font-weight="700"
    font-stretch="normal"
    units-per-em="1000"
    panose-1="0 0 8 0 0 0 0 0 0 0"
    ascent="750"
    descent="-250"
    x-height="504"
    cap-height="707"
    bbox="-810 -250 1325 1072"
    underline-thickness="70"
    underline-position="-140"
    unicode-range="U+000D-FB02"
  />
<missing-glyph horiz-adv-x="545" 
d="M500 0h-456v707h456v-707zM149 602v-496h246v496h-246z" />
    <glyph glyph-name="fi" unicode="fi" horiz-adv-x="653" 
d="M356 649q-97 0 -97 -95v-50h111v-106h-111v-398h-139v398h-101v106h101v50q0 105 66.5 155.5t176.5 50.5q88 0 145 -39.5t79 -110.5l-134 -35q-11 40 -33.5 57t-63.5 17zM453 0v504h139v-504h-139z" />
    <glyph glyph-name="fl" unicode="fl" horiz-adv-x="653" 
d="M356 760q106 0 171 -50.5t65 -155.5v-554h-138v547q0 102 -98 102q-97 0 -97 -95v-50h111v-106h-111v-398h-139v398h-101v106h101v50q0 105 65.5 155.5t170.5 50.5z" />
    <glyph glyph-name="f_f" unicode="ff" horiz-adv-x="729" 
d="M709 640h-27q-84 0 -84 -86v-50h111v-106h-111v-398h-138v398h-201v-398h-139v398h-101v106h101v50q0 105 66.5 155.5t176.5 50.5q97 0 153 -51q50 41 166 41h27v-110zM259 554v-50h201v50q0 16 2 42q-33 53 -106 53q-97 0 -97 -95z" />
    <glyph glyph-name="f_f_i" unicode="ffi" horiz-adv-x="986" 
d="M696 760q88 0 145 -39.5t80 -110.5l-135 -35q-10 39 -33 56.5t-64 17.5q-97 0 -97 -95v-50h111v-106h-111v-398h-138v398h-195v-398h-139v398h-101v106h101v50q0 105 66.5 155.5t176.5 50.5q98 0 155 -52q62 52 178 52zM259 504h195v50q0 28 4 48q-34 47 -102 47
q-97 0 -97 -95v-50zM787 0v504h138v-504h-138z" />
    <glyph glyph-name="f_f_l" unicode="ffl" horiz-adv-x="987" 
d="M690 760q105 0 170.5 -50.5t65.5 -155.5v-554h-139v547q0 102 -98 102q-40 0 -68.5 -23t-28.5 -72v-50h111v-106h-111v-398h-138v398h-195v-398h-139v398h-101v106h101v50q0 105 66.5 155.5t176.5 50.5q99 0 154 -52q62 52 173 52zM259 504h195v50q0 28 4 48
q-34 47 -102 47q-97 0 -97 -95v-50z" />
    <glyph glyph-name="h_d_c_o.liga" unicode="hdco" horiz-adv-x="808" 
d="M404 0q-157 0 -268.5 111.5t-111.5 268.5t111.5 268.5t268.5 111.5q158 0 269 -111t111 -269q0 -157 -111.5 -268.5t-268.5 -111.5zM404 36q142 0 243 101t101 243t-101 243t-243 101t-243 -101t-101 -243t101 -243t243 -101zM603 217q-7 0 -12 6l-145 144q-12 14 0 26
l145 145q13 12 25 0q13 -13 0 -26l-132 -132l132 -132q11 -11 0 -25q-4 -6 -13 -6zM205 217q-7 0 -12.5 5.5t-5.5 12.5v290q0 7 5.5 12.5t12.5 5.5t12.5 -5.5t5.5 -12.5v-290q0 -7 -5.5 -12.5t-12.5 -5.5zM404 217q-8 0 -13 5.5t-5 12.5v290q0 7 5 12.5t13 5.5t13 -5.5
t5 -12.5v-290q0 -7 -5 -12.5t-13 -5.5zM350 362h-91q-7 0 -12.5 5t-5.5 13t5.5 13t12.5 5h91q8 0 13 -5t5 -13t-5 -13t-13 -5z" />
    <glyph glyph-name="hyphen_greater.liga" unicode="&#x2d;&#x3e;" horiz-adv-x="740" 
d="M712 253l-152 -184h-112l109 132h-557v104h557l-109 132h112z" />
    <glyph glyph-name="less_hyphen.liga" unicode="&#x3c;&#x2d;" horiz-adv-x="740" 
d="M292 69h-112l-152 184l152 184h112l-109 -132h557v-104h-557z" />
    <glyph glyph-name="parenleft_greater_parenright.liga" unicode="&#x28;&#x3e;&#x29;" horiz-adv-x="801" 
d="M401 -10q-150 0 -257 107t-107 257t107 256.5t257 106.5q149 0 256 -106.5t107 -256.5t-106.5 -257t-256.5 -107zM401 63q121 0 206 84.5t85 206.5t-85 206.5t-206 84.5q-122 0 -207 -85t-85 -206q0 -122 85 -206.5t207 -84.5zM604 354l-291 -199v398z" />
    <glyph glyph-name=".notdef" horiz-adv-x="545" 
d="M500 0h-456v707h456v-707zM149 602v-496h246v496h-246z" />
    <glyph glyph-name=".null" 
 />
    <glyph glyph-name="nonmarkingreturn" horiz-adv-x="333" 
 />
    <glyph glyph-name="NULL" 
 />
    <glyph glyph-name="NULL" 
 />
    <glyph glyph-name="CR" unicode="&#xd;" horiz-adv-x="250" 
 />
    <glyph glyph-name="space" unicode=" " horiz-adv-x="260" 
 />
    <glyph glyph-name="exclam" unicode="!" horiz-adv-x="272" 
d="M190 228h-110l-15 479h140zM135 -10q-32 0 -55.5 23.5t-23.5 56.5t23.5 56.5t55.5 23.5q34 0 57.5 -23.5t23.5 -56.5t-23.5 -56.5t-57.5 -23.5z" />
    <glyph glyph-name="quotedbl" unicode="&#x22;" horiz-adv-x="430" 
d="M159 389h-97l-20 318h132zM369 389h-97l-15 318h131z" />
    <glyph glyph-name="numbersign" unicode="#" horiz-adv-x="763" 
d="M247 0h-96l22 162h-137l13 95h138l28 191h-139l16 95h136l24 164h95l-22 -164h167l23 164h96l-23 -164h140l-15 -95h-139l-27 -191h139l-13 -95h-139l-24 -162h-95l23 162h-170zM310 448l-27 -191h168l27 191h-168z" />
    <glyph glyph-name="dollar" unicode="$" horiz-adv-x="612" 
d="M572 202q0 -92 -64 -150t-173 -65v-66h-50v66q-108 5 -182 60.5t-89 149.5l143 30q27 -108 128 -121v194l-29 9q-39 12 -63 20.5t-57 26t-51.5 37t-32 50.5t-13.5 69q0 93 68 150t178 59v58h50v-60q88 -10 151 -56.5t82 -131.5l-130 -30q-30 85 -103 99v-180q1 0 3 -1
t3 -1q40 -12 66 -21t60.5 -27.5t55 -39.5t35 -54t14.5 -74zM185 520q0 -33 25 -51.5t75 -34.5v169q-46 -3 -73 -25t-27 -58zM335 284v-177q42 5 64.5 27.5t22.5 57.5q0 34 -22 55t-65 37z" />
    <glyph glyph-name="percent" unicode="%" horiz-adv-x="851" 
d="M216 384q-69 0 -117.5 48.5t-48.5 118.5q0 69 49 117.5t117 48.5q69 0 117.5 -49t48.5 -117q0 -69 -48.5 -118t-117.5 -49zM296 0h-114l369 707h114zM216 475q32 0 53.5 22t21.5 54q0 31 -22 53t-53 22t-53 -22t-22 -53q0 -32 22 -54t53 -22zM636 -9q-70 0 -119 49
t-49 118q0 70 49 118.5t119 48.5q68 0 116.5 -48.5t48.5 -118.5q0 -68 -48.5 -117.5t-116.5 -49.5zM636 84q31 0 53 21.5t22 52.5t-22.5 53.5t-52.5 22.5q-32 0 -54.5 -22t-22.5 -54q0 -31 22.5 -52.5t54.5 -21.5z" />
    <glyph glyph-name="ampersand" unicode="&#x26;" horiz-adv-x="756" 
d="M608 133l108 -133h-157l-41 51q-100 -65 -223 -65q-117 0 -187.5 56t-70.5 150q0 74 42 123t135 107l-15 19q-49 57 -49 124q0 72 53.5 114t134.5 42q94 0 146.5 -43t52.5 -111q0 -53 -35.5 -92.5t-107.5 -75.5l135 -167q51 81 51 187h125q0 -167 -97 -286zM346 629
q-30 0 -48 -15.5t-18 -41.5q0 -33 34 -74l15 -18q79 46 79 94q0 24 -17.5 39.5t-44.5 15.5zM309 103q71 0 133 40l-160 196q-29 -18 -44 -29t-31.5 -27.5t-23 -35t-6.5 -42.5q0 -49 35 -75.5t97 -26.5z" />
    <glyph glyph-name="quotesingle" unicode="'" horiz-adv-x="217" 
d="M155 389h-97l-15 318h131z" />
    <glyph glyph-name="parenleft" unicode="(" horiz-adv-x="354" 
d="M336 -250h-133q-75 91 -116 233.5t-41 311.5t41 311.5t116 233.5h133q-80 -84 -124 -227t-44 -318t44 -318t124 -227z" />
    <glyph glyph-name="parenright" unicode=")" horiz-adv-x="354" 
d="M151 -250h-133q80 84 124 227t44 318t-44 318t-124 227h133q75 -91 116 -233.5t41 -311.5t-41 -311.5t-116 -233.5z" />
    <glyph glyph-name="asterisk" unicode="*" horiz-adv-x="406" 
d="M186 511l-46 -116l-66 40l78 96q11 13 6 22.5t-22 6.5l-125 -19v77l125 -19q17 -2 22 7.5t-6 22.5l-78 96l66 39l46 -116q4 -11 10.5 -15t13 0t10.5 15l46 116l67 -39l-80 -96q-11 -14 -5.5 -23.5t22.5 -6.5l124 19v-77l-124 19q-17 3 -22 -6t6 -23l79 -96l-67 -40
l-46 116q-6 17 -17 17t-17 -17z" />
    <glyph glyph-name="plus" unicode="+" horiz-adv-x="594" 
d="M349 10h-104v191h-190v104h190v190h104v-190h190v-104h-190v-191z" />
    <glyph glyph-name="comma" unicode="," horiz-adv-x="321" 
d="M164 -180h-99l61 321h142z" />
    <glyph glyph-name="hyphen" unicode="-" horiz-adv-x="395" 
d="M372 201h-350v104h350v-104z" />
    <glyph glyph-name="period" unicode="." horiz-adv-x="318" 
d="M158 -10q-32 0 -55.5 23.5t-23.5 56.5q0 32 23.5 56t55.5 24q33 0 57 -24t24 -56q0 -33 -24 -56.5t-57 -23.5z" />
    <glyph glyph-name="slash" unicode="/" horiz-adv-x="622" 
d="M133 -200h-131l487 950h131z" />
    <glyph glyph-name="zero" unicode="0" horiz-adv-x="600" 
d="M300 -14q-125 0 -191 92t-66 276t66 275.5t191 91.5t190.5 -91.5t65.5 -275.5t-65.5 -276t-190.5 -92zM300 111q118 0 118 243t-118 243t-118 -243t118 -243z" />
    <glyph glyph-name="one" unicode="1" horiz-adv-x="600" 
d="M123 571l168 136h134v-707h-138v547l-164 -133v157z" />
    <glyph glyph-name="two" unicode="2" horiz-adv-x="600" 
d="M442 321l-193 -198h300v-123h-495v111l283 287q61 61 61 115q0 40 -25.5 62.5t-70.5 22.5q-112 0 -112 -118v-34l-138 14v32q0 107 65.5 168t178.5 61q107 0 173 -55t66 -148q0 -56 -21.5 -100.5t-71.5 -96.5z" />
    <glyph glyph-name="three" unicode="3" horiz-adv-x="600" 
d="M306 -14q-127 0 -194.5 65.5t-67.5 189.5h142q2 -131 117 -131q52 0 81.5 29.5t29.5 77.5q0 57 -36 80.5t-80 23.5h-23v106h21q42 0 68.5 25.5t26.5 65.5q0 36 -25 58.5t-64 22.5q-47 0 -74 -31t-27 -84v-6l-140 14q0 108 64 168.5t173 60.5q96 0 159 -55t63 -135
q0 -55 -28 -93.5t-65 -53.5q54 -14 91 -57.5t37 -117.5q0 -99 -68.5 -161t-180.5 -62z" />
    <glyph glyph-name="four" unicode="4" horiz-adv-x="600" 
d="M498 263h75v-123h-75v-140h-138v140h-332v124l259 443h211v-444zM360 617l-202 -354h202v354z" />
    <glyph glyph-name="five" unicode="5" horiz-adv-x="600" 
d="M216 456h81q259 0 259 -222q0 -113 -68.5 -180.5t-184.5 -67.5q-115 0 -184 63t-69 169q0 10 2 28h135v-16q0 -56 31 -88t88 -32q53 0 82 32t29 83q0 48 -26.5 75.5t-59.5 34.5t-81 7h-178l28 365h422v-122h-297z" />
    <glyph glyph-name="six" unicode="6" horiz-adv-x="600" 
d="M329 472q97 0 165 -66.5t68 -169.5q0 -105 -78 -177.5t-186 -72.5q-110 0 -184.5 74t-74.5 178q0 92 64 175l224 294h165l-184 -236q7 1 21 1zM426 239q2 57 -34 95.5t-96 38.5q-56 0 -91 -37t-37 -93q-2 -55 33 -94t93 -39q57 0 94 37.5t38 91.5z" />
    <glyph glyph-name="seven" unicode="7" horiz-adv-x="600" 
d="M52 585v122h499v-122l-323 -585h-159l332 585h-349z" />
    <glyph glyph-name="eight" unicode="8" horiz-adv-x="600" 
d="M300 -14q-112 0 -183.5 60.5t-71.5 159.5q0 124 110 181q-82 51 -82 143q0 84 64 137.5t163 53.5q98 0 162 -54t64 -137q0 -91 -79 -143q109 -58 109 -181q0 -99 -72 -159.5t-184 -60.5zM300 426q42 0 71 28.5t29 70.5q0 41 -29 67.5t-71 26.5q-43 0 -71.5 -26.5
t-28.5 -67.5q0 -43 29 -71t71 -28zM300 110q51 0 84 31.5t33 81.5t-33 80.5t-84 30.5q-52 0 -84.5 -30.5t-32.5 -80.5t33 -81.5t84 -31.5z" />
    <glyph glyph-name="nine" unicode="9" horiz-adv-x="600" 
d="M302 721q110 0 185 -74t75 -178q0 -89 -64 -175l-224 -294h-166l184 236q-7 -1 -21 -1q-97 0 -164.5 66.5t-67.5 170.5t77.5 176.5t185.5 72.5zM432 465q2 55 -33 94t-93 39q-56 0 -93 -38t-39 -91q-1 -57 35 -95.5t95 -38.5q56 0 91 36.5t37 93.5z" />
    <glyph glyph-name="colon" unicode=":" horiz-adv-x="301" 
d="M150 337q-32 0 -55.5 23.5t-23.5 56.5q0 32 23.5 55.5t55.5 23.5q33 0 57 -23.5t24 -55.5q0 -33 -24 -56.5t-57 -23.5zM150 -10q-32 0 -55.5 23.5t-23.5 56.5q0 32 23.5 56t55.5 24q33 0 57 -24t24 -56q0 -33 -24 -56.5t-57 -23.5z" />
    <glyph glyph-name="semicolon" unicode=";" horiz-adv-x="319" 
d="M174 337q-32 0 -56 23.5t-24 56.5q0 32 24 55.5t56 23.5q33 0 56.5 -23.5t23.5 -55.5q0 -33 -23.5 -56.5t-56.5 -23.5zM151 -180h-100l62 321h141z" />
    <glyph glyph-name="less" unicode="&#x3c;" horiz-adv-x="491" 
d="M55 299l382 191v-112l-249 -125l249 -126v-113l-382 193v92z" />
    <glyph glyph-name="equal" unicode="=" horiz-adv-x="559" 
d="M505 308h-450v104h450v-104zM505 93h-450v104h450v-104z" />
    <glyph glyph-name="greater" unicode="&#x3e;" horiz-adv-x="491" 
d="M55 378v112l382 -191v-92l-382 -193v113l249 126z" />
    <glyph glyph-name="question" unicode="?" horiz-adv-x="531" 
d="M316 220h-111v42q0 46 19.5 71.5t59.5 49.5q27 16 40.5 26.5t27 35.5t13.5 58q0 49 -29.5 76.5t-77.5 27.5q-49 0 -78.5 -29t-29.5 -75q0 -15 3 -32l-123 7q0 5 -0.5 15.5t-0.5 16.5q0 93 63.5 152t165.5 59q107 0 172 -56.5t65 -151.5q0 -21 -2.5 -40t-8.5 -35.5
t-11 -29t-16.5 -25t-17 -19.5t-19.5 -17.5t-18.5 -14t-19.5 -13t-17 -10.5q-49 -33 -49 -70v-19zM261 -10q-33 0 -56.5 23.5t-23.5 56.5t23.5 56t56.5 23q32 0 55.5 -23t23.5 -56t-23 -56.5t-56 -23.5z" />
    <glyph glyph-name="at" unicode="@" horiz-adv-x="882" 
d="M443 -110q-160 0 -271.5 108.5t-111.5 267.5q0 168 109.5 279t273.5 111q166 0 274 -110t108 -262q0 -97 -42.5 -150t-122.5 -53q-46 0 -74.5 15.5t-48.5 50.5h-7q-41 -71 -127 -71q-54 0 -91.5 28t-37.5 76q0 86 127 115l108 25v20q0 29 -17.5 44.5t-47.5 15.5
q-58 0 -74 -62l-89 21q14 49 56 77.5t107 28.5q67 0 113 -34t46 -107v-99q0 -38 15.5 -55.5t50.5 -17.5q78 0 78 123q0 128 -85 215t-219 87q-132 0 -218 -87.5t-86 -222.5q0 -127 88.5 -213t215.5 -86q88 0 165 48l36 -69q-92 -57 -201 -57zM424 143q38 0 61.5 27.5
t23.5 72.5v23l-75 -22q-37 -11 -51 -23.5t-14 -33.5t15 -32.5t40 -11.5z" />
    <glyph glyph-name="A" unicode="A" horiz-adv-x="724" 
d="M716 0h-153l-53 148h-295l-53 -148h-154l265 707h179zM363 560l-105 -293h209z" />
    <glyph glyph-name="B" unicode="B" horiz-adv-x="625" 
d="M453 378q133 -41 133 -179q0 -52 -19.5 -90.5t-46.5 -58.5t-65 -32t-65.5 -15t-58.5 -3h-263v707h233q241 0 241 -180q0 -111 -89 -149zM398 503q0 85 -100 85h-86v-170h86q100 0 100 85zM212 123h121q109 0 109 92q0 93 -109 93h-121v-185z" />
    <glyph glyph-name="C" unicode="C" horiz-adv-x="763" 
d="M399 -14q-159 0 -260.5 102.5t-101.5 265.5t101 265t261 102q119 0 208 -59.5t128 -161.5l-136 -49q-23 64 -76 101t-124 37q-96 0 -157 -65t-61 -170t61 -170t157 -65q71 0 124 36.5t76 100.5l136 -48q-39 -103 -128 -162.5t-208 -59.5z" />
    <glyph glyph-name="D" unicode="D" horiz-adv-x="703" 
d="M281 0h-214v707h214q168 0 259 -66q124 -91 124 -287q0 -197 -124 -288q-91 -66 -259 -66zM212 581v-454h69q100 0 158 41q80 56 80 186t-80 185q-59 42 -158 42h-69z" />
    <glyph glyph-name="E" unicode="E" horiz-adv-x="525" 
d="M480 707v-126h-268v-165h239v-125h-239v-164h268v-127h-412v707h412z" />
    <glyph glyph-name="F" unicode="F" horiz-adv-x="514" 
d="M488 707v-126h-276v-165h239v-125h-239v-291h-144v707h420z" />
    <glyph glyph-name="G" unicode="G" horiz-adv-x="788" 
d="M391 -14q-156 0 -255 102.5t-99 265.5t101 265t261 102q104 0 186 -45.5t127 -126.5l-126 -67q-28 51 -76.5 79t-110.5 28q-96 0 -157 -65t-61 -170q0 -106 59 -170.5t159 -64.5q73 0 126.5 39t70.5 113h-191v115h333v-386h-113v107q-75 -121 -234 -121z" />
    <glyph glyph-name="H" unicode="H" horiz-adv-x="732" 
d="M212 0h-144v707h144v-290h308v290h145v-707h-145v292h-308v-292z" />
    <glyph glyph-name="I" unicode="I" horiz-adv-x="280" 
d="M212 0h-144v707h144v-707z" />
    <glyph glyph-name="J" unicode="J" horiz-adv-x="466" 
d="M194 -14q-96 0 -188 53l61 118q55 -37 108 -37q42 0 62.5 27t20.5 87v473h145v-500q0 -104 -57.5 -162.5t-151.5 -58.5z" />
    <glyph glyph-name="K" unicode="K" horiz-adv-x="689" 
d="M681 0h-182l-231 303h-56v-303h-144v707h144v-279h55l229 279h176l-282 -338z" />
    <glyph glyph-name="L" unicode="L" horiz-adv-x="451" 
d="M439 0h-371v707h144v-580h227v-127z" />
    <glyph glyph-name="M" unicode="M" horiz-adv-x="933" 
d="M830 707l58 -707h-146l-45 556l-182 -556h-98l-182 556l-45 -556h-146l58 707h213l151 -441l151 441h213z" />
    <glyph glyph-name="N" unicode="N" horiz-adv-x="769" 
d="M557 203v504h145v-707h-174l-316 507v-507h-144v707h172z" />
    <glyph glyph-name="O" unicode="O" horiz-adv-x="798" 
d="M399 -14q-159 0 -260.5 102.5t-101.5 265.5t101 265t261 102t261 -102t101 -265t-101.5 -265.5t-260.5 -102.5zM399 119q96 0 157 65t61 170t-61 170t-157 65t-157 -65t-61 -170t61 -170t157 -65z" />
    <glyph glyph-name="P" unicode="P" horiz-adv-x="602" 
d="M507 653q67 -54 67 -167q0 -69 -26.5 -123.5t-78.5 -82.5q-56 -30 -168 -30h-89v-250h-145v707h234q140 0 206 -54zM391 391q38 26 38 87q0 59 -36 86q-32 23 -113 23h-68v-217h68q81 0 111 21z" />
    <glyph glyph-name="Q" unicode="Q" horiz-adv-x="805" 
d="M673 103l109 -133l-125 -48l-91 100q-77 -36 -167 -36q-159 0 -260.5 102.5t-101.5 265.5t101 265t261 102t261 -102t101 -265q0 -150 -88 -251zM181 354q0 -105 61 -170t157 -65t157 65t61 170t-61 170t-157 65t-157 -65t-61 -170z" />
    <glyph glyph-name="R" unicode="R" horiz-adv-x="640" 
d="M622 0h-176l-169 259h-65v-259h-145v707h234q140 0 206 -54q67 -54 67 -167q0 -69 -26.5 -124.5t-78.5 -83.5q-10 -5 -30 -13zM280 587h-68v-217h68q81 0 111 21q38 26 38 87q0 59 -36 86q-32 23 -113 23z" />
    <glyph glyph-name="S" unicode="S" horiz-adv-x="612" 
d="M307 -14q-117 0 -197.5 56t-95.5 155l143 30q30 -122 152 -122q54 0 83.5 23t29.5 64q0 23 -11 39.5t-36 29.5t-45.5 20t-59.5 18q-42 12 -66 20.5t-60 26.5t-55.5 38t-34.5 53.5t-15 74.5q0 94 69.5 151.5t180.5 57.5q103 0 180 -46.5t99 -143.5l-130 -30
q-35 102 -140 102q-51 0 -82 -22.5t-31 -60.5q0 -20 10 -35t34 -26.5t42.5 -17t56.5 -15.5q31 -9 48.5 -14t47 -16t47 -21.5t39 -28t33.5 -37t20.5 -47.5t8.5 -60q0 -98 -72.5 -157t-192.5 -59z" />
    <glyph glyph-name="T" unicode="T" horiz-adv-x="508" 
d="M11 707h485v-126h-170v-581h-144v581h-171v126z" />
    <glyph glyph-name="U" unicode="U" horiz-adv-x="681" 
d="M341 -14q-126 0 -203.5 67.5t-77.5 197.5v456h144v-437q0 -78 37 -115.5t100 -37.5q62 0 99 37.5t37 115.5v437h145v-456q0 -130 -77.5 -197.5t-203.5 -67.5z" />
    <glyph glyph-name="V" unicode="V" horiz-adv-x="725" 
d="M363 148l200 559h153l-264 -707h-179l-265 707h154z" />
    <glyph glyph-name="W" unicode="W" horiz-adv-x="1057" 
d="M750 154l142 553h150l-184 -707h-193l-137 445l-136 -445h-193l-184 707h150l141 -552l160 552h125z" />
    <glyph glyph-name="X" unicode="X" horiz-adv-x="745" 
d="M190 0h-181l278 367l-271 340h176l180 -234l181 234h176l-271 -340l278 -367h-181l-183 248z" />
    <glyph glyph-name="Y" unicode="Y" horiz-adv-x="622" 
d="M462 707h158l-236 -371v-336h-145v334l-238 373h159l151 -247z" />
    <glyph glyph-name="Z" unicode="Z" horiz-adv-x="579" 
d="M543 592l-339 -465h342v-127h-512v115l339 466h-339v126h509v-115z" />
    <glyph glyph-name="bracketleft" unicode="[" horiz-adv-x="344" 
d="M317 -250h-256v1090h256v-98h-134v-894h134v-98z" />
    <glyph glyph-name="backslash" unicode="\" horiz-adv-x="622" 
d="M620 -200h-131l-487 950h131z" />
    <glyph glyph-name="bracketright" unicode="]" horiz-adv-x="344" 
d="M283 840v-1090h-256v98h134v894h-134v98h256z" />
    <glyph glyph-name="asciicircum" unicode="^" horiz-adv-x="711" 
d="M419 707l250 -551h-117l-196 432l-197 -432h-117l250 551h127z" />
    <glyph glyph-name="underscore" unicode="_" horiz-adv-x="500" 
d="M500 -121h-500v104h500v-104z" />
    <glyph glyph-name="grave" unicode="`" horiz-adv-x="371" 
d="M303 565h-121l-114 142h147z" />
    <glyph glyph-name="a" unicode="a" horiz-adv-x="562" 
d="M504 329v-238q0 -57 9 -78v-13h-137l-6 69q-25 -38 -71 -58.5t-98 -20.5q-69 0 -116.5 33.5t-47.5 103.5q0 40 16 70t46 48.5t59.5 29t68.5 18.5l92 21q23 5 34.5 13t11.5 24q0 32 -25 48.5t-63 16.5q-87 0 -104 -77l-133 20q32 155 239 155q109 0 167 -47.5t58 -137.5z
M242 86q53 0 92 41.5t39 115.5l-124 -32q-74 -15 -74 -69q0 -27 18.5 -41.5t48.5 -14.5z" />
    <glyph glyph-name="b" unicode="b" horiz-adv-x="642" 
d="M359 514q104 0 174.5 -71.5t70.5 -191.5t-70 -190.5t-175 -70.5q-110 0 -158 69v-59h-139v750h139v-307q48 71 158 71zM330 105q59 0 97 39.5t38 106.5q0 68 -38 108.5t-97 40.5t-97 -40.5t-38 -108.5t37.5 -107t97.5 -39z" />
    <glyph glyph-name="c" unicode="c" horiz-adv-x="594" 
d="M310 -10q-121 0 -196.5 73t-75.5 190q0 116 75.5 188.5t196.5 72.5q98 0 164 -49t84 -138l-128 -12q-22 91 -122 91q-60 0 -96 -42.5t-36 -110.5q0 -69 36 -111.5t96 -42.5q100 0 122 91l128 -12q-18 -89 -85 -138.5t-163 -49.5z" />
    <glyph glyph-name="d" unicode="d" horiz-adv-x="642" 
d="M442 442v308h138v-750h-138v61q-46 -71 -159 -71q-105 0 -175 70.5t-70 190.5t70.5 191.5t174.5 71.5q52 0 94.5 -19t64.5 -53zM313 105q59 0 97 39.5t38 106.5q0 68 -38 108.5t-97 40.5q-60 0 -98 -40.5t-38 -108.5t38 -107t98 -39z" />
    <glyph glyph-name="e" unicode="e" horiz-adv-x="594" 
d="M557 256l-1 -32h-383q5 -59 41.5 -92t91.5 -33q84 0 113 69l128 -17q-24 -76 -88.5 -118.5t-151.5 -42.5q-124 0 -197.5 70t-73.5 192q0 121 73.5 191.5t193.5 70.5q114 0 184 -66t70 -192zM303 412q-107 0 -127 -103h244q-5 48 -37 75.5t-80 27.5z" />
    <glyph glyph-name="f" unicode="f" horiz-adv-x="390" 
d="M370 640h-27q-84 0 -84 -86v-50h111v-106h-111v-398h-139v398h-101v106h101v50q0 114 56.5 155t166.5 41h27v-110z" />
    <glyph glyph-name="g" unicode="g" horiz-adv-x="626" 
d="M427 439v65h138v-491q0 -134 -68.5 -198.5t-193.5 -64.5q-200 0 -260 157l116 48q44 -98 138 -98q130 0 130 145v83q-21 -32 -64 -52t-94 -20q-98 0 -164.5 70t-66.5 182t67 180.5t166 68.5q109 0 156 -75zM303 124q57 0 94.5 40t37.5 101t-37 100.5t-95 39.5t-95 -39.5
t-37 -100.5t37.5 -101t94.5 -40z" />
    <glyph glyph-name="h" unicode="h" horiz-adv-x="608" 
d="M368 514q89 0 136.5 -48.5t47.5 -143.5v-322h-139v301q0 103 -98 103q-49 0 -82 -30.5t-33 -99.5v-274h-139v750h139v-309q60 73 168 73z" />
    <glyph glyph-name="i" unicode="i" horiz-adv-x="259" 
d="M131 582q-34 0 -57.5 23t-23.5 57q0 33 23.5 56t57.5 23q32 0 55.5 -23t23.5 -56q0 -34 -23 -57t-56 -23zM199 0h-139v504h139v-504z" />
    <glyph glyph-name="j" unicode="j" horiz-adv-x="257" 
d="M127 582q-34 0 -57.5 23t-23.5 57q0 33 23.5 56t57.5 23q32 0 55.5 -23t23.5 -56q0 -34 -23 -57t-56 -23zM-54 -243v107q67 0 89 32t22 113v495h138v-495q0 -130 -58 -191t-191 -61z" />
    <glyph glyph-name="k" unicode="k" horiz-adv-x="582" 
d="M553 504l-210 -236l225 -268h-167l-173 212h-28v-212h-139v750h139v-443h26l171 197h156z" />
    <glyph glyph-name="l" unicode="l" horiz-adv-x="261" 
d="M200 0h-139v750h139v-750z" />
    <glyph glyph-name="m" unicode="m" horiz-adv-x="902" 
d="M671 514q82 0 128 -39.5t46 -109.5v-365h-138v318q0 42 -23.5 64t-61.5 22q-44 0 -71.5 -30t-27.5 -97v-277h-139v318q0 41 -23.5 63.5t-61.5 22.5q-44 0 -71.5 -30t-27.5 -97v-277h-139v504h139v-59q53 69 148 69q125 0 163 -86q52 86 160 86z" />
    <glyph glyph-name="n" unicode="n" horiz-adv-x="608" 
d="M360 514q94 0 142.5 -46t48.5 -131v-337h-138v308q0 48 -26.5 72t-70.5 24q-105 0 -116 -110v-294h-139v504h139v-57q57 67 160 67z" />
    <glyph glyph-name="o" unicode="o" horiz-adv-x="628" 
d="M314 -10q-123 1 -199.5 71.5t-76.5 191.5q0 119 76.5 189.5t199.5 71.5q124 -1 200.5 -71.5t76.5 -189.5q0 -121 -76.5 -191.5t-200.5 -71.5zM314 100q62 0 100 42.5t38 110.5q0 67 -38 109t-100 42t-100 -42t-38 -109q0 -68 38 -110.5t100 -42.5z" />
    <glyph glyph-name="p" unicode="p" horiz-adv-x="642" 
d="M358 514q105 0 175 -70.5t70 -190.5t-70.5 -191.5t-174.5 -71.5q-110 0 -158 71v-304h-139v747h139v-59q48 69 158 69zM329 105q59 0 97 40.5t38 107.5q0 68 -38 107.5t-97 39.5q-60 0 -97.5 -39.5t-37.5 -107.5q0 -67 38 -107.5t97 -40.5z" />
    <glyph glyph-name="q" unicode="q" horiz-adv-x="642" 
d="M443 444v60h138v-747h-138v305q-22 -34 -64.5 -53t-94.5 -19q-104 0 -174.5 71.5t-70.5 191.5t70 190.5t175 70.5q113 0 159 -70zM314 105q59 0 97 40.5t38 107.5q0 68 -38 107.5t-97 39.5q-60 0 -98 -39.5t-38 -107.5q0 -67 38 -107.5t98 -40.5z" />
    <glyph glyph-name="r" unicode="r" horiz-adv-x="392" 
d="M200 504v-72q24 38 68.5 60t102.5 22v-129q-91 0 -131 -34.5t-40 -119.5v-231h-139v504h139z" />
    <glyph glyph-name="s" unicode="s" horiz-adv-x="513" 
d="M268 -10q-92 0 -155 36.5t-76 105.5l115 32q22 -74 111 -74q33 0 54.5 13t21.5 38q0 29 -28.5 43t-82.5 24q-89 17 -134 49.5t-45 99.5q0 73 55 115t148 42q78 0 135.5 -32.5t74.5 -97.5l-121 -27q-23 58 -94 58q-33 0 -52.5 -12t-19.5 -33q0 -22 26.5 -34t82.5 -24
q98 -21 143 -53.5t45 -104.5q0 -81 -58.5 -122.5t-145.5 -41.5z" />
    <glyph glyph-name="t" unicode="t" horiz-adv-x="403" 
d="M366 0h-93q-74 0 -114.5 41.5t-40.5 117.5v239h-99v106h39q38 0 57.5 19.5t19.5 70.5v72h122v-162h109v-106h-109v-219q0 -69 64 -69h45v-110z" />
    <glyph glyph-name="u" unicode="u" horiz-adv-x="609" 
d="M408 230v274h139v-504h-139v58q-57 -68 -160 -68q-94 0 -143 46.5t-49 130.5v337h138v-308q0 -48 26.5 -71.5t70.5 -23.5q51 0 83.5 31t33.5 98z" />
    <glyph glyph-name="v" unicode="v" horiz-adv-x="582" 
d="M291 164l126 340h151l-215 -504h-124l-215 504h150z" />
    <glyph glyph-name="w" unicode="w" horiz-adv-x="890" 
d="M620 166l107 338h147l-177 -504h-142l-110 332l-109 -332h-143l-177 504h147l107 -336l119 336h112z" />
    <glyph glyph-name="x" unicode="x" horiz-adv-x="624" 
d="M190 0h-175l213 253l-213 251h174l123 -161l123 161h173l-214 -252l214 -252h-173l-123 159z" />
    <glyph glyph-name="y" unicode="y" horiz-adv-x="582" 
d="M291 165l126 339h151l-317 -747h-151l119 268l-205 479h150z" />
    <glyph glyph-name="z" unicode="z" horiz-adv-x="490" 
d="M44 504h420l-233 -398h223v-106h-430l232 398h-212v106z" />
    <glyph glyph-name="braceleft" unicode="{" horiz-adv-x="346" 
d="M319 -250h-62q-73 0 -115.5 39.5t-42.5 99.5v239q0 68 -13.5 89.5t-59.5 33.5v88q46 12 59.5 33.5t13.5 90.5v238q0 60 42.5 99.5t115.5 39.5h62v-99h-36q-23 0 -38 -14.5t-15 -41.5v-219q0 -70 -18 -111t-69 -60q51 -19 69 -60t18 -111v-219q0 -27 15 -41.5t38 -14.5h36
v-99z" />
    <glyph glyph-name="bar" unicode="|" horiz-adv-x="343" 
d="M241 -150h-139v900h139v-900z" />
    <glyph glyph-name="braceright" unicode="}" horiz-adv-x="346" 
d="M89 -250h-62v99h36q24 0 39 14.5t15 41.5v219q0 70 17.5 111t68.5 60q-50 19 -68 60t-18 111v219q0 27 -15 41.5t-39 14.5h-36v99h62q73 0 115.5 -39.5t42.5 -99.5v-238q0 -69 13.5 -90.5t59.5 -33.5v-88q-46 -12 -59.5 -33.5t-13.5 -89.5v-239q0 -60 -42.5 -99.5
t-115.5 -39.5z" />
    <glyph glyph-name="asciitilde" unicode="~" horiz-adv-x="623" 
d="M414 151q-18 0 -36 4.5t-30 10t-26 16t-20 16t-17.5 17l-13.5 13.5q-28 29 -50 29q-33 0 -50.5 -28.5t-18.5 -70.5h-97q0 89 44 142.5t125 53.5q43 0 72 -17.5t56 -54.5t54 -37q30 0 49.5 27t17.5 71h95q0 -84 -41 -138t-113 -54z" />
    <glyph glyph-name="exclamdown" unicode="&#xa1;" horiz-adv-x="272" 
d="M135 513q34 0 57.5 -23.5t23.5 -56.5t-23.5 -56.5t-57.5 -23.5q-32 0 -55.5 23.5t-23.5 56.5t23.5 56.5t55.5 23.5zM65 -205l15 480h110l15 -480h-140z" />
    <glyph glyph-name="cent" unicode="&#xa2;" horiz-adv-x="594" 
d="M308 203q100 0 122 91l128 -12q-15 -79 -71 -127.5t-138 -58.5v-96h-82v97q-103 13 -166 83.5t-63 176.5q0 105 63 175t166 83v92h82v-91q83 -9 138 -57t71 -128l-128 -12q-22 91 -122 91q-60 0 -96 -42.5t-36 -110.5q0 -69 36 -111.5t96 -42.5z" />
    <glyph glyph-name="sterling" unicode="&#xa3;" horiz-adv-x="653" 
d="M584 502l-116 -9q2 9 2 24q0 89 -95 89q-109 0 -109 -132v-83h144v-99h-144v-174h308v-118h-507v82l32 6q41 10 41 57v147h-73v99h73v83q0 110 65.5 177.5t172.5 67.5q88 0 148 -46.5t60 -140.5q0 -12 -2 -30z" />
    <glyph glyph-name="currency" unicode="&#xa4;" horiz-adv-x="676" 
d="M211 156l-68 -68l-73 77l67 66q-37 56 -37 125q0 70 37 126l-66 66l73 77l68 -68q56 37 127 37q69 0 124 -37l68 68l74 -75l-66 -67q36 -57 36 -126t-36 -126l66 -66l-74 -77l-68 68q-55 -36 -125 -36q-68 0 -127 36zM338 224q56 0 94 40t38 94q0 55 -38.5 93t-93.5 38
t-94 -39.5t-39 -94.5q0 -56 39.5 -93.5t93.5 -37.5z" />
    <glyph glyph-name="yen" unicode="&#xa5;" horiz-adv-x="622" 
d="M462 707h158l-188 -295h119v-104h-167v-111h167v-104h-167v-93h-145v93h-168v104h168v111h-168v104h119l-189 295h159l151 -245z" />
    <glyph glyph-name="brokenbar" unicode="&#xa6;" horiz-adv-x="343" 
d="M241 390h-139v360h139v-360zM241 -150h-139v360h139v-360z" />
    <glyph glyph-name="section" unicode="&#xa7;" horiz-adv-x="624" 
d="M327 -180q-95 0 -164 41t-88 127l111 29q24 -102 134 -102q53 0 85 23.5t32 67.5q0 15 -4.5 27t-18 21.5t-22 15.5t-33 14t-34 11t-40.5 11q-39 11 -62 18.5t-56 24t-51.5 34.5t-32.5 48t-14 67q0 73 42 120q-42 40 -42 106q0 87 63 137.5t165 50.5q95 0 164 -41t88 -127
l-112 -28q-23 101 -134 101q-52 0 -84 -23.5t-32 -66.5q0 -15 4.5 -27t18 -21.5t22 -15.5t33 -14t34 -11t40.5 -11q39 -11 62 -18.5t56 -24t51.5 -34.5t32.5 -48t14 -67q0 -73 -42 -120q42 -40 42 -106q0 -87 -63 -138t-165 -51zM414 170q21 22 21 59q0 17 -5 30.5t-19 24.5
t-24.5 18t-35 15.5t-36.5 12t-43 12.5q-43 10 -62 21q-21 -23 -21 -59q0 -17 5 -30.5t19 -24.5t24.5 -18t35 -15.5t36.5 -12t43 -12.5q41 -9 62 -21z" />
    <glyph glyph-name="dieresis" unicode="&#xa8;" horiz-adv-x="502" 
d="M149 582q-34 0 -57.5 23t-23.5 57q0 33 23.5 56t57.5 23q32 0 55.5 -23t23.5 -56q0 -34 -23 -57t-56 -23zM355 582q-33 0 -57 23.5t-24 56.5t24 56t57 23t56.5 -23t23.5 -56t-23.5 -56.5t-56.5 -23.5z" />
    <glyph glyph-name="copyright" unicode="&#xa9;" horiz-adv-x="848" 
d="M424 -10q-150 0 -257 107t-107 257t107 256.5t257 106.5t257 -106.5t107 -256.5t-107 -257t-257 -107zM424 63q122 0 206.5 84.5t84.5 206.5t-84.5 206.5t-206.5 84.5t-206.5 -84.5t-84.5 -206.5t84.5 -206.5t206.5 -84.5zM424 166q-79 0 -133.5 54.5t-54.5 133.5
q0 78 54.5 132.5t133.5 54.5q94 0 151 -75l-59 -43q-33 46 -92 46q-49 0 -82 -33.5t-33 -81.5q0 -49 33 -82t82 -33q59 0 92 45l59 -42q-58 -76 -151 -76z" />
    <glyph glyph-name="ordfeminine" unicode="&#xaa;" horiz-adv-x="441" 
d="M292 665v42h78v-300h-78v42q-38 -48 -102 -48q-62 0 -105 45.5t-43 110.5t43 110.5t105 45.5q64 0 102 -48zM205 470q36 0 61.5 25.5t25.5 61.5q0 37 -25.5 62t-61.5 25q-35 0 -60.5 -25t-25.5 -62q0 -36 25.5 -61.5t60.5 -25.5z" />
    <glyph glyph-name="guillemotleft" unicode="&#xab;" horiz-adv-x="556" 
d="M292 69h-112l-152 184l152 184h112l-152 -184zM528 69h-113l-152 184l152 184h113l-152 -184z" />
    <glyph glyph-name="logicalnot" unicode="&#xac;" horiz-adv-x="760" 
d="M706 76h-112v240h-539v112h651v-352z" />
    <glyph glyph-name="uni00AD" unicode="&#xad;" horiz-adv-x="395" 
d="M372 201h-350v104h350v-104z" />
    <glyph glyph-name="registered" unicode="&#xae;" horiz-adv-x="432" 
d="M216 308q-85 0 -145 60.5t-60 144.5q0 85 60 144.5t145 59.5q84 0 144.5 -60t60.5 -144t-60.5 -144.5t-144.5 -60.5zM216 352q67 0 114 47t47 114q0 68 -47 115t-114 47q-68 0 -115 -47.5t-47 -114.5t47 -114t115 -47zM182 402h-46v221h103q28 0 46.5 -19t18.5 -48
q0 -39 -34 -57l41 -97h-51l-35 90h-43v-90zM182 583v-52h47q29 0 29 25q0 27 -29 27h-47z" />
    <glyph glyph-name="macron" unicode="&#xaf;" horiz-adv-x="410" 
d="M343 588h-275v89h275v-89z" />
    <glyph glyph-name="degree" unicode="&#xb0;" horiz-adv-x="448" 
d="M224 417q-62 0 -106 43.5t-44 106.5t44 106.5t106 43.5t106 -43.5t44 -106.5t-44 -106.5t-106 -43.5zM224 494q31 0 51.5 21t20.5 52t-20.5 52t-51.5 21t-51.5 -21t-20.5 -52t20.5 -52t51.5 -21z" />
    <glyph glyph-name="plusminus" unicode="&#xb1;" horiz-adv-x="594" 
d="M349 175h-104v146h-190v104h190v145h104v-145h190v-104h-190v-146zM539 13h-484v104h484v-104z" />
    <glyph glyph-name="uni00B2" unicode="&#xb2;" horiz-adv-x="346" 
d="M258 595l-116 -119h180v-73h-296v66l169 173q37 36 37 68q0 51 -58 51q-67 0 -67 -70v-21l-82 9v19q0 64 39 100.5t107 36.5q64 0 103.5 -33t39.5 -89q0 -61 -56 -118z" />
    <glyph glyph-name="uni00B3" unicode="&#xb3;" horiz-adv-x="352" 
d="M178 395q-76 0 -116.5 39.5t-40.5 112.5h85q2 -78 71 -78q31 0 48.5 18t17.5 46q0 35 -21.5 48.5t-47.5 13.5h-14v64h12q26 0 41.5 15t15.5 40q0 22 -15 35t-38 13q-28 0 -44 -18.5t-16 -50.5v-4l-84 9q0 65 38.5 101t103.5 36q58 0 95.5 -33t37.5 -81q0 -32 -17 -55.5
t-39 -32.5q33 -9 55 -35t22 -70q0 -60 -41 -96.5t-109 -36.5z" />
    <glyph glyph-name="acute" unicode="&#xb4;" horiz-adv-x="371" 
d="M189 565h-121l88 142h147z" />
    <glyph glyph-name="uni00B5" unicode="&#xb5;" horiz-adv-x="608" 
d="M407 230v274h139v-504h-131l-6 61q-55 -71 -162 -71q-32 0 -53 4v-237h-138v747h138v-308q0 -48 26 -71.5t70 -23.5q51 0 84 31t33 98z" />
    <glyph glyph-name="paragraph" unicode="&#xb6;" horiz-adv-x="587" 
d="M317 -150h-71v522h-19q-84 0 -131 43.5t-47 124.5t47 124t131 43h90v-857zM485 -150h-72v857h72v-857z" />
    <glyph glyph-name="periodcentered" unicode="&#xb7;" horiz-adv-x="342" 
d="M171 272q-33 0 -57.5 24t-24.5 58q0 33 24.5 57.5t57.5 24.5q32 0 57 -24.5t25 -57.5q0 -34 -25 -58t-57 -24z" />
    <glyph glyph-name="cedilla" unicode="&#xb8;" horiz-adv-x="367" 
d="M210 -54q41 0 65.5 -24.5t24.5 -63.5q0 -44 -31.5 -73.5t-80.5 -29.5q-97 0 -120 69l76 21q10 -27 41 -27q18 0 30.5 10.5t12.5 29.5t-12 29t-30 10q-24 0 -36 -16l-65 28l76 129l67 -25l-45 -70q15 3 27 3z" />
    <glyph glyph-name="uni00B9" unicode="&#xb9;" horiz-adv-x="246" 
d="M10 745l101 82h80v-424h-83v327l-98 -79v94z" />
    <glyph glyph-name="ordmasculine" unicode="&#xba;" horiz-adv-x="404" 
d="M202 405q-70 0 -118 45.5t-48 110.5t48 110.5t118 45.5t118 -45.5t48 -110.5t-48 -110.5t-118 -45.5zM202 473q36 0 62 26t26 62q0 37 -26 62.5t-62 25.5q-37 0 -62.5 -25.5t-25.5 -62.5q0 -36 25.5 -62t62.5 -26z" />
    <glyph glyph-name="guillemotright" unicode="&#xbb;" horiz-adv-x="557" 
d="M293 253l-152 -184h-112l152 184l-152 184h112zM528 253l-152 -184h-111l152 184l-152 184h111z" />
    <glyph glyph-name="onequarter" unicode="&#xbc;" horiz-adv-x="782" 
d="M191 283h-83v327l-98 -79v94l101 82h80v-424zM108 0l399 707h85l-399 -707h-85zM715 158h45v-74h-45v-84h-83v84h-199v74l155 266h127v-266zM632 370l-121 -212h121v212z" />
    <glyph glyph-name="onehalf" unicode="&#xbd;" horiz-adv-x="799" 
d="M191 283h-83v327l-98 -79v94l101 82h80v-424zM108 0l399 707h85l-399 -707h-85zM711 193l-115 -119h179v-74h-296v66l169 173q37 36 37 69q0 24 -15.5 37.5t-42.5 13.5q-67 0 -67 -71v-20l-82 8v19q0 64 39 101t107 37q64 0 103.5 -33t39.5 -89q0 -62 -56 -118z" />
    <glyph glyph-name="threequarters" unicode="&#xbe;" horiz-adv-x="889" 
d="M328 408q0 -60 -41 -96.5t-109 -36.5q-76 0 -116.5 39.5t-40.5 112.5h85q2 -78 71 -78q31 0 48.5 18t17.5 46q0 35 -21.5 48.5t-47.5 13.5h-14v64h12q26 0 41.5 15t15.5 40q0 22 -15 35t-38 13q-28 0 -44 -18.5t-16 -50.5v-4l-84 9q0 65 38.5 101t103.5 36q58 0 95.5 -33
t37.5 -81q0 -32 -17 -55.5t-39 -32.5q33 -9 55 -35t22 -70zM214 0l399 707h85l-399 -707h-85zM822 158h45v-74h-45v-84h-83v84h-199v74l155 266h127v-266zM739 370l-121 -212h121v212z" />
    <glyph glyph-name="questiondown" unicode="&#xbf;" horiz-adv-x="531" 
d="M262 514q34 0 57 -23t23 -56q0 -34 -23.5 -57t-56.5 -23q-32 0 -55.5 23.5t-23.5 56.5t23 56t56 23zM208 284h111v-42q0 -46 -20 -71t-60 -50q-26 -16 -39.5 -26.5t-27 -35.5t-13.5 -58q0 -49 29 -76.5t77 -27.5q50 0 79.5 29.5t29.5 75.5q0 18 -4 31l123 -7q2 -18 2 -32
q0 -93 -63.5 -152t-166.5 -59q-106 0 -171 56.5t-65 151.5q0 24 4 45.5t8.5 37t16 32t17.5 24.5t22 21.5t20 16.5t22 15t19 12q26 17 38 32.5t12 37.5v19z" />
    <glyph glyph-name="Agrave" unicode="&#xc0;" horiz-adv-x="724" 
d="M339 873l84 -136h-121l-109 136h146zM716 0h-153l-53 148h-295l-53 -148h-154l265 707h179zM363 560l-105 -293h209z" />
    <glyph glyph-name="Aacute" unicode="&#xc1;" horiz-adv-x="724" 
d="M386 873h147l-109 -136h-121zM716 0h-153l-53 148h-295l-53 -148h-154l265 707h179zM363 560l-105 -293h209z" />
    <glyph glyph-name="Acircumflex" unicode="&#xc2;" horiz-adv-x="724" 
d="M425 742l-62 68l-62 -68h-113l96 131h158l96 -131h-113zM716 0h-153l-53 148h-295l-53 -148h-154l265 707h179zM363 560l-105 -293h209z" />
    <glyph glyph-name="Atilde" unicode="&#xc3;" horiz-adv-x="724" 
d="M295 809q-32 0 -32 -65h-67q0 63 28.5 102t77.5 39q21 0 39.5 -8t27 -15.5t20.5 -21.5q22 -28 43 -28q30 0 30 66h68q0 -61 -28.5 -101t-78.5 -40q-49 0 -85 45q-23 27 -43 27zM716 0h-153l-53 148h-295l-53 -148h-154l265 707h179zM363 560l-105 -293h209z" />
    <glyph glyph-name="Adieresis" unicode="&#xc4;" horiz-adv-x="724" 
d="M260 746q-34 0 -57.5 23.5t-23.5 57.5q0 33 23.5 56t57.5 23q32 0 55.5 -23t23.5 -56q0 -34 -23.5 -57.5t-55.5 -23.5zM466 746q-33 0 -57 23.5t-24 57.5q0 33 24 56t57 23t56.5 -23t23.5 -56t-24 -57t-56 -24zM716 0h-153l-53 148h-295l-53 -148h-154l265 707h179z
M363 560l-105 -293h209z" />
    <glyph glyph-name="Aring" unicode="&#xc5;" horiz-adv-x="724" 
d="M362 735q-55 0 -93 35.5t-38 91.5t37.5 91.5t93.5 35.5q55 0 92.5 -35.5t37.5 -91.5t-37.5 -91.5t-92.5 -35.5zM362 925q-26 0 -44 -17.5t-18 -45.5t18 -45.5t44 -17.5q27 0 45.5 18t18.5 45t-18.5 45t-45.5 18zM716 0h-153l-53 148h-295l-53 -148h-154l265 707h179z
M363 560l-105 -293h209z" />
    <glyph glyph-name="AE" unicode="&#xc6;" horiz-adv-x="905" 
d="M162 0h-154l265 707h587v-127h-275v-163h238v-127h-238v-163h275v-127h-420v148h-225zM370 580l-114 -313h184v313h-70z" />
    <glyph glyph-name="Ccedilla" unicode="&#xc7;" horiz-adv-x="763" 
d="M399 119q71 0 124 36.5t76 100.5l136 -48q-36 -96 -117 -155t-190 -66l-28 -44q15 3 27 3q41 0 65.5 -24.5t24.5 -63.5q0 -44 -31.5 -73.5t-80.5 -29.5q-97 0 -120 69l76 21q10 -27 41 -27q18 0 30.5 10.5t12.5 29.5t-12 29t-30 10q-24 0 -36 -16l-65 28l47 80
q-140 17 -226 116.5t-86 248.5q0 163 101 265t261 102q119 0 208 -59.5t128 -161.5l-136 -49q-23 64 -76 101t-124 37q-96 0 -157 -65t-61 -170t61 -170t157 -65z" />
    <glyph glyph-name="Egrave" unicode="&#xc8;" horiz-adv-x="525" 
d="M256 873l84 -136h-121l-109 136h146zM480 707v-126h-268v-165h239v-125h-239v-164h268v-127h-412v707h412z" />
    <glyph glyph-name="Eacute" unicode="&#xc9;" horiz-adv-x="525" 
d="M302 873h147l-109 -136h-121zM480 707v-126h-268v-165h239v-125h-239v-164h268v-127h-412v707h412z" />
    <glyph glyph-name="Ecircumflex" unicode="&#xca;" horiz-adv-x="525" 
d="M341 742l-62 68l-62 -68h-113l96 131h158l96 -131h-113zM480 707v-126h-268v-165h239v-125h-239v-164h268v-127h-412v707h412z" />
    <glyph glyph-name="Edieresis" unicode="&#xcb;" horiz-adv-x="525" 
d="M177 746q-34 0 -57.5 23.5t-23.5 57.5q0 33 23.5 56t57.5 23q32 0 55.5 -23t23.5 -56q0 -34 -23.5 -57.5t-55.5 -23.5zM383 746q-33 0 -57 23.5t-24 57.5q0 33 24 56t57 23t56.5 -23t23.5 -56t-23.5 -57t-56.5 -24zM480 707v-126h-268v-165h239v-125h-239v-164h268v-127
h-412v707h412z" />
    <glyph glyph-name="Igrave" unicode="&#xcc;" horiz-adv-x="280" 
d="M199 737h-121l-110 136h147zM212 0h-144v707h144v-707z" />
    <glyph glyph-name="Iacute" unicode="&#xcd;" horiz-adv-x="280" 
d="M200 737h-121l83 136h147zM212 0h-144v707h144v-707z" />
    <glyph glyph-name="Icircumflex" unicode="&#xce;" horiz-adv-x="280" 
d="M77 742h-114l97 131h158l96 -131h-113l-62 68zM212 0h-144v707h144v-707z" />
    <glyph glyph-name="Idieresis" unicode="&#xcf;" horiz-adv-x="280" 
d="M36 746q-34 0 -58 23.5t-24 57.5q0 33 24 56t58 23q32 0 55.5 -23t23.5 -56q0 -34 -23.5 -57.5t-55.5 -23.5zM242 746q-33 0 -57 23.5t-24 57.5q0 33 24 56t57 23t56.5 -23t23.5 -56t-24 -57t-56 -24zM212 0h-144v707h144v-707z" />
    <glyph glyph-name="Eth" unicode="&#xd0;" horiz-adv-x="703" 
d="M540 641q124 -91 124 -287q0 -197 -124 -288q-91 -66 -259 -66h-214v312h-76v85h76v310h214q168 0 259 -66zM439 168q80 56 80 186t-80 185q-59 42 -158 42h-69v-184h120v-85h-120v-185h69q100 0 158 41z" />
    <glyph glyph-name="Ntilde" unicode="&#xd1;" horiz-adv-x="769" 
d="M319 809q-32 0 -32 -65h-67q0 63 28.5 102t77.5 39q21 0 39.5 -8t27 -15.5t20.5 -21.5q22 -28 43 -28q30 0 30 66h68q0 -61 -28.5 -101t-78.5 -40q-49 0 -85 45q-23 27 -43 27zM557 203v504h145v-707h-174l-316 507v-507h-144v707h172z" />
    <glyph glyph-name="Ograve" unicode="&#xd2;" horiz-adv-x="798" 
d="M460 737h-121l-109 136h146zM399 -14q-159 0 -260.5 102.5t-101.5 265.5t101 265t261 102t261 -102t101 -265t-101.5 -265.5t-260.5 -102.5zM399 119q96 0 157 65t61 170t-61 170t-157 65t-157 -65t-61 -170t61 -170t157 -65z" />
    <glyph glyph-name="Oacute" unicode="&#xd3;" horiz-adv-x="798" 
d="M460 737h-121l83 136h147zM399 -14q-159 0 -260.5 102.5t-101.5 265.5t101 265t261 102t261 -102t101 -265t-101.5 -265.5t-260.5 -102.5zM399 119q96 0 157 65t61 170t-61 170t-157 65t-157 -65t-61 -170t61 -170t157 -65z" />
    <glyph glyph-name="Ocircumflex" unicode="&#xd4;" horiz-adv-x="798" 
d="M337 742h-113l96 131h158l96 -131h-113l-62 68zM399 -14q-159 0 -260.5 102.5t-101.5 265.5t101 265t261 102t261 -102t101 -265t-101.5 -265.5t-260.5 -102.5zM399 119q96 0 157 65t61 170t-61 170t-157 65t-157 -65t-61 -170t61 -170t157 -65z" />
    <glyph glyph-name="Otilde" unicode="&#xd5;" horiz-adv-x="798" 
d="M459 737q-49 0 -85 45q-23 27 -43 27q-32 0 -32 -65h-67q0 63 28.5 102t77.5 39q21 0 39.5 -8t27 -15.5t20.5 -21.5q22 -28 43 -28q30 0 30 66h68q0 -61 -28.5 -101t-78.5 -40zM399 -14q-159 0 -260.5 102.5t-101.5 265.5t101 265t261 102t261 -102t101 -265
t-101.5 -265.5t-260.5 -102.5zM399 119q96 0 157 65t61 170t-61 170t-157 65t-157 -65t-61 -170t61 -170t157 -65z" />
    <glyph glyph-name="Odieresis" unicode="&#xd6;" horiz-adv-x="798" 
d="M297 746q-34 0 -57.5 23.5t-23.5 57.5q0 33 23.5 56t57.5 23q32 0 55.5 -23t23.5 -56q0 -34 -23.5 -57.5t-55.5 -23.5zM503 746q-33 0 -57 23.5t-24 57.5q0 33 24 56t57 23t56.5 -23t23.5 -56t-23.5 -57t-56.5 -24zM399 -14q-159 0 -260.5 102.5t-101.5 265.5t101 265
t261 102t261 -102t101 -265t-101.5 -265.5t-260.5 -102.5zM399 119q96 0 157 65t61 170t-61 170t-157 65t-157 -65t-61 -170t61 -170t157 -65z" />
    <glyph glyph-name="multiply" unicode="&#xd7;" horiz-adv-x="525" 
d="M263 179l-135 -135l-73 74l135 135l-135 134l73 74l135 -134l135 134l73 -74l-135 -134l135 -135l-73 -74z" />
    <glyph glyph-name="Oslash" unicode="&#xd8;" horiz-adv-x="798" 
d="M697 727l-60 -87q124 -105 124 -286q0 -163 -101.5 -265.5t-260.5 -102.5q-105 0 -186 46l-58 -83l-53 32l60 86q-125 104 -125 287q0 163 101 265t261 102q104 0 187 -46l58 84zM181 354q0 -106 62 -171l264 379q-46 27 -108 27q-96 0 -157 -65t-61 -170zM399 119
q96 0 157 65t61 170q0 104 -61 170l-264 -379q47 -26 107 -26z" />
    <glyph glyph-name="Ugrave" unicode="&#xd9;" horiz-adv-x="681" 
d="M400 737h-121l-109 136h146zM341 -14q-126 0 -203.5 67.5t-77.5 197.5v456h144v-437q0 -78 37 -115.5t100 -37.5q62 0 99 37.5t37 115.5v437h145v-456q0 -130 -77.5 -197.5t-203.5 -67.5z" />
    <glyph glyph-name="Uacute" unicode="&#xda;" horiz-adv-x="681" 
d="M401 737h-121l83 136h147zM341 -14q-126 0 -203.5 67.5t-77.5 197.5v456h144v-437q0 -78 37 -115.5t100 -37.5q62 0 99 37.5t37 115.5v437h145v-456q0 -130 -77.5 -197.5t-203.5 -67.5z" />
    <glyph glyph-name="Ucircumflex" unicode="&#xdb;" horiz-adv-x="681" 
d="M278 742h-113l96 131h158l96 -131h-113l-62 68zM341 -14q-126 0 -203.5 67.5t-77.5 197.5v456h144v-437q0 -78 37 -115.5t100 -37.5q62 0 99 37.5t37 115.5v437h145v-456q0 -130 -77.5 -197.5t-203.5 -67.5z" />
    <glyph glyph-name="Udieresis" unicode="&#xdc;" horiz-adv-x="681" 
d="M237 746q-34 0 -57.5 23.5t-23.5 57.5q0 33 23.5 56t57.5 23q32 0 55.5 -23t23.5 -56q0 -34 -23.5 -57.5t-55.5 -23.5zM443 746q-33 0 -57 23.5t-24 57.5q0 33 24 56t57 23t56.5 -23t23.5 -56t-23.5 -57t-56.5 -24zM341 -14q-126 0 -203.5 67.5t-77.5 197.5v456h144v-437
q0 -78 37 -115.5t100 -37.5q62 0 99 37.5t37 115.5v437h145v-456q0 -130 -77.5 -197.5t-203.5 -67.5z" />
    <glyph glyph-name="Yacute" unicode="&#xdd;" horiz-adv-x="622" 
d="M334 873h147l-109 -136h-121zM462 707h158l-236 -371v-336h-145v334l-238 373h159l151 -247z" />
    <glyph glyph-name="Thorn" unicode="&#xde;" horiz-adv-x="602" 
d="M507 555q67 -54 67 -166q0 -69 -26.5 -123.5t-78.5 -82.5q-58 -31 -168 -31h-89v-152h-145v707h145v-97h89q139 0 206 -55zM391 294q38 24 38 87q0 59 -36 86q-31 22 -113 22h-68v-216h68q83 0 111 21z" />
    <glyph glyph-name="germandbls" unicode="&#xdf;" horiz-adv-x="706" 
d="M470 -10q-93 0 -156.5 36t-76.5 106l115 32q22 -78 109 -78q36 0 59 13.5t23 41.5q0 17 -8.5 29.5t-26.5 20.5t-32.5 12t-40.5 9q-88 18 -128.5 48t-40.5 94q0 34 11 59.5t35 43t40.5 25.5t47.5 21q29 13 44 21t28 23t13 34q0 32 -30 50.5t-87 18.5q-55 0 -90.5 -17.5
t-51.5 -52t-21 -67.5t-5 -82v-431h-139v453q0 307 307 307q115 0 181.5 -53t66.5 -138q0 -35 -11.5 -61t-35.5 -42.5t-41.5 -24t-48.5 -17.5q-26 -10 -38 -15.5t-23.5 -16.5t-11.5 -25q0 -21 19.5 -30.5t67.5 -20.5q94 -21 138.5 -54.5t44.5 -105.5q0 -83 -58.5 -124.5
t-147.5 -41.5z" />
    <glyph glyph-name="agrave" unicode="&#xe0;" horiz-adv-x="562" 
d="M260 707l88 -142h-121l-114 142h147zM504 329v-238q0 -57 9 -78v-13h-137l-6 69q-25 -38 -71 -58.5t-98 -20.5q-69 0 -116.5 33.5t-47.5 103.5q0 40 16 70t46 48.5t59.5 29t68.5 18.5l92 21q23 5 34.5 13t11.5 24q0 32 -25 48.5t-63 16.5q-87 0 -104 -77l-133 20
q32 155 239 155q109 0 167 -47.5t58 -137.5zM242 86q53 0 92 41.5t39 115.5l-124 -32q-74 -15 -74 -69q0 -27 18.5 -41.5t48.5 -14.5z" />
    <glyph glyph-name="aacute" unicode="&#xe1;" horiz-adv-x="562" 
d="M312 707h147l-114 -142h-121zM504 329v-238q0 -57 9 -78v-13h-137l-6 69q-25 -38 -71 -58.5t-98 -20.5q-69 0 -116.5 33.5t-47.5 103.5q0 40 16 70t46 48.5t59.5 29t68.5 18.5l92 21q23 5 34.5 13t11.5 24q0 32 -25 48.5t-63 16.5q-87 0 -104 -77l-133 20q32 155 239 155
q109 0 167 -47.5t58 -137.5zM242 86q53 0 92 41.5t39 115.5l-124 -32q-74 -15 -74 -69q0 -27 18.5 -41.5t48.5 -14.5z" />
    <glyph glyph-name="acircumflex" unicode="&#xe2;" horiz-adv-x="562" 
d="M346 565l-60 78l-61 -78h-113l96 142h156l96 -142h-114zM504 329v-238q0 -57 9 -78v-13h-137l-6 69q-25 -38 -71 -58.5t-98 -20.5q-69 0 -116.5 33.5t-47.5 103.5q0 40 16 70t46 48.5t59.5 29t68.5 18.5l92 21q23 5 34.5 13t11.5 24q0 32 -25 48.5t-63 16.5
q-87 0 -104 -77l-133 20q32 155 239 155q109 0 167 -47.5t58 -137.5zM242 86q53 0 92 41.5t39 115.5l-124 -32q-74 -15 -74 -69q0 -27 18.5 -41.5t48.5 -14.5z" />
    <glyph glyph-name="atilde" unicode="&#xe3;" horiz-adv-x="562" 
d="M218 630q-32 0 -32 -65h-67q0 62 28.5 101t77.5 39q47 0 87 -44q21 -28 43 -28q30 0 30 65h68q0 -61 -28.5 -100.5t-78.5 -39.5t-85 44q-24 28 -43 28zM504 329v-238q0 -57 9 -78v-13h-137l-6 69q-25 -38 -71 -58.5t-98 -20.5q-69 0 -116.5 33.5t-47.5 103.5q0 40 16 70
t46 48.5t59.5 29t68.5 18.5l92 21q23 5 34.5 13t11.5 24q0 32 -25 48.5t-63 16.5q-87 0 -104 -77l-133 20q32 155 239 155q109 0 167 -47.5t58 -137.5zM242 86q53 0 92 41.5t39 115.5l-124 -32q-74 -15 -74 -69q0 -27 18.5 -41.5t48.5 -14.5z" />
    <glyph glyph-name="adieresis" unicode="&#xe4;" horiz-adv-x="562" 
d="M183 582q-34 0 -57.5 23t-23.5 57q0 33 23.5 56t57.5 23q32 0 55.5 -23t23.5 -56q0 -34 -23 -57t-56 -23zM389 582q-33 0 -57 23.5t-24 56.5t24 56t57 23t56.5 -23t23.5 -56t-23.5 -56.5t-56.5 -23.5zM504 329v-238q0 -57 9 -78v-13h-137l-6 69q-25 -38 -71 -58.5
t-98 -20.5q-69 0 -116.5 33.5t-47.5 103.5q0 40 16 70t46 48.5t59.5 29t68.5 18.5l92 21q23 5 34.5 13t11.5 24q0 32 -25 48.5t-63 16.5q-87 0 -104 -77l-133 20q32 155 239 155q109 0 167 -47.5t58 -137.5zM242 86q53 0 92 41.5t39 115.5l-124 -32q-74 -15 -74 -69
q0 -27 18.5 -41.5t48.5 -14.5z" />
    <glyph glyph-name="aring" unicode="&#xe5;" horiz-adv-x="562" 
d="M286 558q-56 0 -90 35t-34 86q0 50 34.5 85t89.5 35t88.5 -35t33.5 -85q0 -51 -34 -86t-88 -35zM286 733q-24 0 -39 -15t-15 -39q0 -23 15.5 -38.5t38.5 -15.5t38.5 15.5t15.5 38.5q0 24 -15.5 39t-38.5 15zM504 329v-238q0 -57 9 -78v-13h-137l-6 69q-25 -38 -71 -58.5
t-98 -20.5q-69 0 -116.5 33.5t-47.5 103.5q0 40 16 70t46 48.5t59.5 29t68.5 18.5l92 21q23 5 34.5 13t11.5 24q0 32 -25 48.5t-63 16.5q-87 0 -104 -77l-133 20q32 155 239 155q109 0 167 -47.5t58 -137.5zM242 86q53 0 92 41.5t39 115.5l-124 -32q-74 -15 -74 -69
q0 -27 18.5 -41.5t48.5 -14.5z" />
    <glyph glyph-name="ae" unicode="&#xe6;" horiz-adv-x="914" 
d="M872 256l-2 -32h-383q5 -59 42 -92t92 -33q83 0 112 69l128 -17q-25 -77 -88.5 -119t-151.5 -42q-143 0 -216 90q-75 -90 -201 -90q-73 0 -118.5 33.5t-45.5 102.5q0 39 15.5 68t45 47.5t60.5 29t74 19.5l80 16q46 11 46 41q0 37 -25.5 55t-65.5 18q-92 0 -102 -89
l-124 19q15 85 72 124t164 39q114 0 163 -53q69 54 174 54q114 0 184 -66t71 -192zM618 412q-108 0 -128 -103h245q-6 48 -38 75.5t-79 27.5zM242 97q36 0 69.5 18.5t48.5 54.5q-8 28 -9 60l-95 -22q-80 -17 -80 -62q0 -23 18 -36t48 -13z" />
    <glyph glyph-name="ccedilla" unicode="&#xe7;" horiz-adv-x="594" 
d="M308 99q100 0 122 91l128 -12q-16 -83 -76 -132t-147 -55l-31 -48q15 3 27 3q41 0 65.5 -24.5t24.5 -63.5q0 -44 -31.5 -73.5t-80.5 -29.5q-97 0 -120 69l76 21q10 -27 41 -27q18 0 30.5 10.5t12.5 29.5t-12 29t-30 10q-24 0 -36 -16l-65 28l50 85q-99 16 -158.5 86
t-59.5 173q0 116 75.5 188.5t196.5 72.5q98 0 164 -49t84 -138l-128 -12q-22 91 -122 91q-60 0 -96 -42.5t-36 -110.5q0 -69 36 -111.5t96 -42.5z" />
    <glyph glyph-name="egrave" unicode="&#xe8;" horiz-adv-x="594" 
d="M281 708l88 -142h-121l-114 142h147zM557 256l-1 -32h-383q5 -59 41.5 -92t91.5 -33q84 0 113 69l128 -17q-24 -76 -88.5 -118.5t-151.5 -42.5q-124 0 -197.5 70t-73.5 192q0 121 73.5 191.5t193.5 70.5q114 0 184 -66t70 -192zM303 412q-107 0 -127 -103h244
q-5 48 -37 75.5t-80 27.5z" />
    <glyph glyph-name="eacute" unicode="&#xe9;" horiz-adv-x="594" 
d="M332 708h147l-114 -142h-121zM557 256l-1 -32h-383q5 -59 41.5 -92t91.5 -33q84 0 113 69l128 -17q-24 -76 -88.5 -118.5t-151.5 -42.5q-124 0 -197.5 70t-73.5 192q0 121 73.5 191.5t193.5 70.5q114 0 184 -66t70 -192zM303 412q-107 0 -127 -103h244q-5 48 -37 75.5
t-80 27.5z" />
    <glyph glyph-name="ecircumflex" unicode="&#xea;" horiz-adv-x="594" 
d="M367 566l-60 78l-61 -78h-113l96 142h156l96 -142h-114zM557 256l-1 -32h-383q5 -59 41.5 -92t91.5 -33q84 0 113 69l128 -17q-24 -76 -88.5 -118.5t-151.5 -42.5q-124 0 -197.5 70t-73.5 192q0 121 73.5 191.5t193.5 70.5q114 0 184 -66t70 -192zM303 412
q-107 0 -127 -103h244q-5 48 -37 75.5t-80 27.5z" />
    <glyph glyph-name="edieresis" unicode="&#xeb;" horiz-adv-x="594" 
d="M204 583q-34 0 -57.5 23t-23.5 57q0 33 23.5 56t57.5 23q32 0 55.5 -23t23.5 -56t-23.5 -56.5t-55.5 -23.5zM410 583q-33 0 -57 23.5t-24 56.5t24 56t57 23t56.5 -23t23.5 -56t-23.5 -56.5t-56.5 -23.5zM557 256l-1 -32h-383q5 -59 41.5 -92t91.5 -33q84 0 113 69
l128 -17q-24 -76 -88.5 -118.5t-151.5 -42.5q-124 0 -197.5 70t-73.5 192q0 121 73.5 191.5t193.5 70.5q114 0 184 -66t70 -192zM303 412q-107 0 -127 -103h244q-5 48 -37 75.5t-80 27.5z" />
    <glyph glyph-name="igrave" unicode="&#xec;" horiz-adv-x="259" 
d="M192 565h-121l-115 142h148zM199 0h-139v504h139v-504z" />
    <glyph glyph-name="iacute" unicode="&#xed;" horiz-adv-x="259" 
d="M188 565h-121l88 142h147zM199 0h-139v504h139v-504z" />
    <glyph glyph-name="icircumflex" unicode="&#xee;" horiz-adv-x="259" 
d="M69 565h-114l97 142h156l96 -142h-114l-60 78zM199 0h-139v504h139v-504z" />
    <glyph glyph-name="idieresis" unicode="&#xef;" horiz-adv-x="259" 
d="M27 582q-34 0 -58 23t-24 57q0 33 24 56t58 23q32 0 55.5 -23t23.5 -56q0 -34 -23 -57t-56 -23zM233 582q-33 0 -57 23.5t-24 56.5t24 56t57 23t56.5 -23t23.5 -56t-23.5 -56.5t-56.5 -23.5zM199 0h-139v504h139v-504z" />
    <glyph glyph-name="eth" unicode="&#xf0;" horiz-adv-x="611" 
d="M360 638l164 -215q57 -73 57 -170q0 -121 -76.5 -191.5t-199.5 -71.5q-124 1 -200.5 71.5t-76.5 191.5q0 118 76 188.5t198 72.5l-71 91l-125 -32l-11 39l109 28l-86 110h156l59 -77l100 25l10 -39zM305 99q62 0 100 42.5t38 111.5q0 67 -38 109.5t-100 42.5
q-63 0 -101 -42.5t-38 -109.5q0 -69 38 -111.5t101 -42.5z" />
    <glyph glyph-name="ntilde" unicode="&#xf1;" horiz-adv-x="608" 
d="M232 630q-32 0 -32 -65h-67q0 62 28.5 101t77.5 39q47 0 87 -44q21 -28 43 -28q30 0 30 65h68q0 -61 -28.5 -100.5t-78.5 -39.5t-85 44q-24 28 -43 28zM360 514q94 0 142.5 -46t48.5 -131v-337h-138v308q0 48 -26.5 72t-70.5 24q-105 0 -116 -110v-294h-139v504h139v-57
q57 67 160 67z" />
    <glyph glyph-name="ograve" unicode="&#xf2;" horiz-adv-x="628" 
d="M378 565h-121l-114 142h147zM314 -10q-123 1 -199.5 71.5t-76.5 191.5q0 119 76.5 189.5t199.5 71.5q124 -1 200.5 -71.5t76.5 -189.5q0 -121 -76.5 -191.5t-200.5 -71.5zM314 100q62 0 100 42.5t38 110.5q0 67 -38 109t-100 42t-100 -42t-38 -109q0 -68 38 -110.5
t100 -42.5z" />
    <glyph glyph-name="oacute" unicode="&#xf3;" horiz-adv-x="628" 
d="M375 565h-121l88 142h147zM314 -10q-123 1 -199.5 71.5t-76.5 191.5q0 119 76.5 189.5t199.5 71.5q124 -1 200.5 -71.5t76.5 -189.5q0 -121 -76.5 -191.5t-200.5 -71.5zM314 100q62 0 100 42.5t38 110.5q0 67 -38 109t-100 42t-100 -42t-38 -109q0 -68 38 -110.5
t100 -42.5z" />
    <glyph glyph-name="ocircumflex" unicode="&#xf4;" horiz-adv-x="628" 
d="M255 565h-113l96 142h156l96 -142h-114l-60 78zM314 -10q-123 1 -199.5 71.5t-76.5 191.5q0 119 76.5 189.5t199.5 71.5q124 -1 200.5 -71.5t76.5 -189.5q0 -121 -76.5 -191.5t-200.5 -71.5zM314 100q62 0 100 42.5t38 110.5q0 67 -38 109t-100 42t-100 -42t-38 -109
q0 -68 38 -110.5t100 -42.5z" />
    <glyph glyph-name="otilde" unicode="&#xf5;" horiz-adv-x="628" 
d="M376 558q-50 0 -85 44q-24 28 -43 28q-32 0 -32 -65h-67q0 62 28.5 101t77.5 39q47 0 87 -44q21 -28 43 -28q30 0 30 65h68q0 -61 -28.5 -100.5t-78.5 -39.5zM314 -10q-123 1 -199.5 71.5t-76.5 191.5q0 119 76.5 189.5t199.5 71.5q124 -1 200.5 -71.5t76.5 -189.5
q0 -121 -76.5 -191.5t-200.5 -71.5zM314 100q62 0 100 42.5t38 110.5q0 67 -38 109t-100 42t-100 -42t-38 -109q0 -68 38 -110.5t100 -42.5z" />
    <glyph glyph-name="odieresis" unicode="&#xf6;" horiz-adv-x="628" 
d="M213 582q-34 0 -57.5 23t-23.5 57q0 33 23.5 56t57.5 23q32 0 55.5 -23t23.5 -56q0 -34 -23 -57t-56 -23zM419 582q-33 0 -57 23.5t-24 56.5t24 56t57 23t56.5 -23t23.5 -56t-23.5 -56.5t-56.5 -23.5zM314 -10q-123 1 -199.5 71.5t-76.5 191.5q0 119 76.5 189.5
t199.5 71.5q124 -1 200.5 -71.5t76.5 -189.5q0 -121 -76.5 -191.5t-200.5 -71.5zM314 100q62 0 100 42.5t38 110.5q0 67 -38 109t-100 42t-100 -42t-38 -109q0 -68 38 -110.5t100 -42.5z" />
    <glyph glyph-name="divide" unicode="&#xf7;" horiz-adv-x="609" 
d="M301 370q-29 0 -50 20.5t-21 50.5q0 29 21 50t50 21t50 -21t21 -50q0 -30 -21 -50.5t-50 -20.5zM555 201h-500v104h500v-104zM301 -7q-29 0 -50 20.5t-21 50.5q0 28 21 49.5t50 21.5t50 -21.5t21 -49.5q0 -30 -21 -50.5t-50 -20.5z" />
    <glyph glyph-name="oslash" unicode="&#xf8;" horiz-adv-x="628" 
d="M539 518l-42 -60q94 -72 94 -205q0 -121 -76.5 -191.5t-200.5 -71.5q-67 0 -126 24l-43 -61l-53 33l41 60q-95 72 -95 207q0 119 76.5 189.5t199.5 71.5q70 0 128 -25l43 62zM176 253q0 -62 31 -102l167 240q-26 13 -60 13q-62 0 -100 -42t-38 -109zM314 100
q62 0 100 42.5t38 110.5q0 58 -29 98l-167 -239q26 -12 58 -12z" />
    <glyph glyph-name="ugrave" unicode="&#xf9;" horiz-adv-x="609" 
d="M276 707l88 -142h-121l-114 142h147zM408 230v274h139v-504h-139v58q-57 -68 -160 -68q-94 0 -143 46.5t-49 130.5v337h138v-308q0 -48 26.5 -71.5t70.5 -23.5q51 0 83.5 31t33.5 98z" />
    <glyph glyph-name="uacute" unicode="&#xfa;" horiz-adv-x="609" 
d="M327 707h147l-114 -142h-121zM408 230v274h139v-504h-139v58q-57 -68 -160 -68q-94 0 -143 46.5t-49 130.5v337h138v-308q0 -48 26.5 -71.5t70.5 -23.5q51 0 83.5 31t33.5 98z" />
    <glyph glyph-name="ucircumflex" unicode="&#xfb;" horiz-adv-x="609" 
d="M362 565l-60 78l-61 -78h-113l96 142h156l96 -142h-114zM408 230v274h139v-504h-139v58q-57 -68 -160 -68q-94 0 -143 46.5t-49 130.5v337h138v-308q0 -48 26.5 -71.5t70.5 -23.5q51 0 83.5 31t33.5 98z" />
    <glyph glyph-name="udieresis" unicode="&#xfc;" horiz-adv-x="609" 
d="M199 582q-34 0 -57.5 23t-23.5 57q0 33 23.5 56t57.5 23q32 0 55.5 -23t23.5 -56q0 -34 -23 -57t-56 -23zM405 582q-33 0 -57 23.5t-24 56.5t24 56t57 23t56.5 -23t23.5 -56t-23.5 -56.5t-56.5 -23.5zM408 230v274h139v-504h-139v58q-57 -68 -160 -68q-94 0 -143 46.5
t-49 130.5v337h138v-308q0 -48 26.5 -71.5t70.5 -23.5q51 0 83.5 31t33.5 98z" />
    <glyph glyph-name="yacute" unicode="&#xfd;" horiz-adv-x="582" 
d="M321 707h147l-114 -142h-121zM291 165l126 339h151l-317 -747h-151l119 268l-205 479h150z" />
    <glyph glyph-name="thorn" unicode="&#xfe;" horiz-adv-x="642" 
d="M358 514q104 0 174.5 -71.5t70.5 -191.5t-70.5 -191.5t-174.5 -71.5q-110 0 -158 71v-302h-139v993h139v-307q48 71 158 71zM329 102q59 0 97 40.5t38 108.5t-38 108.5t-97 40.5t-97 -40.5t-38 -108.5t38 -108.5t97 -40.5z" />
    <glyph glyph-name="ydieresis" unicode="&#xff;" horiz-adv-x="582" 
d="M193 582q-34 0 -57.5 23t-23.5 57q0 33 23.5 56t57.5 23q32 0 55.5 -23t23.5 -56q0 -34 -23 -57t-56 -23zM399 582q-33 0 -57 23.5t-24 56.5t24 56t57 23t56.5 -23t23.5 -56t-23.5 -56.5t-56.5 -23.5zM291 165l126 339h151l-317 -747h-151l119 268l-205 479h150z" />
    <glyph glyph-name="Amacron" unicode="&#x100;" horiz-adv-x="724" 
d="M201 864h325v-89h-325v89zM716 0h-153l-53 148h-295l-53 -148h-154l265 707h179zM363 560l-105 -293h209z" />
    <glyph glyph-name="amacron" unicode="&#x101;" horiz-adv-x="562" 
d="M149 677h275v-89h-275v89zM504 329v-238q0 -57 9 -78v-13h-137l-6 69q-25 -38 -71 -58.5t-98 -20.5q-69 0 -116.5 33.5t-47.5 103.5q0 40 16 70t46 48.5t59.5 29t68.5 18.5l92 21q23 5 34.5 13t11.5 24q0 32 -25 48.5t-63 16.5q-87 0 -104 -77l-133 20q32 155 239 155
q109 0 167 -47.5t58 -137.5zM242 86q53 0 92 41.5t39 115.5l-124 -32q-74 -15 -74 -69q0 -27 18.5 -41.5t48.5 -14.5z" />
    <glyph glyph-name="Abreve" unicode="&#x102;" horiz-adv-x="724" 
d="M361 740q-85 0 -130 29.5t-47 103.5h87q3 -34 24.5 -49t65.5 -15q45 0 67 15t25 49h87q-3 -74 -48.5 -103.5t-130.5 -29.5zM716 0h-153l-53 148h-295l-53 -148h-154l265 707h179zM363 560l-105 -293h209z" />
    <glyph glyph-name="abreve" unicode="&#x103;" horiz-adv-x="562" 
d="M285 555q-178 0 -178 152h98q0 -38 20.5 -59t59.5 -21q81 0 81 80h99q0 -152 -180 -152zM504 329v-238q0 -57 9 -78v-13h-137l-6 69q-25 -38 -71 -58.5t-98 -20.5q-69 0 -116.5 33.5t-47.5 103.5q0 40 16 70t46 48.5t59.5 29t68.5 18.5l92 21q23 5 34.5 13t11.5 24
q0 32 -25 48.5t-63 16.5q-87 0 -104 -77l-133 20q32 155 239 155q109 0 167 -47.5t58 -137.5zM242 86q53 0 92 41.5t39 115.5l-124 -32q-74 -15 -74 -69q0 -27 18.5 -41.5t48.5 -14.5z" />
    <glyph glyph-name="Aogonek" unicode="&#x104;" horiz-adv-x="724" 
d="M634 -105q0 -27 39 -27q25 0 43 15v-86q-34 -13 -74 -13q-43 0 -70.5 17t-27.5 51q0 61 110 148h-91l-53 148h-295l-53 -148h-154l265 707h179l264 -707q-37 -26 -59.5 -54.5t-22.5 -50.5zM363 560l-105 -293h209z" />
    <glyph glyph-name="aogonek" unicode="&#x105;" horiz-adv-x="562" 
d="M434 -105q0 -27 39 -27q25 0 43 15v-86q-34 -13 -74 -13q-43 0 -70.5 17t-27.5 51q0 61 110 148h-78l-6 69q-25 -38 -71 -58.5t-98 -20.5q-69 0 -116.5 33.5t-47.5 103.5q0 40 16 70t46 48.5t59.5 29t68.5 18.5l92 21q23 5 34.5 13t11.5 24q0 32 -25 48.5t-63 16.5
q-87 0 -104 -77l-133 20q32 155 239 155q109 0 167 -47.5t58 -137.5v-238q0 -57 9 -78v-12l3 -1q-37 -26 -59.5 -54.5t-22.5 -50.5zM242 86q53 0 92 41.5t39 115.5l-124 -32q-74 -15 -74 -69q0 -27 18.5 -41.5t48.5 -14.5z" />
    <glyph glyph-name="Cacute" unicode="&#x106;" horiz-adv-x="763" 
d="M460 737h-121l83 136h147zM399 -14q-159 0 -260.5 102.5t-101.5 265.5t101 265t261 102q119 0 208 -59.5t128 -161.5l-136 -49q-23 64 -76 101t-124 37q-96 0 -157 -65t-61 -170t61 -170t157 -65q71 0 124 36.5t76 100.5l136 -48q-39 -103 -128 -162.5t-208 -59.5z" />
    <glyph glyph-name="cacute" unicode="&#x107;" horiz-adv-x="594" 
d="M362 565h-121l88 142h147zM310 -10q-121 0 -196.5 73t-75.5 190q0 116 75.5 188.5t196.5 72.5q98 0 164 -49t84 -138l-128 -12q-22 91 -122 91q-60 0 -96 -42.5t-36 -110.5q0 -69 36 -111.5t96 -42.5q100 0 122 91l128 -12q-18 -89 -85 -138.5t-163 -49.5z" />
    <glyph glyph-name="Cdotaccent" unicode="&#x10a;" horiz-adv-x="763" 
d="M400 746q-34 0 -57.5 23.5t-23.5 57.5q0 33 23.5 56t57.5 23q32 0 55.5 -23t23.5 -56q0 -34 -23.5 -57.5t-55.5 -23.5zM399 -14q-159 0 -260.5 102.5t-101.5 265.5t101 265t261 102q119 0 208 -59.5t128 -161.5l-136 -49q-23 64 -76 101t-124 37q-96 0 -157 -65t-61 -170
t61 -170t157 -65q71 0 124 36.5t76 100.5l136 -48q-39 -103 -128 -162.5t-208 -59.5z" />
    <glyph glyph-name="cdotaccent" unicode="&#x10b;" horiz-adv-x="594" 
d="M304 582q-34 0 -57.5 23t-23.5 57q0 33 23.5 56t57.5 23q32 0 55.5 -23t23.5 -56q0 -34 -23.5 -57t-55.5 -23zM310 -10q-121 0 -196.5 73t-75.5 190q0 116 75.5 188.5t196.5 72.5q98 0 164 -49t84 -138l-128 -12q-22 91 -122 91q-60 0 -96 -42.5t-36 -110.5
q0 -69 36 -111.5t96 -42.5q100 0 122 91l128 -12q-18 -89 -85 -138.5t-163 -49.5z" />
    <glyph glyph-name="Ccaron" unicode="&#x10c;" horiz-adv-x="763" 
d="M478 742h-158l-96 131h113l62 -68l62 68h113zM399 -14q-159 0 -260.5 102.5t-101.5 265.5t101 265t261 102q119 0 208 -59.5t128 -161.5l-136 -49q-23 64 -76 101t-124 37q-96 0 -157 -65t-61 -170t61 -170t157 -65q71 0 124 36.5t76 100.5l136 -48q-39 -103 -128 -162.5
t-208 -59.5z" />
    <glyph glyph-name="ccaron" unicode="&#x10d;" horiz-adv-x="594" 
d="M381 565h-156l-96 142h113l61 -78l60 78h114zM310 -10q-121 0 -196.5 73t-75.5 190q0 116 75.5 188.5t196.5 72.5q98 0 164 -49t84 -138l-128 -12q-22 91 -122 91q-60 0 -96 -42.5t-36 -110.5q0 -69 36 -111.5t96 -42.5q100 0 122 91l128 -12q-18 -89 -85 -138.5
t-163 -49.5z" />
    <glyph glyph-name="Dcaron" unicode="&#x10e;" horiz-adv-x="703" 
d="M368 742h-158l-96 131h113l62 -68l62 68h113zM281 0h-214v707h214q168 0 259 -66q124 -91 124 -287q0 -197 -124 -288q-91 -66 -259 -66zM212 581v-454h69q100 0 158 41q80 56 80 186t-80 185q-59 42 -158 42h-69z" />
    <glyph glyph-name="dcaron" unicode="&#x10f;" horiz-adv-x="798" 
d="M442 442v308h138v-750h-131l-3 67q-21 -37 -64.5 -57t-98.5 -20q-105 0 -175 70.5t-70 190.5t70.5 191.5t174.5 71.5q52 0 94.5 -19t64.5 -53zM647 387l61 320h142l-103 -320h-100zM313 105q59 0 97 39.5t38 106.5q0 68 -38 108.5t-97 40.5q-60 0 -98 -40.5t-38 -108.5
t38 -107t98 -39z" />
    <glyph glyph-name="Dcroat" unicode="&#x110;" horiz-adv-x="703" 
d="M540 641q124 -91 124 -287q0 -197 -124 -288q-91 -66 -259 -66h-214v312h-76v85h76v310h214q168 0 259 -66zM439 168q80 56 80 186t-80 185q-59 42 -158 42h-69v-184h120v-85h-120v-185h69q100 0 158 41z" />
    <glyph glyph-name="dcroat" unicode="&#x111;" horiz-adv-x="642" 
d="M580 667h69v-85h-69v-582h-138v61q-46 -71 -159 -71q-105 0 -175 70.5t-70 190.5t70.5 191.5t174.5 71.5q52 0 94.5 -19t64.5 -53v140h-133v85h133v83h138v-83zM313 105q59 0 97 39.5t38 106.5q0 68 -38 108.5t-97 40.5q-60 0 -98 -40.5t-38 -108.5t38 -107t98 -39z" />
    <glyph glyph-name="Emacron" unicode="&#x112;" horiz-adv-x="525" 
d="M117 864h325v-89h-325v89zM480 707v-126h-268v-165h239v-125h-239v-164h268v-127h-412v707h412z" />
    <glyph glyph-name="emacron" unicode="&#x113;" horiz-adv-x="594" 
d="M169 678h275v-89h-275v89zM557 256l-1 -32h-383q5 -59 41.5 -92t91.5 -33q84 0 113 69l128 -17q-24 -76 -88.5 -118.5t-151.5 -42.5q-124 0 -197.5 70t-73.5 192q0 121 73.5 191.5t193.5 70.5q114 0 184 -66t70 -192zM303 412q-107 0 -127 -103h244q-5 48 -37 75.5
t-80 27.5z" />
    <glyph glyph-name="Ebreve" unicode="&#x114;" horiz-adv-x="525" 
d="M278 740q-85 0 -130 29.5t-47 103.5h87q3 -34 24.5 -49t65.5 -15q45 0 67 15t25 49h87q-3 -74 -48.5 -103.5t-130.5 -29.5zM480 707v-126h-268v-165h239v-125h-239v-164h268v-127h-412v707h412z" />
    <glyph glyph-name="ebreve" unicode="&#x115;" horiz-adv-x="594" 
d="M306 556q-178 0 -178 152h98q0 -38 20.5 -59t59.5 -21q81 0 81 80h99q0 -152 -180 -152zM557 256l-1 -32h-383q5 -59 41.5 -92t91.5 -33q84 0 113 69l128 -17q-24 -76 -88.5 -118.5t-151.5 -42.5q-124 0 -197.5 70t-73.5 192q0 121 73.5 191.5t193.5 70.5q114 0 184 -66
t70 -192zM303 412q-107 0 -127 -103h244q-5 48 -37 75.5t-80 27.5z" />
    <glyph glyph-name="Edotaccent" unicode="&#x116;" horiz-adv-x="525" 
d="M281 746q-34 0 -57.5 23.5t-23.5 57.5q0 33 23.5 56t57.5 23q32 0 55.5 -23t23.5 -56q0 -34 -23.5 -57.5t-55.5 -23.5zM480 707v-126h-268v-165h239v-125h-239v-164h268v-127h-412v707h412z" />
    <glyph glyph-name="edotaccent" unicode="&#x117;" horiz-adv-x="594" 
d="M308 583q-34 0 -57.5 23t-23.5 57q0 33 23.5 56t57.5 23q32 0 55.5 -23t23.5 -56t-23.5 -56.5t-55.5 -23.5zM557 256l-1 -32h-383q5 -59 41.5 -92t91.5 -33q84 0 113 69l128 -17q-24 -76 -88.5 -118.5t-151.5 -42.5q-124 0 -197.5 70t-73.5 192q0 121 73.5 191.5
t193.5 70.5q114 0 184 -66t70 -192zM303 412q-107 0 -127 -103h244q-5 48 -37 75.5t-80 27.5z" />
    <glyph glyph-name="Eogonek" unicode="&#x118;" horiz-adv-x="525" 
d="M480 707v-126h-268v-165h239v-125h-239v-164h268v-127q-37 -26 -59.5 -54.5t-22.5 -50.5q0 -27 39 -27q25 0 43 15v-86q-34 -13 -74 -13q-43 0 -70.5 17t-27.5 51q0 61 110 148h-350v707h412z" />
    <glyph glyph-name="eogonek" unicode="&#x119;" horiz-adv-x="594" 
d="M557 256l-1 -32h-383q5 -59 41.5 -92t91.5 -33q84 0 113 69l128 -17q-19 -59 -61.5 -98t-102.5 -54q-81 -57 -81 -104q0 -27 39 -27q25 0 43 15v-86q-34 -13 -74 -13q-43 0 -70.5 17t-27.5 51q0 59 98 138h-3q-124 0 -197.5 70t-73.5 192q0 121 73.5 191.5t193.5 70.5
q114 0 184 -66t70 -192zM303 412q-107 0 -127 -103h244q-5 48 -37 75.5t-80 27.5z" />
    <glyph glyph-name="Ecaron" unicode="&#x11a;" horiz-adv-x="525" 
d="M454 873l-96 -131h-158l-96 131h113l62 -68l62 68h113zM480 707v-126h-268v-165h239v-125h-239v-164h268v-127h-412v707h412z" />
    <glyph glyph-name="ecaron" unicode="&#x11b;" horiz-adv-x="594" 
d="M481 708l-96 -142h-156l-96 142h113l61 -78l60 78h114zM557 256l-1 -32h-383q5 -59 41.5 -92t91.5 -33q84 0 113 69l128 -17q-24 -76 -88.5 -118.5t-151.5 -42.5q-124 0 -197.5 70t-73.5 192q0 121 73.5 191.5t193.5 70.5q114 0 184 -66t70 -192zM303 412
q-107 0 -127 -103h244q-5 48 -37 75.5t-80 27.5z" />
    <glyph glyph-name="Gcircumflex" unicode="&#x11c;" horiz-adv-x="788" 
d="M336 742h-113l96 131h158l96 -131h-113l-62 68zM391 -14q-156 0 -255 102.5t-99 265.5t101 265t261 102q104 0 186 -45.5t127 -126.5l-126 -67q-28 51 -76.5 79t-110.5 28q-96 0 -157 -65t-61 -170q0 -106 59 -170.5t159 -64.5q73 0 126.5 39t70.5 113h-191v115h333v-386
h-113v107q-75 -121 -234 -121z" />
    <glyph glyph-name="gcircumflex" unicode="&#x11d;" horiz-adv-x="626" 
d="M378 565l-60 78l-61 -78h-113l96 142h156l96 -142h-114zM427 439v65h138v-491q0 -134 -68.5 -198.5t-193.5 -64.5q-200 0 -260 157l116 48q44 -98 138 -98q130 0 130 145v83q-21 -32 -64 -52t-94 -20q-98 0 -164.5 70t-66.5 182t67 180.5t166 68.5q109 0 156 -75z
M303 124q57 0 94.5 40t37.5 101t-37 100.5t-95 39.5t-95 -39.5t-37 -100.5t37.5 -101t94.5 -40z" />
    <glyph glyph-name="Gbreve" unicode="&#x11e;" horiz-adv-x="788" 
d="M397 740q-85 0 -130 29.5t-47 103.5h87q3 -34 24.5 -49t65.5 -15q45 0 67 15t25 49h87q-3 -74 -48.5 -103.5t-130.5 -29.5zM391 -14q-156 0 -255 102.5t-99 265.5t101 265t261 102q104 0 186 -45.5t127 -126.5l-126 -67q-28 51 -76.5 79t-110.5 28q-96 0 -157 -65
t-61 -170q0 -106 59 -170.5t159 -64.5q73 0 126.5 39t70.5 113h-191v115h333v-386h-113v107q-75 -121 -234 -121z" />
    <glyph glyph-name="gbreve" unicode="&#x11f;" horiz-adv-x="626" 
d="M317 555q-178 0 -178 152h98q0 -38 20.5 -59t59.5 -21q81 0 81 80h99q0 -152 -180 -152zM427 439v65h138v-491q0 -134 -68.5 -198.5t-193.5 -64.5q-200 0 -260 157l116 48q44 -98 138 -98q130 0 130 145v83q-21 -32 -64 -52t-94 -20q-98 0 -164.5 70t-66.5 182t67 180.5
t166 68.5q109 0 156 -75zM303 124q57 0 94.5 40t37.5 101t-37 100.5t-95 39.5t-95 -39.5t-37 -100.5t37.5 -101t94.5 -40z" />
    <glyph glyph-name="Gdotaccent" unicode="&#x120;" horiz-adv-x="788" 
d="M399 746q-34 0 -57.5 23.5t-23.5 57.5q0 33 23.5 56t57.5 23q32 0 55.5 -23t23.5 -56q0 -34 -23.5 -57.5t-55.5 -23.5zM391 -14q-156 0 -255 102.5t-99 265.5t101 265t261 102q104 0 186 -45.5t127 -126.5l-126 -67q-28 51 -76.5 79t-110.5 28q-96 0 -157 -65t-61 -170
q0 -106 59 -170.5t159 -64.5q73 0 126.5 39t70.5 113h-191v115h333v-386h-113v107q-75 -121 -234 -121z" />
    <glyph glyph-name="gdotaccent" unicode="&#x121;" horiz-adv-x="626" 
d="M319 582q-34 0 -57.5 23t-23.5 57q0 33 23.5 56t57.5 23q32 0 55.5 -23t23.5 -56q0 -34 -23 -57t-56 -23zM427 439v65h138v-491q0 -134 -68.5 -198.5t-193.5 -64.5q-200 0 -260 157l116 48q44 -98 138 -98q130 0 130 145v83q-21 -32 -64 -52t-94 -20q-98 0 -164.5 70
t-66.5 182t67 180.5t166 68.5q109 0 156 -75zM303 124q57 0 94.5 40t37.5 101t-37 100.5t-95 39.5t-95 -39.5t-37 -100.5t37.5 -101t94.5 -40z" />
    <glyph glyph-name="uni0122" unicode="&#x122;" horiz-adv-x="788" 
d="M391 -14q-156 0 -255 102.5t-99 265.5t101 265t261 102q104 0 186 -45.5t127 -126.5l-126 -67q-28 51 -76.5 79t-110.5 28q-96 0 -157 -65t-61 -170q0 -106 59 -170.5t159 -64.5q73 0 126.5 39t70.5 113h-191v115h333v-386h-113v107q-75 -121 -234 -121zM340 -173h-98
l96 143h117z" />
    <glyph glyph-name="uni0123" unicode="&#x123;" horiz-adv-x="626" 
d="M374 707h99l-96 -142h-117zM427 439v65h138v-491q0 -134 -68.5 -198.5t-193.5 -64.5q-200 0 -260 157l116 48q44 -98 138 -98q130 0 130 145v83q-21 -32 -64 -52t-94 -20q-98 0 -164.5 70t-66.5 182t67 180.5t166 68.5q109 0 156 -75zM303 124q57 0 94.5 40t37.5 101
t-37 100.5t-95 39.5t-95 -39.5t-37 -100.5t37.5 -101t94.5 -40z" />
    <glyph glyph-name="Hcircumflex" unicode="&#x124;" horiz-adv-x="732" 
d="M305 742h-113l96 131h158l96 -131h-113l-62 68zM212 0h-144v707h144v-290h308v290h145v-707h-145v292h-308v-292z" />
    <glyph glyph-name="hcircumflex" unicode="&#x125;" horiz-adv-x="608" 
d="M367 785l-62 68l-62 -68h-113l96 131h158l96 -131h-113zM368 514q89 0 136.5 -48.5t47.5 -143.5v-322h-139v301q0 103 -98 103q-49 0 -82 -30.5t-33 -99.5v-274h-139v750h139v-309q60 73 168 73z" />
    <glyph glyph-name="Hbar" unicode="&#x126;" horiz-adv-x="732" 
d="M665 585h63v-54h-63v-531h-145v292h-308v-292h-144v531h-62v54h62v122h144v-122h308v122h145v-122zM212 417h308v114h-308v-114z" />
    <glyph glyph-name="hbar" unicode="&#x127;" horiz-adv-x="608" 
d="M368 514q89 0 136.5 -48.5t47.5 -143.5v-322h-139v301q0 103 -98 103q-49 0 -82 -30.5t-33 -99.5v-274h-139v583h-59v85h59v82h139v-82h142v-85h-142v-142q60 73 168 73z" />
    <glyph glyph-name="Itilde" unicode="&#x128;" horiz-adv-x="280" 
d="M199 737q-49 0 -85 45q-23 27 -43 27q-32 0 -32 -65h-68q0 62 29 101.5t78 39.5q21 0 39.5 -8t27 -15.5t20.5 -21.5q22 -28 43 -28q30 0 30 66h68q0 -61 -28.5 -101t-78.5 -40zM212 0h-144v707h144v-707z" />
    <glyph glyph-name="itilde" unicode="&#x129;" horiz-adv-x="259" 
d="M189 558q-50 0 -85 44q-24 28 -43 28q-32 0 -32 -65h-68q0 62 29 101t78 39q47 0 87 -44q21 -28 43 -28q30 0 30 65h68q0 -61 -28.5 -100.5t-78.5 -39.5zM199 0h-139v504h139v-504z" />
    <glyph glyph-name="Imacron" unicode="&#x12a;" horiz-adv-x="280" 
d="M302 775h-326v89h326v-89zM212 0h-144v707h144v-707z" />
    <glyph glyph-name="imacron" unicode="&#x12b;" horiz-adv-x="259" 
d="M267 588h-276v89h276v-89zM199 0h-139v504h139v-504z" />
    <glyph glyph-name="Ibreve" unicode="&#x12c;" horiz-adv-x="280" 
d="M138 740q-85 0 -130 29.5t-48 103.5h88q3 -34 24.5 -49t65.5 -15q45 0 67 15t25 49h87q-3 -74 -48.5 -103.5t-130.5 -29.5zM212 0h-144v707h144v-707z" />
    <glyph glyph-name="ibreve" unicode="&#x12d;" horiz-adv-x="259" 
d="M129 555q-179 0 -179 152h99q0 -38 20.5 -59t59.5 -21q81 0 81 80h99q0 -152 -180 -152zM199 0h-139v504h139v-504z" />
    <glyph glyph-name="Iogonek" unicode="&#x12e;" horiz-adv-x="280" 
d="M212 707v-707q-37 -26 -59.5 -54.5t-22.5 -50.5q0 -27 39 -27q25 0 43 15v-86q-34 -13 -74 -13q-43 0 -70.5 17t-27.5 51q0 61 110 148h-82v707h144z" />
    <glyph glyph-name="iogonek" unicode="&#x12f;" horiz-adv-x="259" 
d="M131 582q-34 0 -57.5 23t-23.5 57q0 33 23.5 56t57.5 23q32 0 55.5 -23t23.5 -56q0 -34 -23 -57t-56 -23zM136 0h-76v504h139v-504h-1q-37 -26 -59.5 -54.5t-22.5 -50.5q0 -27 39 -27q25 0 43 15v-86q-34 -13 -74 -13q-43 0 -70.5 17t-27.5 51q0 61 110 148z" />
    <glyph glyph-name="Idotaccent" unicode="&#x130;" horiz-adv-x="280" 
d="M140 746q-34 0 -57.5 23.5t-23.5 57.5q0 33 23.5 56t57.5 23q32 0 55.5 -23t23.5 -56q0 -34 -23.5 -57.5t-55.5 -23.5zM212 0h-144v707h144v-707z" />
    <glyph glyph-name="dotlessi" unicode="&#x131;" horiz-adv-x="259" 
d="M199 0h-139v504h139v-504z" />
    <glyph glyph-name="IJ" unicode="&#x132;" horiz-adv-x="745" 
d="M212 0h-144v707h144v-707zM474 -14q-96 0 -188 53l61 118q55 -37 108 -37q42 0 62.5 27t20.5 87v473h145v-500q0 -104 -57.5 -162.5t-151.5 -58.5z" />
    <glyph glyph-name="ij" unicode="&#x133;" horiz-adv-x="516" 
d="M131 582q-34 0 -57.5 23t-23.5 57q0 33 23.5 56t57.5 23q32 0 55.5 -23t23.5 -56q0 -34 -23 -57t-56 -23zM386 582q-34 0 -57.5 23t-23.5 57q0 33 23.5 56t57.5 23q32 0 55.5 -23t23.5 -56q0 -34 -23.5 -57t-55.5 -23zM199 0h-139v504h139v-504zM205 -243v107q67 0 89 32
t22 113v495h138v-495q0 -130 -58 -191t-191 -61z" />
    <glyph glyph-name="Jcircumflex" unicode="&#x134;" horiz-adv-x="466" 
d="M269 742h-113l96 131h158l96 -131h-113l-62 68zM194 -14q-96 0 -188 53l61 118q55 -37 108 -37q42 0 62.5 27t20.5 87v473h145v-500q0 -104 -57.5 -162.5t-151.5 -58.5z" />
    <glyph glyph-name="jcircumflex" unicode="&#x135;" horiz-adv-x="257" 
d="M65 565h-114l97 142h156l96 -142h-114l-60 78zM-54 -243v107q67 0 89 32t22 113v495h138v-495q0 -130 -58 -191t-191 -61z" />
    <glyph glyph-name="uni0136" unicode="&#x136;" horiz-adv-x="689" 
d="M672 707l-282 -338l291 -369h-182l-231 303h-56v-303h-144v707h144v-279h55l229 279h176zM277 -173h-98l96 143h117z" />
    <glyph glyph-name="uni0137" unicode="&#x137;" horiz-adv-x="582" 
d="M553 504l-210 -236l225 -268h-167l-173 212h-28v-212h-139v750h139v-443h26l171 197h156zM224 -173h-98l96 143h117z" />
    <glyph glyph-name="kgreenlandic" unicode="&#x138;" horiz-adv-x="582" 
d="M553 504l-210 -236l225 -268h-166l-174 212h-28v-212h-139v504h139v-197h26l171 197h156z" />
    <glyph glyph-name="Lacute" unicode="&#x139;" horiz-adv-x="451" 
d="M201 737h-121l83 136h147zM439 0h-371v707h144v-580h227v-127z" />
    <glyph glyph-name="lacute" unicode="&#x13a;" horiz-adv-x="261" 
d="M189 811h-121l88 142h147zM200 0h-139v750h139v-750z" />
    <glyph glyph-name="uni013B" unicode="&#x13b;" horiz-adv-x="451" 
d="M439 0h-371v707h144v-580h227v-127zM189 -173h-98l96 143h117z" />
    <glyph glyph-name="uni013C" unicode="&#x13c;" horiz-adv-x="261" 
d="M200 0h-139v750h139v-750zM74 -173h-99l97 143h117z" />
    <glyph glyph-name="Lcaron" unicode="&#x13d;" horiz-adv-x="452" 
d="M439 0h-371v707h144v-580h227v-127zM401 387h-100l61 320h142z" />
    <glyph glyph-name="lcaron" unicode="&#x13e;" horiz-adv-x="418" 
d="M200 0h-139v750h139v-750zM367 387h-99l61 320h141z" />
    <glyph glyph-name="Ldot" unicode="&#x13f;" horiz-adv-x="516" 
d="M439 0h-371v707h144v-580h227v-127zM419 272q-33 0 -57 23.5t-24 58.5q0 32 24.5 56.5t56.5 24.5t57 -24.5t25 -56.5q0 -35 -24.5 -58.5t-57.5 -23.5z" />
    <glyph glyph-name="ldot" unicode="&#x140;" horiz-adv-x="428" 
d="M200 0h-139v750h139v-750zM358 293q-33 0 -57.5 24t-24.5 58q0 33 24.5 57.5t57.5 24.5q32 0 57 -24.5t25 -57.5q0 -34 -25 -58t-57 -24z" />
    <glyph glyph-name="Lslash" unicode="&#x141;" horiz-adv-x="451" 
d="M212 326v-199h227v-127h-371v219l-64 -47v116l64 47v372h144v-265l106 79v-116z" />
    <glyph glyph-name="lslash" unicode="&#x142;" horiz-adv-x="261" 
d="M200 456l87 64v-116l-87 -64v-340h-139v237l-89 -66v116l89 66v397h139v-294z" />
    <glyph glyph-name="Nacute" unicode="&#x143;" horiz-adv-x="769" 
d="M410 873h147l-109 -136h-121zM557 203v504h145v-707h-174l-316 507v-507h-144v707h172z" />
    <glyph glyph-name="nacute" unicode="&#x144;" horiz-adv-x="608" 
d="M326 707h147l-114 -142h-121zM360 514q94 0 142.5 -46t48.5 -131v-337h-138v308q0 48 -26.5 72t-70.5 24q-105 0 -116 -110v-294h-139v504h139v-57q57 67 160 67z" />
    <glyph glyph-name="uni0145" unicode="&#x145;" horiz-adv-x="769" 
d="M557 203v504h145v-707h-174l-316 507v-507h-144v707h172zM331 -173h-98l96 143h117z" />
    <glyph glyph-name="uni0146" unicode="&#x146;" horiz-adv-x="608" 
d="M360 514q94 0 142.5 -46t48.5 -131v-337h-138v308q0 48 -26.5 72t-70.5 24q-105 0 -116 -110v-294h-139v504h139v-57q57 67 160 67zM243 -173h-98l96 143h117z" />
    <glyph glyph-name="Ncaron" unicode="&#x147;" horiz-adv-x="769" 
d="M562 873l-96 -131h-158l-96 131h113l62 -68l62 68h113zM557 203v504h145v-707h-174l-316 507v-507h-144v707h172z" />
    <glyph glyph-name="ncaron" unicode="&#x148;" horiz-adv-x="608" 
d="M474 707l-96 -142h-156l-96 142h113l61 -78l60 78h114zM360 514q94 0 142.5 -46t48.5 -131v-337h-138v308q0 48 -26.5 72t-70.5 24q-105 0 -116 -110v-294h-139v504h139v-57q57 67 160 67z" />
    <glyph glyph-name="napostrophe" unicode="&#x149;" horiz-adv-x="789" 
d="M52 387l61 320h141l-103 -320h-99zM540 514q94 0 143 -46t49 -131v-337h-139v308q0 48 -26 72t-70 24q-51 0 -84 -31.5t-33 -98.5v-274h-138v504h138v-57q57 67 160 67z" />
    <glyph glyph-name="Eng" unicode="&#x14a;" horiz-adv-x="769" 
d="M557 205v502h145v-716q0 -110 -61.5 -168t-173.5 -58v107q76 0 76 83q0 19 -15 45l-316 507v-507h-144v707h172z" />
    <glyph glyph-name="eng" unicode="&#x14b;" horiz-adv-x="608" 
d="M360 514q94 0 142.5 -46t48.5 -131v-328q0 -130 -58 -191t-191 -61v107q67 0 89 32t22 113v299q0 48 -26.5 72t-70.5 24q-105 0 -116 -110v-294h-139v504h139v-57q57 67 160 67z" />
    <glyph glyph-name="Omacron" unicode="&#x14c;" horiz-adv-x="798" 
d="M562 775h-325v89h325v-89zM399 -14q-159 0 -260.5 102.5t-101.5 265.5t101 265t261 102t261 -102t101 -265t-101.5 -265.5t-260.5 -102.5zM399 119q96 0 157 65t61 170t-61 170t-157 65t-157 -65t-61 -170t61 -170t157 -65z" />
    <glyph glyph-name="omacron" unicode="&#x14d;" horiz-adv-x="628" 
d="M454 588h-275v89h275v-89zM314 -10q-123 1 -199.5 71.5t-76.5 191.5q0 119 76.5 189.5t199.5 71.5q124 -1 200.5 -71.5t76.5 -189.5q0 -121 -76.5 -191.5t-200.5 -71.5zM314 100q62 0 100 42.5t38 110.5q0 67 -38 109t-100 42t-100 -42t-38 -109q0 -68 38 -110.5
t100 -42.5z" />
    <glyph glyph-name="Obreve" unicode="&#x14e;" horiz-adv-x="798" 
d="M398 740q-85 0 -130 29.5t-47 103.5h87q3 -34 24.5 -49t65.5 -15q45 0 67 15t25 49h87q-3 -74 -48.5 -103.5t-130.5 -29.5zM399 -14q-159 0 -260.5 102.5t-101.5 265.5t101 265t261 102t261 -102t101 -265t-101.5 -265.5t-260.5 -102.5zM399 119q96 0 157 65t61 170
t-61 170t-157 65t-157 -65t-61 -170t61 -170t157 -65z" />
    <glyph glyph-name="obreve" unicode="&#x14f;" horiz-adv-x="628" 
d="M315 555q-178 0 -178 152h98q0 -38 20.5 -59t59.5 -21q81 0 81 80h99q0 -152 -180 -152zM314 -10q-123 1 -199.5 71.5t-76.5 191.5q0 119 76.5 189.5t199.5 71.5q124 -1 200.5 -71.5t76.5 -189.5q0 -121 -76.5 -191.5t-200.5 -71.5zM314 100q62 0 100 42.5t38 110.5
q0 67 -38 109t-100 42t-100 -42t-38 -109q0 -68 38 -110.5t100 -42.5z" />
    <glyph glyph-name="Ohungarumlaut" unicode="&#x150;" horiz-adv-x="798" 
d="M363 737h-121l91 136h139zM557 737h-121l91 136h139zM399 -14q-159 0 -260.5 102.5t-101.5 265.5t101 265t261 102t261 -102t101 -265t-101.5 -265.5t-260.5 -102.5zM399 119q96 0 157 65t61 170t-61 170t-157 65t-157 -65t-61 -170t61 -170t157 -65z" />
    <glyph glyph-name="ohungarumlaut" unicode="&#x151;" horiz-adv-x="628" 
d="M280 565h-121l96 142h139zM474 565h-121l96 142h139zM314 -10q-123 1 -199.5 71.5t-76.5 191.5q0 119 76.5 189.5t199.5 71.5q124 -1 200.5 -71.5t76.5 -189.5q0 -121 -76.5 -191.5t-200.5 -71.5zM314 100q62 0 100 42.5t38 110.5q0 67 -38 109t-100 42t-100 -42
t-38 -109q0 -68 38 -110.5t100 -42.5z" />
    <glyph glyph-name="OE" unicode="&#x152;" horiz-adv-x="945" 
d="M900 0h-481q-168 0 -259 66q-123 90 -123 288q0 197 123 287q91 66 259 66h481v-126h-267v-165h238v-125h-238v-164h267v-127zM420 127h69v454h-69q-100 0 -158 -42q-81 -55 -81 -185q0 -129 81 -186q56 -41 158 -41z" />
    <glyph glyph-name="oe" unicode="&#x153;" horiz-adv-x="1016" 
d="M974 256l-2 -32h-382q0 -2 -1 -3q6 -58 42.5 -90t91.5 -32q83 0 112 69l128 -17q-25 -77 -88.5 -119t-151.5 -42q-130 0 -204 76q-76 -74 -205 -76q-123 1 -199.5 71.5t-76.5 191.5q0 119 76.5 189.5t199.5 71.5q130 -2 206 -76q73 76 199 76q114 0 184 -66t71 -192z
M720 412q-108 0 -128 -103h245q-6 48 -38 75.5t-79 27.5zM314 100q62 0 100 42.5t38 110.5q0 67 -38 109t-100 42t-100 -42t-38 -109q0 -68 38 -110.5t100 -42.5z" />
    <glyph glyph-name="Racute" unicode="&#x154;" horiz-adv-x="640" 
d="M328 873h147l-109 -136h-121zM622 0h-176l-169 259h-65v-259h-145v707h234q140 0 206 -54q67 -54 67 -167q0 -69 -26.5 -124.5t-78.5 -83.5q-10 -5 -30 -13zM280 587h-68v-217h68q81 0 111 21q38 26 38 87q0 59 -36 86q-32 23 -113 23z" />
    <glyph glyph-name="racute" unicode="&#x155;" horiz-adv-x="392" 
d="M210 707h147l-114 -142h-121zM200 504v-72q24 38 68.5 60t102.5 22v-129q-91 0 -131 -34.5t-40 -119.5v-231h-139v504h139z" />
    <glyph glyph-name="uni0156" unicode="&#x156;" horiz-adv-x="640" 
d="M439 265l183 -265h-176l-169 259h-65v-259h-145v707h234q140 0 206 -54q67 -54 67 -167q0 -69 -26.5 -124.5t-78.5 -83.5q-10 -5 -30 -13zM280 587h-68v-217h68q81 0 111 21q38 26 38 87q0 59 -36 86q-32 23 -113 23zM248 -173h-98l96 143h117z" />
    <glyph glyph-name="uni0157" unicode="&#x157;" horiz-adv-x="392" 
d="M200 504v-72q24 38 68.5 60t102.5 22v-129q-91 0 -131 -34.5t-40 -119.5v-231h-139v504h139zM77 -173h-99l97 143h117z" />
    <glyph glyph-name="Rcaron" unicode="&#x158;" horiz-adv-x="640" 
d="M480 873l-96 -131h-158l-96 131h113l62 -68l62 68h113zM622 0h-176l-169 259h-65v-259h-145v707h234q140 0 206 -54q67 -54 67 -167q0 -69 -26.5 -124.5t-78.5 -83.5q-10 -5 -30 -13zM280 587h-68v-217h68q81 0 111 21q38 26 38 87q0 59 -36 86q-32 23 -113 23z" />
    <glyph glyph-name="rcaron" unicode="&#x159;" horiz-adv-x="392" 
d="M358 707l-96 -142h-156l-96 142h113l61 -78l60 78h114zM200 504v-72q24 38 68.5 60t102.5 22v-129q-91 0 -131 -34.5t-40 -119.5v-231h-139v504h139z" />
    <glyph glyph-name="Sacute" unicode="&#x15a;" horiz-adv-x="612" 
d="M361 737h-121l83 136h147zM307 -14q-117 0 -197.5 56t-95.5 155l143 30q30 -122 152 -122q54 0 83.5 23t29.5 64q0 23 -11 39.5t-36 29.5t-45.5 20t-59.5 18q-42 12 -66 20.5t-60 26.5t-55.5 38t-34.5 53.5t-15 74.5q0 94 69.5 151.5t180.5 57.5q103 0 180 -46.5
t99 -143.5l-130 -30q-35 102 -140 102q-51 0 -82 -22.5t-31 -60.5q0 -20 10 -35t34 -26.5t42.5 -17t56.5 -15.5q31 -9 48.5 -14t47 -16t47 -21.5t39 -28t33.5 -37t20.5 -47.5t8.5 -60q0 -98 -72.5 -157t-192.5 -59z" />
    <glyph glyph-name="sacute" unicode="&#x15b;" horiz-adv-x="513" 
d="M313 565h-121l88 142h147zM268 -10q-92 0 -155 36.5t-76 105.5l115 32q22 -74 111 -74q33 0 54.5 13t21.5 38q0 29 -28.5 43t-82.5 24q-89 17 -134 49.5t-45 99.5q0 73 55 115t148 42q78 0 135.5 -32.5t74.5 -97.5l-121 -27q-23 58 -94 58q-33 0 -52.5 -12t-19.5 -33
q0 -22 26.5 -34t82.5 -24q98 -21 143 -53.5t45 -104.5q0 -81 -58.5 -122.5t-145.5 -41.5z" />
    <glyph glyph-name="Scedilla" unicode="&#x15e;" horiz-adv-x="612" 
d="M572 202q0 -93 -66 -151.5t-177 -63.5l-28 -44q15 3 27 3q41 0 65.5 -24.5t24.5 -63.5q0 -44 -31.5 -73.5t-80.5 -29.5q-97 0 -120 69l76 21q10 -27 41 -27q18 0 30.5 10.5t12.5 29.5t-12 29t-30 10q-24 0 -36 -16l-65 28l48 81q-96 12 -160 66t-77 141l143 30
q30 -122 152 -122q54 0 83.5 23t29.5 64q0 23 -11 39.5t-36 29.5t-45.5 20t-59.5 18q-42 12 -66 20.5t-60 26.5t-55.5 38t-34.5 53.5t-15 74.5q0 94 69.5 151.5t180.5 57.5q103 0 180 -46.5t99 -143.5l-130 -30q-35 102 -140 102q-51 0 -82 -22.5t-31 -60.5q0 -20 10 -35
t34 -26.5t42.5 -17t56.5 -15.5q31 -9 48.5 -14t47 -16t47 -21.5t39 -28t33.5 -37t20.5 -47.5t8.5 -60z" />
    <glyph glyph-name="scedilla" unicode="&#x15f;" horiz-adv-x="513" 
d="M472 154q0 -74 -49.5 -115.5t-126.5 -47.5l-31 -48q15 3 27 3q41 0 65.5 -24.5t24.5 -63.5q0 -44 -31.5 -73.5t-80.5 -29.5q-97 0 -120 69l76 21q10 -27 41 -27q18 0 30.5 10.5t12.5 29.5t-12 29t-30 10q-24 0 -36 -16l-65 28l50 84q-73 9 -121 44.5t-59 94.5l115 32
q22 -74 111 -74q33 0 54.5 13t21.5 38q0 29 -28.5 43t-82.5 24q-89 17 -134 49.5t-45 99.5q0 73 55 115t148 42q78 0 135.5 -32.5t74.5 -97.5l-121 -27q-23 58 -94 58q-33 0 -52.5 -12t-19.5 -33q0 -22 26.5 -34t82.5 -24q98 -21 143 -53.5t45 -104.5z" />
    <glyph glyph-name="Scaron" unicode="&#x160;" horiz-adv-x="612" 
d="M379 742h-158l-96 131h113l62 -68l62 68h113zM307 -14q-117 0 -197.5 56t-95.5 155l143 30q30 -122 152 -122q54 0 83.5 23t29.5 64q0 23 -11 39.5t-36 29.5t-45.5 20t-59.5 18q-42 12 -66 20.5t-60 26.5t-55.5 38t-34.5 53.5t-15 74.5q0 94 69.5 151.5t180.5 57.5
q103 0 180 -46.5t99 -143.5l-130 -30q-35 102 -140 102q-51 0 -82 -22.5t-31 -60.5q0 -20 10 -35t34 -26.5t42.5 -17t56.5 -15.5q31 -9 48.5 -14t47 -16t47 -21.5t39 -28t33.5 -37t20.5 -47.5t8.5 -60q0 -98 -72.5 -157t-192.5 -59z" />
    <glyph glyph-name="scaron" unicode="&#x161;" horiz-adv-x="513" 
d="M332 565h-156l-96 142h113l61 -78l60 78h114zM268 -10q-92 0 -155 36.5t-76 105.5l115 32q22 -74 111 -74q33 0 54.5 13t21.5 38q0 29 -28.5 43t-82.5 24q-89 17 -134 49.5t-45 99.5q0 73 55 115t148 42q78 0 135.5 -32.5t74.5 -97.5l-121 -27q-23 58 -94 58
q-33 0 -52.5 -12t-19.5 -33q0 -22 26.5 -34t82.5 -24q98 -21 143 -53.5t45 -104.5q0 -81 -58.5 -122.5t-145.5 -41.5z" />
    <glyph glyph-name="uni0162" unicode="&#x162;" horiz-adv-x="508" 
d="M326 581v-581h-34l-37 -57q15 3 27 3q41 0 65.5 -24.5t24.5 -63.5q0 -44 -31.5 -73.5t-80.5 -29.5q-97 0 -120 69l76 21q10 -27 41 -27q18 0 30.5 10.5t12.5 29.5t-12 29t-30 10q-24 0 -36 -16l-65 28l54 91h-29v581h-171v126h485v-126h-170z" />
    <glyph glyph-name="uni0163" unicode="&#x163;" horiz-adv-x="403" 
d="M366 504v-106h-109v-219q0 -69 64 -69h45v-110h-88l-37 -57q15 3 27 3q41 0 65.5 -24.5t24.5 -63.5q0 -44 -31.5 -73.5t-80.5 -29.5q-97 0 -120 69l76 21q10 -27 41 -27q18 0 30.5 10.5t12.5 29.5t-12 29t-30 10q-24 0 -36 -16l-65 28l61 103q-86 34 -86 147v239h-99v106
h39q38 0 57.5 19.5t19.5 70.5v72h122v-162h109z" />
    <glyph glyph-name="Tcaron" unicode="&#x164;" horiz-adv-x="508" 
d="M429 873l-96 -131h-158l-96 131h113l62 -68l62 68h113zM11 707h485v-126h-170v-581h-144v581h-171v126z" />
    <glyph glyph-name="tcaron" unicode="&#x165;" horiz-adv-x="393" 
d="M410 563h-100l61 320h142zM366 0h-93q-74 0 -114.5 41.5t-40.5 117.5v239h-99v106h39q38 0 57.5 19.5t19.5 70.5v72h122v-162h109v-106h-109v-219q0 -69 64 -69h45v-110z" />
    <glyph glyph-name="Tbar" unicode="&#x166;" horiz-adv-x="508" 
d="M496 707v-126h-170v-184h99v-85h-99v-312h-144v312h-97v85h97v184h-171v126h485z" />
    <glyph glyph-name="tbar" unicode="&#x167;" horiz-adv-x="403" 
d="M367 295v-85h-110v-31q0 -69 64 -69h45v-110h-93q-74 0 -114.5 41.5t-40.5 117.5v51h-100v85h100v103h-99v106h39q38 0 57.5 19.5t19.5 70.5v72h122v-162h109v-106h-109v-103h110z" />
    <glyph glyph-name="Utilde" unicode="&#x168;" horiz-adv-x="681" 
d="M400 737q-49 0 -85 45q-23 27 -43 27q-32 0 -32 -65h-67q0 63 28.5 102t77.5 39q47 0 87 -45q22 -28 43 -28q30 0 30 66h68q0 -61 -28.5 -101t-78.5 -40zM341 -14q-126 0 -203.5 67.5t-77.5 197.5v456h144v-437q0 -78 37 -115.5t100 -37.5q62 0 99 37.5t37 115.5v437h145
v-456q0 -130 -77.5 -197.5t-203.5 -67.5z" />
    <glyph glyph-name="utilde" unicode="&#x169;" horiz-adv-x="609" 
d="M233 630q-32 0 -32 -65h-67q0 62 28.5 101t77.5 39q47 0 87 -44q21 -28 43 -28q30 0 30 65h68q0 -61 -28.5 -100.5t-78.5 -39.5t-85 44q-24 28 -43 28zM408 230v274h139v-504h-139v58q-57 -68 -160 -68q-94 0 -143 46.5t-49 130.5v337h138v-308q0 -48 26.5 -71.5
t70.5 -23.5q51 0 83.5 31t33.5 98z" />
    <glyph glyph-name="Umacron" unicode="&#x16a;" horiz-adv-x="681" 
d="M503 775h-325v89h325v-89zM341 -14q-126 0 -203.5 67.5t-77.5 197.5v456h144v-437q0 -78 37 -115.5t100 -37.5q62 0 99 37.5t37 115.5v437h145v-456q0 -130 -77.5 -197.5t-203.5 -67.5z" />
    <glyph glyph-name="umacron" unicode="&#x16b;" horiz-adv-x="609" 
d="M164 677h275v-89h-275v89zM408 230v274h139v-504h-139v58q-57 -68 -160 -68q-94 0 -143 46.5t-49 130.5v337h138v-308q0 -48 26.5 -71.5t70.5 -23.5q51 0 83.5 31t33.5 98z" />
    <glyph glyph-name="Uring" unicode="&#x16e;" horiz-adv-x="681" 
d="M340 735q-55 0 -93 35.5t-38 91.5t37.5 91.5t93.5 35.5q55 0 92.5 -35.5t37.5 -91.5t-37.5 -91.5t-92.5 -35.5zM340 799q27 0 45.5 18t18.5 45t-18.5 45t-45.5 18q-26 0 -44 -17.5t-18 -45.5t18 -45.5t44 -17.5zM341 -14q-126 0 -203.5 67.5t-77.5 197.5v456h144v-437
q0 -78 37 -115.5t100 -37.5q62 0 99 37.5t37 115.5v437h145v-456q0 -130 -77.5 -197.5t-203.5 -67.5z" />
    <glyph glyph-name="uring" unicode="&#x16f;" horiz-adv-x="609" 
d="M302 558q-56 0 -90 35t-34 86q0 50 34.5 85t89.5 35t88.5 -35t33.5 -85q0 -51 -34 -86t-88 -35zM302 733q-24 0 -39 -15t-15 -39q0 -23 15.5 -38.5t38.5 -15.5t38.5 15.5t15.5 38.5q0 24 -15.5 39t-38.5 15zM408 230v274h139v-504h-139v58q-57 -68 -160 -68
q-94 0 -143 46.5t-49 130.5v337h138v-308q0 -48 26.5 -71.5t70.5 -23.5q51 0 83.5 31t33.5 98z" />
    <glyph glyph-name="Uhungarumlaut" unicode="&#x170;" horiz-adv-x="681" 
d="M304 737h-121l91 136h139zM498 737h-121l91 136h139zM341 -14q-126 0 -203.5 67.5t-77.5 197.5v456h144v-437q0 -78 37 -115.5t100 -37.5q62 0 99 37.5t37 115.5v437h145v-456q0 -130 -77.5 -197.5t-203.5 -67.5z" />
    <glyph glyph-name="uhungarumlaut" unicode="&#x171;" horiz-adv-x="609" 
d="M240 707h139l-114 -142h-121zM573 707l-114 -142h-121l96 142h139zM408 230v274h139v-504h-139v58q-57 -68 -160 -68q-94 0 -143 46.5t-49 130.5v337h138v-308q0 -48 26.5 -71.5t70.5 -23.5q51 0 83.5 31t33.5 98z" />
    <glyph glyph-name="Uogonek" unicode="&#x172;" horiz-adv-x="681" 
d="M477 270v437h145v-456q0 -105 -51 -169t-139 -86q-77 -56 -77 -101q0 -27 39 -27q25 0 43 15v-86q-34 -13 -74 -13q-43 0 -70.5 17t-27.5 51q0 57 93 134h-17q-126 0 -203.5 67.5t-77.5 197.5v456h144v-437q0 -78 37 -115.5t100 -37.5q62 0 99 37.5t37 115.5z" />
    <glyph glyph-name="uogonek" unicode="&#x173;" horiz-adv-x="609" 
d="M408 230v274h139v-504h-1q-37 -26 -59.5 -54.5t-22.5 -50.5q0 -27 39 -27q25 0 43 15v-86q-34 -13 -74 -13q-43 0 -70.5 17t-27.5 51q0 61 110 148h-76v58q-57 -68 -160 -68q-94 0 -143 46.5t-49 130.5v337h138v-308q0 -48 26.5 -71.5t70.5 -23.5q51 0 83.5 31t33.5 98z
" />
    <glyph glyph-name="Wcircumflex" unicode="&#x174;" horiz-adv-x="1057" 
d="M590 742l-62 68l-62 -68h-113l96 131h158l96 -131h-113zM750 154l142 553h150l-184 -707h-193l-137 445l-136 -445h-193l-184 707h150l141 -552l160 552h125z" />
    <glyph glyph-name="wcircumflex" unicode="&#x175;" horiz-adv-x="890" 
d="M505 565l-60 78l-61 -78h-113l96 142h156l96 -142h-114zM620 166l107 338h147l-177 -504h-142l-110 332l-109 -332h-143l-177 504h147l107 -336l119 336h112z" />
    <glyph glyph-name="Ycircumflex" unicode="&#x176;" horiz-adv-x="622" 
d="M373 742l-62 68l-62 -68h-113l96 131h158l96 -131h-113zM462 707h158l-236 -371v-336h-145v334l-238 373h159l151 -247z" />
    <glyph glyph-name="ycircumflex" unicode="&#x177;" horiz-adv-x="582" 
d="M356 565l-60 78l-61 -78h-113l96 142h156l96 -142h-114zM291 165l126 339h151l-317 -747h-151l119 268l-205 479h150z" />
    <glyph glyph-name="Ydieresis" unicode="&#x178;" horiz-adv-x="622" 
d="M209 746q-34 0 -57.5 23.5t-23.5 57.5q0 33 23.5 56t57.5 23q32 0 55.5 -23t23.5 -56q0 -34 -23.5 -57.5t-55.5 -23.5zM415 746q-33 0 -57 23.5t-24 57.5q0 33 24 56t57 23t56.5 -23t23.5 -56t-23.5 -57t-56.5 -24zM462 707h158l-236 -371v-336h-145v334l-238 373h159
l151 -247z" />
    <glyph glyph-name="Zacute" unicode="&#x179;" horiz-adv-x="579" 
d="M326 873h147l-109 -136h-121zM543 592l-339 -465h342v-127h-512v115l339 466h-339v126h509v-115z" />
    <glyph glyph-name="zacute" unicode="&#x17a;" horiz-adv-x="490" 
d="M273 707h147l-114 -142h-121zM44 504h420l-233 -398h223v-106h-430l232 398h-212v106z" />
    <glyph glyph-name="Zdotaccent" unicode="&#x17b;" horiz-adv-x="579" 
d="M304 746q-34 0 -57.5 23.5t-23.5 57.5q0 33 23.5 56t57.5 23q32 0 55.5 -23t23.5 -56q0 -34 -23.5 -57.5t-55.5 -23.5zM543 592l-339 -465h342v-127h-512v115l339 466h-339v126h509v-115z" />
    <glyph glyph-name="zdotaccent" unicode="&#x17c;" horiz-adv-x="490" 
d="M248 582q-34 0 -57.5 23t-23.5 57q0 33 23.5 56t57.5 23q32 0 55.5 -23t23.5 -56q0 -34 -23.5 -57t-55.5 -23zM44 504h420l-233 -398h223v-106h-430l232 398h-212v106z" />
    <glyph glyph-name="Zcaron" unicode="&#x17d;" horiz-adv-x="579" 
d="M478 873l-96 -131h-158l-96 131h113l62 -68l62 68h113zM543 592l-339 -465h342v-127h-512v115l339 466h-339v126h509v-115z" />
    <glyph glyph-name="zcaron" unicode="&#x17e;" horiz-adv-x="490" 
d="M421 707l-96 -142h-156l-96 142h113l61 -78l60 78h114zM44 504h420l-233 -398h223v-106h-430l232 398h-212v106z" />
    <glyph glyph-name="florin" unicode="&#x192;" horiz-adv-x="439" 
d="M419 640h-27q-84 0 -84 -86v-50h111v-106h-111v-398q0 -114 -56 -155t-166 -41h-28v110h28q83 0 83 86v398h-101v106h101v50q0 114 56.5 155t166.5 41h27v-110z" />
    <glyph glyph-name="Ohorn" unicode="&#x1a0;" horiz-adv-x="798" 
d="M700 691v63h95v-78q0 -98 -92 -111q58 -91 58 -211q0 -163 -101.5 -265.5t-260.5 -102.5t-260.5 102.5t-101.5 265.5t101 265t261 102q153 0 254 -95h2q27 0 36 13.5t9 51.5zM399 119q96 0 157 65t61 170t-61 170t-157 65t-157 -65t-61 -170t61 -170t157 -65z" />
    <glyph glyph-name="ohorn" unicode="&#x1a1;" horiz-adv-x="628" 
d="M545 525v63h95v-78q0 -97 -89 -111q40 -62 40 -146q0 -121 -76.5 -191.5t-200.5 -71.5q-123 1 -199.5 71.5t-76.5 191.5q0 119 76.5 189.5t199.5 71.5q106 0 179 -54h7q27 0 36 13.5t9 51.5zM314 100q62 0 100 42.5t38 110.5q0 67 -38 109t-100 42t-100 -42t-38 -109
q0 -68 38 -110.5t100 -42.5z" />
    <glyph glyph-name="Uhorn" unicode="&#x1af;" horiz-adv-x="681" 
d="M697 732v63h95v-78q0 -34 -11 -57.5t-29.5 -35t-37 -16t-38.5 -4.5q-22 0 -54 10v-363q0 -130 -77.5 -197.5t-203.5 -67.5t-203.5 67.5t-77.5 197.5v456h144v-437q0 -78 37 -115.5t100 -37.5q62 0 99 37.5t37 115.5v437h145v-34q18 -6 30 -6q27 0 36 13.5t9 51.5z" />
    <glyph glyph-name="uhorn" unicode="&#x1b0;" horiz-adv-x="609" 
d="M611 529v63h95v-78q0 -34 -11 -57.5t-29.5 -35t-37 -16t-38.5 -4.5q-22 0 -43 7v-408h-139v58q-57 -68 -160 -68q-94 0 -143 46.5t-49 130.5v337h138v-308q0 -48 26.5 -71.5t70.5 -23.5q51 0 83.5 31t33.5 98v274h139v-37q10 -3 19 -3q27 0 36 13.5t9 51.5z" />
    <glyph glyph-name="uni01CD" unicode="&#x1cd;" horiz-adv-x="724" 
d="M538 873l-96 -131h-158l-96 131h113l62 -68l62 68h113zM716 0h-153l-53 148h-295l-53 -148h-154l265 707h179zM363 560l-105 -293h209z" />
    <glyph glyph-name="uni01CE" unicode="&#x1ce;" horiz-adv-x="562" 
d="M460 707l-96 -142h-156l-96 142h113l61 -78l60 78h114zM504 329v-238q0 -57 9 -78v-13h-137l-6 69q-25 -38 -71 -58.5t-98 -20.5q-69 0 -116.5 33.5t-47.5 103.5q0 40 16 70t46 48.5t59.5 29t68.5 18.5l92 21q23 5 34.5 13t11.5 24q0 32 -25 48.5t-63 16.5
q-87 0 -104 -77l-133 20q32 155 239 155q109 0 167 -47.5t58 -137.5zM242 86q53 0 92 41.5t39 115.5l-124 -32q-74 -15 -74 -69q0 -27 18.5 -41.5t48.5 -14.5z" />
    <glyph glyph-name="uni01CF" unicode="&#x1cf;" horiz-adv-x="280" 
d="M218 742h-158l-97 131h114l62 -68l62 68h113zM212 0h-144v707h144v-707z" />
    <glyph glyph-name="uni01D0" unicode="&#x1d0;" horiz-adv-x="259" 
d="M208 565h-156l-97 142h114l61 -78l60 78h114zM199 0h-139v504h139v-504z" />
    <glyph glyph-name="uni01D1" unicode="&#x1d1;" horiz-adv-x="798" 
d="M478 742h-158l-96 131h113l62 -68l62 68h113zM399 -14q-159 0 -260.5 102.5t-101.5 265.5t101 265t261 102t261 -102t101 -265t-101.5 -265.5t-260.5 -102.5zM399 119q96 0 157 65t61 170t-61 170t-157 65t-157 -65t-61 -170t61 -170t157 -65z" />
    <glyph glyph-name="uni01D2" unicode="&#x1d2;" horiz-adv-x="628" 
d="M394 565h-156l-96 142h113l61 -78l60 78h114zM314 -10q-123 1 -199.5 71.5t-76.5 191.5q0 119 76.5 189.5t199.5 71.5q124 -1 200.5 -71.5t76.5 -189.5q0 -121 -76.5 -191.5t-200.5 -71.5zM314 100q62 0 100 42.5t38 110.5q0 67 -38 109t-100 42t-100 -42t-38 -109
q0 -68 38 -110.5t100 -42.5z" />
    <glyph glyph-name="uni01D3" unicode="&#x1d3;" horiz-adv-x="681" 
d="M419 742h-158l-96 131h113l62 -68l62 68h113zM341 -14q-126 0 -203.5 67.5t-77.5 197.5v456h144v-437q0 -78 37 -115.5t100 -37.5q62 0 99 37.5t37 115.5v437h145v-456q0 -130 -77.5 -197.5t-203.5 -67.5z" />
    <glyph glyph-name="uni01D4" unicode="&#x1d4;" horiz-adv-x="609" 
d="M476 707l-96 -142h-156l-96 142h113l61 -78l60 78h114zM408 230v274h139v-504h-139v58q-57 -68 -160 -68q-94 0 -143 46.5t-49 130.5v337h138v-308q0 -48 26.5 -71.5t70.5 -23.5q51 0 83.5 31t33.5 98z" />
    <glyph glyph-name="uni01D5" unicode="&#x1d5;" horiz-adv-x="681" 
d="M503 974h-325v89h325v-89zM237 746q-34 0 -57.5 23.5t-23.5 57.5q0 33 23.5 56t57.5 23q32 0 55.5 -23t23.5 -56q0 -34 -23.5 -57.5t-55.5 -23.5zM443 746q-33 0 -57 23.5t-24 57.5q0 33 24 56t57 23t56.5 -23t23.5 -56t-23.5 -57t-56.5 -24zM341 -14q-126 0 -203.5 67.5
t-77.5 197.5v456h144v-437q0 -78 37 -115.5t100 -37.5q62 0 99 37.5t37 115.5v437h145v-456q0 -130 -77.5 -197.5t-203.5 -67.5z" />
    <glyph glyph-name="uni01D6" unicode="&#x1d6;" horiz-adv-x="609" 
d="M164 904h275v-89h-275v89zM199 582q-34 0 -57.5 23t-23.5 57q0 33 23.5 56t57.5 23q32 0 55.5 -23t23.5 -56q0 -34 -23 -57t-56 -23zM324 662q0 33 24 56t57 23t56.5 -23t23.5 -56t-23.5 -56.5t-56.5 -23.5t-57 23.5t-24 56.5zM408 230v274h139v-504h-139v58
q-57 -68 -160 -68q-94 0 -143 46.5t-49 130.5v337h138v-308q0 -48 26.5 -71.5t70.5 -23.5q51 0 83.5 31t33.5 98z" />
    <glyph glyph-name="uni01D7" unicode="&#x1d7;" horiz-adv-x="681" 
d="M401 936h-121l83 136h147zM237 746q-34 0 -57.5 23.5t-23.5 57.5q0 33 23.5 56t57.5 23q32 0 55.5 -23t23.5 -56q0 -34 -23.5 -57.5t-55.5 -23.5zM443 746q-33 0 -57 23.5t-24 57.5q0 33 24 56t57 23t56.5 -23t23.5 -56t-23.5 -57t-56.5 -24zM341 -14q-126 0 -203.5 67.5
t-77.5 197.5v456h144v-437q0 -78 37 -115.5t100 -37.5q62 0 99 37.5t37 115.5v437h145v-456q0 -130 -77.5 -197.5t-203.5 -67.5z" />
    <glyph glyph-name="uni01D8" unicode="&#x1d8;" horiz-adv-x="609" 
d="M327 934h147l-114 -142h-121zM199 582q-34 0 -57.5 23t-23.5 57q0 33 23.5 56t57.5 23q32 0 55.5 -23t23.5 -56q0 -34 -23 -57t-56 -23zM405 741q33 0 56.5 -23t23.5 -56t-23.5 -56.5t-56.5 -23.5t-57 23.5t-24 56.5t24 56t57 23zM408 230v274h139v-504h-139v58
q-57 -68 -160 -68q-94 0 -143 46.5t-49 130.5v337h138v-308q0 -48 26.5 -71.5t70.5 -23.5q51 0 83.5 31t33.5 98z" />
    <glyph glyph-name="uni01D9" unicode="&#x1d9;" horiz-adv-x="681" 
d="M419 941h-158l-96 131h113l62 -68l62 68h113zM237 746q-34 0 -57.5 23.5t-23.5 57.5q0 33 23.5 56t57.5 23q32 0 55.5 -23t23.5 -56q0 -34 -23.5 -57.5t-55.5 -23.5zM443 746q-33 0 -57 23.5t-24 57.5q0 33 24 56t57 23t56.5 -23t23.5 -56t-23.5 -57t-56.5 -24zM341 -14
q-126 0 -203.5 67.5t-77.5 197.5v456h144v-437q0 -78 37 -115.5t100 -37.5q62 0 99 37.5t37 115.5v437h145v-456q0 -130 -77.5 -197.5t-203.5 -67.5z" />
    <glyph glyph-name="uni01DA" unicode="&#x1da;" horiz-adv-x="609" 
d="M476 934l-96 -142h-156l-96 142h113l61 -78l60 78h114zM199 582q-34 0 -57.5 23t-23.5 57q0 33 23.5 56t57.5 23q32 0 55.5 -23t23.5 -56q0 -34 -23 -57t-56 -23zM405 741q33 0 56.5 -23t23.5 -56t-23.5 -56.5t-56.5 -23.5t-57 23.5t-24 56.5t24 56t57 23zM408 230v274
h139v-504h-139v58q-57 -68 -160 -68q-94 0 -143 46.5t-49 130.5v337h138v-308q0 -48 26.5 -71.5t70.5 -23.5q51 0 83.5 31t33.5 98z" />
    <glyph glyph-name="uni01DB" unicode="&#x1db;" horiz-adv-x="681" 
d="M400 936h-121l-109 136h146zM237 746q-34 0 -57.5 23.5t-23.5 57.5q0 33 23.5 56t57.5 23q32 0 55.5 -23t23.5 -56q0 -34 -23.5 -57.5t-55.5 -23.5zM443 746q-33 0 -57 23.5t-24 57.5q0 33 24 56t57 23t56.5 -23t23.5 -56t-23.5 -57t-56.5 -24zM341 -14
q-126 0 -203.5 67.5t-77.5 197.5v456h144v-437q0 -78 37 -115.5t100 -37.5q62 0 99 37.5t37 115.5v437h145v-456q0 -130 -77.5 -197.5t-203.5 -67.5z" />
    <glyph glyph-name="uni01DC" unicode="&#x1dc;" horiz-adv-x="609" 
d="M276 934l88 -142h-121l-114 142h147zM199 582q-34 0 -57.5 23t-23.5 57q0 33 23.5 56t57.5 23q32 0 55.5 -23t23.5 -56q0 -34 -23 -57t-56 -23zM324 662q0 33 24 56t57 23t56.5 -23t23.5 -56t-23.5 -56.5t-56.5 -23.5t-57 23.5t-24 56.5zM408 230v274h139v-504h-139v58
q-57 -68 -160 -68q-94 0 -143 46.5t-49 130.5v337h138v-308q0 -48 26.5 -71.5t70.5 -23.5q51 0 83.5 31t33.5 98z" />
    <glyph glyph-name="Gcaron" unicode="&#x1e6;" horiz-adv-x="788" 
d="M477 742h-158l-96 131h113l62 -68l62 68h113zM391 -14q-156 0 -255 102.5t-99 265.5t101 265t261 102q104 0 186 -45.5t127 -126.5l-126 -67q-28 51 -76.5 79t-110.5 28q-96 0 -157 -65t-61 -170q0 -106 59 -170.5t159 -64.5q73 0 126.5 39t70.5 113h-191v115h333v-386
h-113v107q-75 -121 -234 -121z" />
    <glyph glyph-name="gcaron" unicode="&#x1e7;" horiz-adv-x="626" 
d="M492 707l-96 -142h-156l-96 142h113l61 -78l60 78h114zM427 439v65h138v-491q0 -134 -68.5 -198.5t-193.5 -64.5q-200 0 -260 157l116 48q44 -98 138 -98q130 0 130 145v83q-21 -32 -64 -52t-94 -20q-98 0 -164.5 70t-66.5 182t67 180.5t166 68.5q109 0 156 -75zM303 124
q57 0 94.5 40t37.5 101t-37 100.5t-95 39.5t-95 -39.5t-37 -100.5t37.5 -101t94.5 -40z" />
    <glyph glyph-name="uni01EA" unicode="&#x1ea;" horiz-adv-x="798" 
d="M499 -2q-79 -58 -79 -103q0 -27 39 -27q25 0 43 15v-86q-34 -13 -74 -13q-43 0 -70.5 17t-27.5 51q0 57 94 135q-8 -1 -25 -1q-159 0 -260.5 102.5t-101.5 265.5t101 265t261 102t261 -102t101 -265q0 -135 -71 -230.5t-191 -125.5zM181 354q0 -105 61 -170t157 -65
t157 65t61 170t-61 170t-157 65t-157 -65t-61 -170z" />
    <glyph glyph-name="uni01EB" unicode="&#x1eb;" horiz-adv-x="628" 
d="M397 0q-37 -26 -59.5 -54.5t-22.5 -50.5q0 -27 39 -27q25 0 43 15v-86q-34 -13 -74 -13q-43 0 -70.5 17t-27.5 51q0 59 98 138h-9q-123 1 -199.5 71.5t-76.5 191.5q0 119 76.5 189.5t199.5 71.5q124 -1 200.5 -71.5t76.5 -189.5q0 -99 -52 -165t-142 -88zM176 253
q0 -68 38 -110.5t100 -42.5t100 42.5t38 110.5q0 67 -38 109t-100 42t-100 -42t-38 -109z" />
    <glyph glyph-name="Aringacute" unicode="&#x1fa;" horiz-adv-x="724" 
d="M362 735q-55 0 -93 35.5t-38 91.5t37.5 91.5t93.5 35.5q11 0 16 -1l46 76h147l-102 -127q23 -32 23 -75q0 -56 -37.5 -91.5t-92.5 -35.5zM362 925q-26 0 -44 -17.5t-18 -45.5t18 -45.5t44 -17.5q27 0 45.5 18t18.5 45t-18.5 45t-45.5 18zM716 0h-153l-53 148h-295
l-53 -148h-154l265 707h179zM363 560l-105 -293h209z" />
    <glyph glyph-name="aringacute" unicode="&#x1fb;" horiz-adv-x="562" 
d="M286 558q-56 0 -90 35t-34 86q0 50 34.5 85t89.5 35q12 0 18 -1l50 81h147l-110 -137q17 -28 17 -63q0 -51 -34 -86t-88 -35zM286 733q-24 0 -39 -15t-15 -39q0 -23 15.5 -38.5t38.5 -15.5t38.5 15.5t15.5 38.5q0 24 -15.5 39t-38.5 15zM504 329v-238q0 -57 9 -78v-13
h-137l-6 69q-25 -38 -71 -58.5t-98 -20.5q-69 0 -116.5 33.5t-47.5 103.5q0 40 16 70t46 48.5t59.5 29t68.5 18.5l92 21q23 5 34.5 13t11.5 24q0 32 -25 48.5t-63 16.5q-87 0 -104 -77l-133 20q32 155 239 155q109 0 167 -47.5t58 -137.5zM242 86q53 0 92 41.5t39 115.5
l-124 -32q-74 -15 -74 -69q0 -27 18.5 -41.5t48.5 -14.5z" />
    <glyph glyph-name="AEacute" unicode="&#x1fc;" horiz-adv-x="905" 
d="M516 737h-121l83 136h147zM162 0h-154l265 707h587v-127h-275v-163h238v-127h-238v-163h275v-127h-420v148h-225zM370 580l-114 -313h184v313h-70z" />
    <glyph glyph-name="aeacute" unicode="&#x1fd;" horiz-adv-x="914" 
d="M482 707h147l-114 -142h-121zM872 256l-2 -32h-383q5 -59 42 -92t92 -33q83 0 112 69l128 -17q-25 -77 -88.5 -119t-151.5 -42q-143 0 -216 90q-75 -90 -201 -90q-73 0 -118.5 33.5t-45.5 102.5q0 39 15.5 68t45 47.5t60.5 29t74 19.5l80 16q46 11 46 41q0 37 -25.5 55
t-65.5 18q-92 0 -102 -89l-124 19q15 85 72 124t164 39q114 0 163 -53q69 54 174 54q114 0 184 -66t71 -192zM618 412q-108 0 -128 -103h245q-6 48 -38 75.5t-79 27.5zM242 97q36 0 69.5 18.5t48.5 54.5q-8 28 -9 60l-95 -22q-80 -17 -80 -62q0 -23 18 -36t48 -13z" />
    <glyph glyph-name="Oslashacute" unicode="&#x1fe;" horiz-adv-x="798" 
d="M422 873h147l-109 -136h-121zM697 727l-60 -87q124 -105 124 -286q0 -163 -101.5 -265.5t-260.5 -102.5q-105 0 -186 46l-58 -83l-53 32l60 86q-125 104 -125 287q0 163 101 265t261 102q104 0 187 -46l58 84zM181 354q0 -106 62 -171l264 379q-46 27 -108 27
q-96 0 -157 -65t-61 -170zM399 119q96 0 157 65t61 170q0 104 -61 170l-264 -379q47 -26 107 -26z" />
    <glyph glyph-name="oslashacute" unicode="&#x1ff;" horiz-adv-x="628" 
d="M342 707h147l-114 -142h-121zM539 518l-42 -60q94 -72 94 -205q0 -121 -76.5 -191.5t-200.5 -71.5q-67 0 -126 24l-43 -61l-53 33l41 60q-95 72 -95 207q0 119 76.5 189.5t199.5 71.5q70 0 128 -25l43 62zM176 253q0 -62 31 -102l167 240q-26 13 -60 13q-62 0 -100 -42
t-38 -109zM314 100q62 0 100 42.5t38 110.5q0 58 -29 98l-167 -239q26 -12 58 -12z" />
    <glyph glyph-name="uni0218" unicode="&#x218;" horiz-adv-x="612" 
d="M307 -14q-117 0 -197.5 56t-95.5 155l143 30q30 -122 152 -122q54 0 83.5 23t29.5 64q0 23 -11 39.5t-36 29.5t-45.5 20t-59.5 18q-42 12 -66 20.5t-60 26.5t-55.5 38t-34.5 53.5t-15 74.5q0 94 69.5 151.5t180.5 57.5q103 0 180 -46.5t99 -143.5l-130 -30
q-35 102 -140 102q-51 0 -82 -22.5t-31 -60.5q0 -20 10 -35t34 -26.5t42.5 -17t56.5 -15.5q31 -9 48.5 -14t47 -16t47 -21.5t39 -28t33.5 -37t20.5 -47.5t8.5 -60q0 -98 -72.5 -157t-192.5 -59zM244 -173h-98l96 143h117z" />
    <glyph glyph-name="uni0219" unicode="&#x219;" horiz-adv-x="513" 
d="M268 -10q-92 0 -155 36.5t-76 105.5l115 32q22 -74 111 -74q33 0 54.5 13t21.5 38q0 29 -28.5 43t-82.5 24q-89 17 -134 49.5t-45 99.5q0 73 55 115t148 42q78 0 135.5 -32.5t74.5 -97.5l-121 -27q-23 58 -94 58q-33 0 -52.5 -12t-19.5 -33q0 -22 26.5 -34t82.5 -24
q98 -21 143 -53.5t45 -104.5q0 -81 -58.5 -122.5t-145.5 -41.5zM208 -173h-98l96 143h117z" />
    <glyph glyph-name="uni021A" unicode="&#x21a;" horiz-adv-x="508" 
d="M11 707h485v-126h-170v-581h-144v581h-171v126zM198 -173h-98l96 143h117z" />
    <glyph glyph-name="uni021B" unicode="&#x21b;" horiz-adv-x="403" 
d="M366 0h-93q-74 0 -114.5 41.5t-40.5 117.5v239h-99v106h39q38 0 57.5 19.5t19.5 70.5v72h122v-162h109v-106h-109v-219q0 -69 64 -69h45v-110zM184 -173h-98l96 143h117z" />
    <glyph glyph-name="uni0232" unicode="&#x232;" horiz-adv-x="622" 
d="M149 864h325v-89h-325v89zM462 707h158l-236 -371v-336h-145v334l-238 373h159l151 -247z" />
    <glyph glyph-name="uni0233" unicode="&#x233;" horiz-adv-x="582" 
d="M158 677h275v-89h-275v89zM291 165l126 339h151l-317 -747h-151l119 268l-205 479h150z" />
    <glyph glyph-name="uni0237" unicode="&#x237;" horiz-adv-x="257" 
d="M-54 -243v107q67 0 89 32t22 113v495h138v-495q0 -130 -58 -191t-191 -61z" />
    <glyph glyph-name="uni0272" unicode="&#x272;" horiz-adv-x="604" 
d="M355 514q94 0 143 -46t49 -131v-337h-139v308q0 48 -26 72t-70 24q-51 0 -84 -31.5t-33 -98.5v-265q0 -130 -58 -191t-191 -61v107q67 0 89 32t22 113v495h138v-57q57 67 160 67z" />
    <glyph glyph-name="circumflex" unicode="&#x2c6;" horiz-adv-x="483" 
d="M181 565h-113l96 142h156l96 -142h-114l-60 78z" />
    <glyph glyph-name="caron" unicode="&#x2c7;" horiz-adv-x="483" 
d="M320 565h-156l-96 142h113l61 -78l60 78h114z" />
    <glyph glyph-name="breve" unicode="&#x2d8;" horiz-adv-x="494" 
d="M246 555q-178 0 -178 152h98q0 -38 20.5 -59t59.5 -21q81 0 81 80h99q0 -152 -180 -152z" />
    <glyph glyph-name="dotaccent" unicode="&#x2d9;" horiz-adv-x="296" 
d="M149 582q-34 0 -57.5 23t-23.5 57q0 33 23.5 56t57.5 23q32 0 55.5 -23t23.5 -56q0 -34 -23 -57t-56 -23z" />
    <glyph glyph-name="ring" unicode="&#x2da;" horiz-adv-x="382" 
d="M192 558q-56 0 -90 35t-34 86q0 50 34.5 85t89.5 35t88.5 -35t33.5 -85q0 -51 -34 -86t-88 -35zM192 625q23 0 38.5 15.5t15.5 38.5q0 24 -15.5 39t-38.5 15q-24 0 -39 -15t-15 -39q0 -23 15.5 -38.5t38.5 -15.5z" />
    <glyph glyph-name="ogonek" unicode="&#x2db;" horiz-adv-x="308" 
d="M166 -216q-43 0 -70.5 17t-27.5 51q0 67 134 166l38 -18q-37 -26 -59.5 -54.5t-22.5 -50.5q0 -27 39 -27q25 0 43 15v-86q-34 -13 -74 -13z" />
    <glyph glyph-name="tilde" unicode="&#x2dc;" horiz-adv-x="469" 
d="M295 558q-50 0 -85 44q-24 28 -43 28q-32 0 -32 -65h-67q0 62 28.5 101t77.5 39q47 0 87 -44q21 -28 43 -28q30 0 30 65h68q0 -61 -28.5 -100.5t-78.5 -39.5z" />
    <glyph glyph-name="hungarumlaut" unicode="&#x2dd;" horiz-adv-x="565" 
d="M189 565h-121l96 142h139zM383 565h-121l96 142h139z" />
    <glyph glyph-name="gravecomb" unicode="&#x300;" 
d="M-68 565h-121l-114 142h147z" />
    <glyph glyph-name="acutecomb" unicode="&#x301;" 
d="M-182 565h-121l88 142h147z" />
    <glyph glyph-name="uni0302" unicode="&#x302;" 
d="M-302 565h-113l96 142h156l96 -142h-114l-60 78z" />
    <glyph glyph-name="tildecomb" unicode="&#x303;" 
d="M-174 558q-50 0 -85 44q-24 28 -43 28q-32 0 -32 -65h-67q0 62 28.5 101t77.5 39q47 0 87 -44q21 -28 43 -28q30 0 30 65h68q0 -61 -28.5 -100.5t-78.5 -39.5z" />
    <glyph glyph-name="uni0304" unicode="&#x304;" 
d="M-67 588h-275v89h275v-89z" />
    <glyph glyph-name="uni0306" unicode="&#x306;" 
d="M-248 555q-178 0 -178 152h98q0 -38 20.5 -59t59.5 -21q81 0 81 80h99q0 -152 -180 -152z" />
    <glyph glyph-name="uni0307" unicode="&#x307;" 
d="M-147 582q-34 0 -57.5 23t-23.5 57q0 33 23.5 56t57.5 23q32 0 55.5 -23t23.5 -56q0 -34 -23 -57t-56 -23z" />
    <glyph glyph-name="uni0308" unicode="&#x308;" 
d="M-353 582q-34 0 -57.5 23t-23.5 57q0 33 23.5 56t57.5 23q32 0 55.5 -23t23.5 -56q0 -34 -23 -57t-56 -23zM-147 582q-33 0 -57 23.5t-24 56.5t24 56t57 23t56.5 -23t23.5 -56t-23.5 -56.5t-56.5 -23.5z" />
    <glyph glyph-name="hookabovecomb" unicode="&#x309;" 
d="M-148 541h-99v58q79 10 79 45q0 32 -45 32q-25 0 -64 -20l-35 56q61 29 118 29q62 0 94.5 -22t32.5 -61q0 -58 -81 -77v-40z" />
    <glyph glyph-name="uni030A" unicode="&#x30a;" 
d="M-190 558q-56 0 -90 35t-34 86q0 50 34.5 85t89.5 35t88.5 -35t33.5 -85q0 -51 -34 -86t-88 -35zM-190 625q23 0 38.5 15.5t15.5 38.5q0 24 -15.5 39t-38.5 15q-24 0 -39 -15t-15 -39q0 -23 15.5 -38.5t38.5 -15.5z" />
    <glyph glyph-name="uni030B" unicode="&#x30b;" 
d="M-376 565h-121l96 142h139zM-182 565h-121l96 142h139z" />
    <glyph glyph-name="uni030C" unicode="&#x30c;" 
d="M-163 565h-156l-96 142h113l61 -78l60 78h114z" />
    <glyph glyph-name="uni0312" unicode="&#x312;" 
d="M-163 565h-117l114 142h99z" />
    <glyph glyph-name="uni031B" unicode="&#x31b;" 
d="M-183 375q-46 0 -97 31l22 48q28 -16 51 -16q27 0 36 13.5t9 51.5v63h95v-78q0 -34 -11 -57.5t-29.5 -35t-37 -16t-38.5 -4.5z" />
    <glyph glyph-name="dotbelowcomb" unicode="&#x323;" 
d="M-147 -222q-34 0 -57.5 23t-23.5 57q0 33 23.5 56.5t57.5 23.5q32 0 55.5 -23.5t23.5 -56.5q0 -34 -23 -57t-56 -23z" />
    <glyph glyph-name="uni0326" unicode="&#x326;" 
d="M-182 -173h-98l96 143h117z" />
    <glyph glyph-name="uni0327" unicode="&#x327;" 
d="M-157 -54q41 0 65.5 -24.5t24.5 -63.5q0 -44 -31.5 -73.5t-80.5 -29.5q-97 0 -120 69l76 21q10 -27 41 -27q18 0 30.5 10.5t12.5 29.5t-12 29t-30 10q-24 0 -36 -16l-65 28l76 129l67 -25l-45 -70q15 3 27 3z" />
    <glyph glyph-name="uni0328" unicode="&#x328;" 
d="M-142 -216q-43 0 -70.5 17t-27.5 51q0 67 134 166l38 -18q-37 -26 -59.5 -54.5t-22.5 -50.5q0 -27 39 -27q25 0 43 15v-86q-34 -13 -74 -13z" />
    <glyph glyph-name="uni0335" unicode="&#x335;" 
d="M-67 209h-340v85h340v-85z" />
    <glyph glyph-name="uni0336" unicode="&#x336;" 
d="M-68 233h-742v54h742v-54z" />
    <glyph glyph-name="uni0337" unicode="&#x337;" 
d="M-67 360l-314 -233v116l314 233v-116z" />
    <glyph glyph-name="uni0338" unicode="&#x338;" 
d="M-67 635l-394 -564l-53 32l393 565z" />
    <glyph glyph-name="uni0394" unicode="&#x394;" horiz-adv-x="806" 
d="M325 750h156l301 -750h-758zM590 130l-186 481l-187 -481h373z" />
    <glyph glyph-name="uni03A9" unicode="&#x3a9;" horiz-adv-x="848" 
d="M371 0h-316v120h126v5q-47 42 -82 115t-35 156q0 136 101.5 238t258.5 102t258.5 -101.5t101.5 -240.5q0 -82 -35 -154.5t-82 -114.5v-5h127v-120h-317v98q71 55 111 117t40 150q0 104 -57.5 169t-146.5 65q-88 0 -145.5 -65t-57.5 -169q0 -88 40 -150.5t110 -116.5v-98z
" />
    <glyph glyph-name="uni03BC" unicode="&#x3bc;" horiz-adv-x="608" 
d="M407 230v274h139v-504h-131l-6 61q-55 -71 -162 -71q-32 0 -53 4v-237h-138v747h138v-308q0 -48 26 -71.5t70 -23.5q51 0 84 31t33 98z" />
    <glyph glyph-name="pi" unicode="&#x3c0;" horiz-adv-x="645" 
d="M198 0h-127q31 84 48 201.5t17 203.5l-110 -4l-12 103h616v-99h-88v-262q0 -89 14 -143h-126q-18 32 -18 138v267h-148q-3 -104 -19 -218.5t-47 -186.5z" />
    <glyph glyph-name="Wgrave" unicode="&#x1e80;" horiz-adv-x="1057" 
d="M505 873l84 -136h-121l-109 136h146zM750 154l142 553h150l-184 -707h-193l-137 445l-136 -445h-193l-184 707h150l141 -552l160 552h125z" />
    <glyph glyph-name="wgrave" unicode="&#x1e81;" horiz-adv-x="890" 
d="M419 707l88 -142h-121l-114 142h147zM620 166l107 338h147l-177 -504h-142l-110 332l-109 -332h-143l-177 504h147l107 -336l119 336h112z" />
    <glyph glyph-name="Wacute" unicode="&#x1e82;" horiz-adv-x="1057" 
d="M551 873h147l-109 -136h-121zM750 154l142 553h150l-184 -707h-193l-137 445l-136 -445h-193l-184 707h150l141 -552l160 552h125z" />
    <glyph glyph-name="wacute" unicode="&#x1e83;" horiz-adv-x="890" 
d="M471 707h147l-114 -142h-121zM620 166l107 338h147l-177 -504h-142l-110 332l-109 -332h-143l-177 504h147l107 -336l119 336h112z" />
    <glyph glyph-name="Wdieresis" unicode="&#x1e84;" horiz-adv-x="1057" 
d="M426 746q-34 0 -57.5 23.5t-23.5 57.5q0 33 23.5 56t57.5 23q32 0 55.5 -23t23.5 -56q0 -34 -23.5 -57.5t-55.5 -23.5zM632 746q-33 0 -57 23.5t-24 57.5q0 33 24 56t57 23t56.5 -23t23.5 -56t-24 -57t-56 -24zM750 154l142 553h150l-184 -707h-193l-137 445l-136 -445
h-193l-184 707h150l141 -552l160 552h125z" />
    <glyph glyph-name="wdieresis" unicode="&#x1e85;" horiz-adv-x="890" 
d="M343 582q-34 0 -57.5 23t-23.5 57q0 33 23.5 56t57.5 23q32 0 55.5 -23t23.5 -56q0 -34 -23 -57t-56 -23zM549 582q-33 0 -57 23.5t-24 56.5t24 56t57 23t56.5 -23t23.5 -56t-23.5 -56.5t-56.5 -23.5zM620 166l107 338h147l-177 -504h-142l-110 332l-109 -332h-143
l-177 504h147l107 -336l119 336h112z" />
    <glyph glyph-name="uni1E9E" unicode="&#x1e9e;" horiz-adv-x="748" 
d="M511 401l3 -1q194 -54 194 -198q0 -97 -67.5 -156.5t-177.5 -59.5t-183 38l74 110q48 -29 106 -29q48 0 75.5 23t27.5 64q0 18 -5 31.5t-19.5 25.5t-23.5 18.5t-36.5 16t-37 12.5t-44.5 13l-78 24l150 248h-257v-581h-144v707h572v-108z" />
    <glyph glyph-name="uni1EA0" unicode="&#x1ea0;" horiz-adv-x="724" 
d="M452 707l264 -707h-153l-53 148h-295l-53 -148h-154l265 707h179zM363 560l-105 -293h209zM364 -62q32 0 55.5 -23.5t23.5 -56.5q0 -34 -23.5 -57t-55.5 -23q-34 0 -57.5 23t-23.5 57q0 33 23.5 56.5t57.5 23.5z" />
    <glyph glyph-name="uni1EA1" unicode="&#x1ea1;" horiz-adv-x="562" 
d="M504 329v-238q0 -57 9 -78v-13h-137l-6 69q-25 -38 -71 -58.5t-98 -20.5q-69 0 -116.5 33.5t-47.5 103.5q0 40 16 70t46 48.5t59.5 29t68.5 18.5l92 21q23 5 34.5 13t11.5 24q0 32 -25 48.5t-63 16.5q-87 0 -104 -77l-133 20q32 155 239 155q109 0 167 -47.5t58 -137.5z
M242 86q53 0 92 41.5t39 115.5l-124 -32q-74 -15 -74 -69q0 -27 18.5 -41.5t48.5 -14.5zM313 -62q32 0 55.5 -23.5t23.5 -56.5q0 -34 -23 -57t-56 -23q-34 0 -57.5 23t-23.5 57q0 33 23.5 56.5t57.5 23.5z" />
    <glyph glyph-name="uni1EA2" unicode="&#x1ea2;" horiz-adv-x="724" 
d="M355 880q-30 0 -57 -20l-35 48q52 30 103 30q57 0 88 -22.5t31 -61.5q0 -57 -81 -76v-41h-84v66q79 10 79 45q0 32 -44 32zM716 0h-153l-53 148h-295l-53 -148h-154l265 707h179zM363 560l-105 -293h209z" />
    <glyph glyph-name="uni1EA3" unicode="&#x1ea3;" horiz-adv-x="562" 
d="M270 676q-25 0 -64 -20l-35 56q61 29 118 29q62 0 94.5 -22t32.5 -61q0 -58 -81 -77v-40h-99v58q79 10 79 45q0 32 -45 32zM504 329v-238q0 -57 9 -78v-13h-137l-6 69q-25 -38 -71 -58.5t-98 -20.5q-69 0 -116.5 33.5t-47.5 103.5q0 40 16 70t46 48.5t59.5 29t68.5 18.5
l92 21q23 5 34.5 13t11.5 24q0 32 -25 48.5t-63 16.5q-87 0 -104 -77l-133 20q32 155 239 155q109 0 167 -47.5t58 -137.5zM242 86q53 0 92 41.5t39 115.5l-124 -32q-74 -15 -74 -69q0 -27 18.5 -41.5t48.5 -14.5z" />
    <glyph glyph-name="uni1EA4" unicode="&#x1ea4;" horiz-adv-x="724" 
d="M425 742l-62 68l-62 -68h-113l96 131h158l11 -15l50 81h147l-110 -135h-47l45 -62h-113zM716 0h-153l-53 148h-295l-53 -148h-154l265 707h179zM363 560l-105 -293h209z" />
    <glyph glyph-name="uni1EA5" unicode="&#x1ea5;" horiz-adv-x="562" 
d="M346 565l-60 78l-61 -78h-113l96 142h156l15 -22l57 93h148l-115 -142h-57l48 -71h-114zM504 329v-238q0 -57 9 -78v-13h-137l-6 69q-25 -38 -71 -58.5t-98 -20.5q-69 0 -116.5 33.5t-47.5 103.5q0 40 16 70t46 48.5t59.5 29t68.5 18.5l92 21q23 5 34.5 13t11.5 24
q0 32 -25 48.5t-63 16.5q-87 0 -104 -77l-133 20q32 155 239 155q109 0 167 -47.5t58 -137.5zM242 86q53 0 92 41.5t39 115.5l-124 -32q-74 -15 -74 -69q0 -27 18.5 -41.5t48.5 -14.5z" />
    <glyph glyph-name="uni1EA6" unicode="&#x1ea6;" horiz-adv-x="724" 
d="M569 939l83 -135h-121l-109 135h147zM425 742l-62 68l-62 -68h-113l96 131h158l96 -131h-113zM716 0h-153l-53 148h-295l-53 -148h-154l265 707h179zM363 560l-105 -293h209z" />
    <glyph glyph-name="uni1EA7" unicode="&#x1ea7;" horiz-adv-x="562" 
d="M497 778l88 -142h-121l-115 142h148zM346 565l-60 78l-61 -78h-113l96 142h156l96 -142h-114zM504 329v-238q0 -57 9 -78v-13h-137l-6 69q-25 -38 -71 -58.5t-98 -20.5q-69 0 -116.5 33.5t-47.5 103.5q0 40 16 70t46 48.5t59.5 29t68.5 18.5l92 21q23 5 34.5 13t11.5 24
q0 32 -25 48.5t-63 16.5q-87 0 -104 -77l-133 20q32 155 239 155q109 0 167 -47.5t58 -137.5zM242 86q53 0 92 41.5t39 115.5l-124 -32q-74 -15 -74 -69q0 -27 18.5 -41.5t48.5 -14.5z" />
    <glyph glyph-name="uni1EA8" unicode="&#x1ea8;" horiz-adv-x="724" 
d="M544 944q-30 0 -56 -19l-36 48q52 30 104 30q57 0 88 -23t31 -61q0 -57 -81 -76v-41h-84v66q79 10 79 44q0 32 -45 32zM425 742l-62 68l-62 -68h-113l96 131h158l96 -131h-113zM716 0h-153l-53 148h-295l-53 -148h-154l265 707h179zM363 560l-105 -293h209z" />
    <glyph glyph-name="uni1EA9" unicode="&#x1ea9;" horiz-adv-x="562" 
d="M471 836q62 0 94.5 -22t32.5 -61q0 -58 -81 -77v-40h-99v58q79 10 79 44q0 32 -44 32q-28 0 -65 -19l-35 55q60 30 118 30zM346 565l-60 78l-61 -78h-113l96 142h156l96 -142h-114zM504 329v-238q0 -57 9 -78v-13h-137l-6 69q-25 -38 -71 -58.5t-98 -20.5
q-69 0 -116.5 33.5t-47.5 103.5q0 40 16 70t46 48.5t59.5 29t68.5 18.5l92 21q23 5 34.5 13t11.5 24q0 32 -25 48.5t-63 16.5q-87 0 -104 -77l-133 20q32 155 239 155q109 0 167 -47.5t58 -137.5zM242 86q53 0 92 41.5t39 115.5l-124 -32q-74 -15 -74 -69q0 -27 18.5 -41.5
t48.5 -14.5z" />
    <glyph glyph-name="uni1EAA" unicode="&#x1eaa;" horiz-adv-x="724" 
d="M294 959q-32 0 -32 -64h-67q0 62 28.5 101t77.5 39q51 0 87 -45q22 -28 43 -28q30 0 30 66h68q0 -61 -28 -100.5t-78 -39.5q-49 0 -86 44q-22 27 -43 27zM424 742l-62 68l-62 -68h-113l96 131h158l97 -131h-114zM716 0h-153l-53 148h-295l-53 -148h-154l265 707h179z
M363 560l-105 -293h209z" />
    <glyph glyph-name="uni1EAB" unicode="&#x1eab;" horiz-adv-x="562" 
d="M218 808q-32 0 -32 -65h-67q0 63 28.5 102t77.5 39t87 -45q22 -28 43 -28q30 0 30 66h68q0 -61 -28 -101t-78 -40q-22 0 -40.5 8t-26 15.5t-19.5 21.5q-22 27 -43 27zM347 565l-61 78l-60 -78h-114l96 142h156l96 -142h-113zM504 329v-238q0 -57 9 -78v-13h-137l-6 69
q-25 -38 -71 -58.5t-98 -20.5q-69 0 -116.5 33.5t-47.5 103.5q0 40 16 70t46 48.5t59.5 29t68.5 18.5l92 21q23 5 34.5 13t11.5 24q0 32 -25 48.5t-63 16.5q-87 0 -104 -77l-133 20q32 155 239 155q109 0 167 -47.5t58 -137.5zM242 86q53 0 92 41.5t39 115.5l-124 -32
q-74 -15 -74 -69q0 -27 18.5 -41.5t48.5 -14.5z" />
    <glyph glyph-name="uni1EAC" unicode="&#x1eac;" horiz-adv-x="724" 
d="M425 742l-62 68l-62 -68h-113l96 131h158l96 -131h-113zM452 707l264 -707h-153l-53 148h-295l-53 -148h-154l265 707h179zM363 560l-105 -293h209zM364 -62q32 0 55.5 -23.5t23.5 -56.5q0 -34 -23.5 -57t-55.5 -23q-34 0 -57.5 23t-23.5 57q0 33 23.5 56.5t57.5 23.5z
" />
    <glyph glyph-name="uni1EAD" unicode="&#x1ead;" horiz-adv-x="562" 
d="M346 565l-60 78l-61 -78h-113l96 142h156l96 -142h-114zM504 329v-238q0 -57 9 -78v-13h-137l-6 69q-25 -38 -71 -58.5t-98 -20.5q-69 0 -116.5 33.5t-47.5 103.5q0 40 16 70t46 48.5t59.5 29t68.5 18.5l92 21q23 5 34.5 13t11.5 24q0 32 -25 48.5t-63 16.5
q-87 0 -104 -77l-133 20q32 155 239 155q109 0 167 -47.5t58 -137.5zM242 86q53 0 92 41.5t39 115.5l-124 -32q-74 -15 -74 -69q0 -27 18.5 -41.5t48.5 -14.5zM313 -62q32 0 55.5 -23.5t23.5 -56.5q0 -34 -23 -57t-56 -23q-34 0 -57.5 23t-23.5 57q0 33 23.5 56.5t57.5 23.5
z" />
    <glyph glyph-name="uni1EAE" unicode="&#x1eae;" horiz-adv-x="724" 
d="M386 1023h146l-109 -135h-121zM361 740q-85 0 -130 29.5t-47 103.5h87q3 -34 24.5 -49t65.5 -15q45 0 67 15t25 49h87q-3 -74 -48.5 -103.5t-130.5 -29.5zM716 0h-153l-53 148h-295l-53 -148h-154l265 707h179zM363 560l-105 -293h209z" />
    <glyph glyph-name="uni1EAF" unicode="&#x1eaf;" horiz-adv-x="562" 
d="M312 863h148l-115 -143h-121zM285 555q-178 0 -178 152h98q0 -38 20.5 -59t59.5 -21q81 0 81 80h99q0 -152 -180 -152zM504 329v-238q0 -57 9 -78v-13h-137l-6 69q-25 -38 -71 -58.5t-98 -20.5q-69 0 -116.5 33.5t-47.5 103.5q0 40 16 70t46 48.5t59.5 29t68.5 18.5
l92 21q23 5 34.5 13t11.5 24q0 32 -25 48.5t-63 16.5q-87 0 -104 -77l-133 20q32 155 239 155q109 0 167 -47.5t58 -137.5zM242 86q53 0 92 41.5t39 115.5l-124 -32q-74 -15 -74 -69q0 -27 18.5 -41.5t48.5 -14.5z" />
    <glyph glyph-name="uni1EB0" unicode="&#x1eb0;" horiz-adv-x="724" 
d="M340 1023l84 -135h-121l-110 135h147zM362 740q-85 0 -130 29.5t-48 103.5h88q4 -64 90 -64q45 0 67 15t24 49h88q-3 -74 -48.5 -103.5t-130.5 -29.5zM716 0h-153l-53 148h-295l-53 -148h-154l265 707h179zM363 560l-105 -293h209z" />
    <glyph glyph-name="uni1EB1" unicode="&#x1eb1;" horiz-adv-x="562" 
d="M261 863l89 -143h-121l-115 143h147zM286 555q-179 0 -179 152h99q0 -80 80 -80q81 0 81 80h99q0 -152 -180 -152zM504 329v-238q0 -57 9 -78v-13h-137l-6 69q-25 -38 -71 -58.5t-98 -20.5q-69 0 -116.5 33.5t-47.5 103.5q0 40 16 70t46 48.5t59.5 29t68.5 18.5l92 21
q23 5 34.5 13t11.5 24q0 32 -25 48.5t-63 16.5q-87 0 -104 -77l-133 20q32 155 239 155q109 0 167 -47.5t58 -137.5zM242 86q53 0 92 41.5t39 115.5l-124 -32q-74 -15 -74 -69q0 -27 18.5 -41.5t48.5 -14.5z" />
    <glyph glyph-name="uni1EB2" unicode="&#x1eb2;" horiz-adv-x="724" 
d="M355 1005q-32 0 -57 -20l-36 48q49 30 104 30q57 0 88 -22.5t31 -60.5q0 -58 -81 -77v-40h-84v65q79 10 79 45q0 32 -44 32zM361 740q-85 0 -130 29.5t-47 103.5h87q3 -34 24.5 -49t65.5 -15q45 0 67 15t25 49h87q-3 -74 -48.5 -103.5t-130.5 -29.5zM716 0h-153l-53 148
h-295l-53 -148h-154l265 707h179zM363 560l-105 -293h209z" />
    <glyph glyph-name="uni1EB3" unicode="&#x1eb3;" horiz-adv-x="562" 
d="M279 820q-31 0 -57 -19l-36 48q50 29 104 29q57 0 88 -22.5t31 -60.5q0 -58 -81 -77v-25h-84v50q79 10 79 45q0 32 -44 32zM285 555q-178 0 -178 152h98q0 -38 20.5 -59t59.5 -21q81 0 81 80h99q0 -152 -180 -152zM504 329v-238q0 -57 9 -78v-13h-137l-6 69
q-25 -38 -71 -58.5t-98 -20.5q-69 0 -116.5 33.5t-47.5 103.5q0 40 16 70t46 48.5t59.5 29t68.5 18.5l92 21q23 5 34.5 13t11.5 24q0 32 -25 48.5t-63 16.5q-87 0 -104 -77l-133 20q32 155 239 155q109 0 167 -47.5t58 -137.5zM242 86q53 0 92 41.5t39 115.5l-124 -32
q-74 -15 -74 -69q0 -27 18.5 -41.5t48.5 -14.5z" />
    <glyph glyph-name="uni1EB4" unicode="&#x1eb4;" horiz-adv-x="724" 
d="M294 974q-32 0 -32 -64h-67q0 62 29 101t78 39q50 0 86 -45q24 -28 43 -28q30 0 30 66h68q0 -61 -28 -100.5t-78 -39.5t-85 44q-23 27 -44 27zM362 740q-85 0 -130.5 29.5t-47.5 103.5h87q3 -34 24.5 -49t66.5 -15t66.5 15t24.5 49h87q-2 -74 -47.5 -103.5t-130.5 -29.5z
M716 0h-153l-53 148h-295l-53 -148h-154l265 707h179zM363 560l-105 -293h209z" />
    <glyph glyph-name="uni1EB5" unicode="&#x1eb5;" horiz-adv-x="562" 
d="M218 833q-32 0 -32 -65h-67q0 62 29 101.5t78 39.5q48 0 86 -45q24 -28 43 -28q30 0 30 66h68q0 -62 -28 -101.5t-78 -39.5q-49 0 -85 45q-23 27 -44 27zM286 555q-179 0 -179 152h99q0 -80 80 -80q81 0 81 80h98q0 -152 -179 -152zM504 329v-238q0 -57 9 -78v-13h-137
l-6 69q-25 -38 -71 -58.5t-98 -20.5q-69 0 -116.5 33.5t-47.5 103.5q0 40 16 70t46 48.5t59.5 29t68.5 18.5l92 21q23 5 34.5 13t11.5 24q0 32 -25 48.5t-63 16.5q-87 0 -104 -77l-133 20q32 155 239 155q109 0 167 -47.5t58 -137.5zM242 86q53 0 92 41.5t39 115.5l-124 -32
q-74 -15 -74 -69q0 -27 18.5 -41.5t48.5 -14.5z" />
    <glyph glyph-name="uni1EB6" unicode="&#x1eb6;" horiz-adv-x="724" 
d="M361 740q-85 0 -130 29.5t-47 103.5h87q3 -34 24.5 -49t65.5 -15q45 0 67 15t25 49h87q-3 -74 -48.5 -103.5t-130.5 -29.5zM452 707l264 -707h-153l-53 148h-295l-53 -148h-154l265 707h179zM363 560l-105 -293h209zM364 -62q32 0 55.5 -23.5t23.5 -56.5q0 -34 -23.5 -57
t-55.5 -23q-34 0 -57.5 23t-23.5 57q0 33 23.5 56.5t57.5 23.5z" />
    <glyph glyph-name="uni1EB7" unicode="&#x1eb7;" horiz-adv-x="562" 
d="M285 555q-178 0 -178 152h98q0 -38 20.5 -59t59.5 -21q81 0 81 80h99q0 -152 -180 -152zM504 329v-238q0 -57 9 -78v-13h-137l-6 69q-25 -38 -71 -58.5t-98 -20.5q-69 0 -116.5 33.5t-47.5 103.5q0 40 16 70t46 48.5t59.5 29t68.5 18.5l92 21q23 5 34.5 13t11.5 24
q0 32 -25 48.5t-63 16.5q-87 0 -104 -77l-133 20q32 155 239 155q109 0 167 -47.5t58 -137.5zM242 86q53 0 92 41.5t39 115.5l-124 -32q-74 -15 -74 -69q0 -27 18.5 -41.5t48.5 -14.5zM313 -62q32 0 55.5 -23.5t23.5 -56.5q0 -34 -23 -57t-56 -23q-34 0 -57.5 23t-23.5 57
q0 33 23.5 56.5t57.5 23.5z" />
    <glyph glyph-name="uni1EB8" unicode="&#x1eb8;" horiz-adv-x="525" 
d="M480 707v-126h-268v-165h239v-125h-239v-164h268v-127h-412v707h412zM281 -62q32 0 55.5 -23.5t23.5 -56.5q0 -34 -23 -57t-56 -23q-34 0 -57.5 23t-23.5 57q0 33 23.5 56.5t57.5 23.5z" />
    <glyph glyph-name="uni1EB9" unicode="&#x1eb9;" horiz-adv-x="594" 
d="M557 256l-1 -32h-383q5 -59 41.5 -92t91.5 -33q84 0 113 69l128 -17q-24 -76 -88.5 -118.5t-151.5 -42.5q-124 0 -197.5 70t-73.5 192q0 121 73.5 191.5t193.5 70.5q114 0 184 -66t70 -192zM303 412q-107 0 -127 -103h244q-5 48 -37 75.5t-80 27.5zM314 -63
q32 0 55.5 -23.5t23.5 -56.5t-23.5 -56.5t-55.5 -23.5q-34 0 -57.5 23t-23.5 57q0 33 23.5 56.5t57.5 23.5z" />
    <glyph glyph-name="uni1EBA" unicode="&#x1eba;" horiz-adv-x="525" 
d="M272 880q-30 0 -57 -20l-35 48q52 30 103 30q57 0 88 -22.5t31 -61.5q0 -57 -81 -76v-41h-84v66q79 10 79 45q0 32 -44 32zM480 707v-126h-268v-165h239v-125h-239v-164h268v-127h-412v707h412z" />
    <glyph glyph-name="uni1EBB" unicode="&#x1ebb;" horiz-adv-x="594" 
d="M291 677q-25 0 -64 -20l-35 56q61 29 118 29q62 0 94.5 -22t32.5 -61q0 -58 -81 -77v-40h-99v58q79 10 79 45q0 32 -45 32zM557 256l-1 -32h-383q5 -59 41.5 -92t91.5 -33q84 0 113 69l128 -17q-24 -76 -88.5 -118.5t-151.5 -42.5q-124 0 -197.5 70t-73.5 192
q0 121 73.5 191.5t193.5 70.5q114 0 184 -66t70 -192zM303 412q-107 0 -127 -103h244q-5 48 -37 75.5t-80 27.5z" />
    <glyph glyph-name="uni1EBC" unicode="&#x1ebc;" horiz-adv-x="525" 
d="M211 809q-32 0 -32 -65h-67q0 63 28.5 102t77.5 39q21 0 39.5 -8t27 -15.5t20.5 -21.5q22 -28 43 -28q30 0 30 66h68q0 -61 -28.5 -101t-78.5 -40q-49 0 -85 45q-23 27 -43 27zM480 707v-126h-268v-165h239v-125h-239v-164h268v-127h-412v707h412z" />
    <glyph glyph-name="uni1EBD" unicode="&#x1ebd;" horiz-adv-x="594" 
d="M238 631q-32 0 -32 -65h-67q0 62 28.5 101t77.5 39q47 0 87 -44q21 -28 43 -28q30 0 30 65h68q0 -61 -28.5 -100.5t-78.5 -39.5t-85 44q-24 28 -43 28zM557 256l-1 -32h-383q5 -59 41.5 -92t91.5 -33q84 0 113 69l128 -17q-24 -76 -88.5 -118.5t-151.5 -42.5
q-124 0 -197.5 70t-73.5 192q0 121 73.5 191.5t193.5 70.5q114 0 184 -66t70 -192zM303 412q-107 0 -127 -103h244q-5 48 -37 75.5t-80 27.5z" />
    <glyph glyph-name="uni1EBE" unicode="&#x1ebe;" horiz-adv-x="525" 
d="M341 742l-62 68l-62 -68h-113l96 131h158l11 -15l50 81h147l-110 -135h-47l45 -62h-113zM480 0h-412v707h412v-126h-268v-165h239v-125h-239v-164h268v-127z" />
    <glyph glyph-name="uni1EBF" unicode="&#x1ebf;" horiz-adv-x="594" 
d="M367 566l-60 78l-61 -78h-113l96 142h156l15 -22l57 93h148l-115 -142h-57l48 -71h-114zM303 514q114 0 184 -66t70 -192l-1 -32h-383q5 -59 41.5 -92t91.5 -33q84 0 113 69l128 -17q-24 -76 -88.5 -118.5t-151.5 -42.5q-124 0 -197.5 70t-73.5 192q0 121 73.5 191.5
t193.5 70.5zM303 412q-107 0 -127 -103h244q-5 48 -37 75.5t-80 27.5z" />
    <glyph glyph-name="uni1EC0" unicode="&#x1ec0;" horiz-adv-x="525" 
d="M485 939l83 -135h-121l-109 135h147zM341 742l-62 68l-62 -68h-113l96 131h158l96 -131h-113zM480 0h-412v707h412v-126h-268v-165h239v-125h-239v-164h268v-127z" />
    <glyph glyph-name="uni1EC1" unicode="&#x1ec1;" horiz-adv-x="594" 
d="M518 779l88 -142h-121l-115 142h148zM367 566l-60 78l-61 -78h-113l96 142h156l96 -142h-114zM303 514q114 0 184 -66t70 -192l-1 -32h-383q5 -59 41.5 -92t91.5 -33q84 0 113 69l128 -17q-24 -76 -88.5 -118.5t-151.5 -42.5q-124 0 -197.5 70t-73.5 192
q0 121 73.5 191.5t193.5 70.5zM303 412q-107 0 -127 -103h244q-5 48 -37 75.5t-80 27.5z" />
    <glyph glyph-name="uni1EC2" unicode="&#x1ec2;" horiz-adv-x="525" 
d="M472 1003q57 0 88 -23t31 -61q0 -57 -81 -76v-41h-84v66q79 10 79 44q0 32 -45 32q-30 0 -56 -19l-36 48q52 30 104 30zM341 742l-62 68l-62 -68h-113l96 131h158l96 -131h-113zM480 0h-412v707h412v-126h-268v-165h239v-125h-239v-164h268v-127z" />
    <glyph glyph-name="uni1EC3" unicode="&#x1ec3;" horiz-adv-x="594" 
d="M492 837q62 0 94.5 -22t32.5 -61q0 -58 -81 -77v-40h-99v58q79 10 79 44q0 32 -44 32q-28 0 -65 -19l-35 55q60 30 118 30zM367 566l-60 78l-61 -78h-113l96 142h156l96 -142h-114zM303 514q114 0 184 -66t70 -192l-1 -32h-383q5 -59 41.5 -92t91.5 -33q84 0 113 69
l128 -17q-24 -76 -88.5 -118.5t-151.5 -42.5q-124 0 -197.5 70t-73.5 192q0 121 73.5 191.5t193.5 70.5zM303 412q-107 0 -127 -103h244q-5 48 -37 75.5t-80 27.5z" />
    <glyph glyph-name="uni1EC4" unicode="&#x1ec4;" horiz-adv-x="525" 
d="M211 959q-32 0 -32 -64h-67q0 62 28.5 101t77.5 39q51 0 87 -45q22 -28 43 -28q30 0 30 66h68q0 -61 -28 -100.5t-78 -39.5q-49 0 -86 44q-22 27 -43 27zM341 742l-62 68l-62 -68h-113l96 131h158l97 -131h-114zM480 707v-126h-268v-165h239v-125h-239v-164h268v-127
h-412v707h412z" />
    <glyph glyph-name="uni1EC5" unicode="&#x1ec5;" horiz-adv-x="594" 
d="M238 809q-32 0 -32 -65h-67q0 63 28.5 102t77.5 39t87 -45q22 -28 43 -28q30 0 30 66h68q0 -61 -28 -101t-78 -40q-22 0 -40.5 8t-26 15.5t-19.5 21.5q-22 27 -43 27zM367 566l-61 78l-60 -78h-114l96 142h156l96 -142h-113zM557 256l-1 -32h-383q5 -59 41.5 -92
t91.5 -33q84 0 113 69l128 -17q-24 -76 -88.5 -118.5t-151.5 -42.5q-124 0 -197.5 70t-73.5 192q0 121 73.5 191.5t193.5 70.5q114 0 184 -66t70 -192zM303 412q-107 0 -127 -103h244q-5 48 -37 75.5t-80 27.5z" />
    <glyph glyph-name="uni1EC6" unicode="&#x1ec6;" horiz-adv-x="525" 
d="M341 742l-62 68l-62 -68h-113l96 131h158l96 -131h-113zM480 707v-126h-268v-165h239v-125h-239v-164h268v-127h-412v707h412zM281 -62q32 0 55.5 -23.5t23.5 -56.5q0 -34 -23 -57t-56 -23q-34 0 -57.5 23t-23.5 57q0 33 23.5 56.5t57.5 23.5z" />
    <glyph glyph-name="uni1EC7" unicode="&#x1ec7;" horiz-adv-x="594" 
d="M367 566l-60 78l-61 -78h-113l96 142h156l96 -142h-114zM557 256l-1 -32h-383q5 -59 41.5 -92t91.5 -33q84 0 113 69l128 -17q-24 -76 -88.5 -118.5t-151.5 -42.5q-124 0 -197.5 70t-73.5 192q0 121 73.5 191.5t193.5 70.5q114 0 184 -66t70 -192zM303 412
q-107 0 -127 -103h244q-5 48 -37 75.5t-80 27.5zM314 -63q32 0 55.5 -23.5t23.5 -56.5t-23.5 -56.5t-55.5 -23.5q-34 0 -57.5 23t-23.5 57q0 33 23.5 56.5t57.5 23.5z" />
    <glyph glyph-name="uni1EC8" unicode="&#x1ec8;" horiz-adv-x="280" 
d="M180 737h-84v66q79 10 79 45q0 32 -44 32q-30 0 -57 -20l-35 48q52 30 103 30q57 0 88 -22.5t31 -61.5q0 -57 -81 -76v-41zM212 0h-144v707h144v-707z" />
    <glyph glyph-name="uni1EC9" unicode="&#x1ec9;" horiz-adv-x="259" 
d="M179 541h-99v58q79 10 79 45q0 32 -45 32q-25 0 -64 -20l-35 56q61 29 118 29q62 0 94.5 -22t32.5 -61q0 -58 -81 -77v-40zM199 0h-139v504h139v-504z" />
    <glyph glyph-name="uni1ECA" unicode="&#x1eca;" horiz-adv-x="280" 
d="M212 0h-144v707h144v-707zM140 -222q-34 0 -57.5 23t-23.5 57q0 33 23.5 56.5t57.5 23.5q32 0 55.5 -23.5t23.5 -56.5q0 -34 -23.5 -57t-55.5 -23z" />
    <glyph glyph-name="uni1ECB" unicode="&#x1ecb;" horiz-adv-x="259" 
d="M131 582q-34 0 -57.5 23t-23.5 57q0 33 23.5 56t57.5 23q32 0 55.5 -23t23.5 -56q0 -34 -23 -57t-56 -23zM199 0h-139v504h139v-504zM131 -222q-34 0 -57.5 23t-23.5 57q0 33 23.5 56.5t57.5 23.5q32 0 55.5 -23.5t23.5 -56.5q0 -34 -23 -57t-56 -23z" />
    <glyph glyph-name="uni1ECC" unicode="&#x1ecc;" horiz-adv-x="798" 
d="M399 -14q-159 0 -260.5 102.5t-101.5 265.5t101 265t261 102t261 -102t101 -265t-101.5 -265.5t-260.5 -102.5zM399 119q96 0 157 65t61 170t-61 170t-157 65t-157 -65t-61 -170t61 -170t157 -65zM400 -222q-34 0 -57.5 23t-23.5 57q0 33 23.5 56.5t57.5 23.5
q32 0 55.5 -23.5t23.5 -56.5q0 -34 -23.5 -57t-55.5 -23z" />
    <glyph glyph-name="uni1ECD" unicode="&#x1ecd;" horiz-adv-x="628" 
d="M314 -10q-123 1 -199.5 71.5t-76.5 191.5q0 119 76.5 189.5t199.5 71.5q124 -1 200.5 -71.5t76.5 -189.5q0 -121 -76.5 -191.5t-200.5 -71.5zM314 100q62 0 100 42.5t38 110.5q0 67 -38 109t-100 42t-100 -42t-38 -109q0 -68 38 -110.5t100 -42.5zM317 -222
q-34 0 -57.5 23t-23.5 57q0 33 23.5 56.5t57.5 23.5q32 0 55.5 -23.5t23.5 -56.5q0 -34 -23 -57t-56 -23z" />
    <glyph glyph-name="uni1ECE" unicode="&#x1ece;" horiz-adv-x="798" 
d="M441 737h-84v66q79 10 79 45q0 32 -44 32q-30 0 -57 -20l-35 48q52 30 103 30q57 0 88 -22.5t31 -61.5q0 -57 -81 -76v-41zM399 -14q-159 0 -260.5 102.5t-101.5 265.5t101 265t261 102t261 -102t101 -265t-101.5 -265.5t-260.5 -102.5zM399 119q96 0 157 65t61 170
t-61 170t-157 65t-157 -65t-61 -170t61 -170t157 -65z" />
    <glyph glyph-name="uni1ECF" unicode="&#x1ecf;" horiz-adv-x="628" 
d="M365 541h-99v58q79 10 79 45q0 32 -45 32q-25 0 -64 -20l-35 56q61 29 118 29q62 0 94.5 -22t32.5 -61q0 -58 -81 -77v-40zM314 -10q-123 1 -199.5 71.5t-76.5 191.5q0 119 76.5 189.5t199.5 71.5q124 -1 200.5 -71.5t76.5 -189.5q0 -121 -76.5 -191.5t-200.5 -71.5z
M314 100q62 0 100 42.5t38 110.5q0 67 -38 109t-100 42t-100 -42t-38 -109q0 -68 38 -110.5t100 -42.5z" />
    <glyph glyph-name="uni1ED0" unicode="&#x1ed0;" horiz-adv-x="798" 
d="M461 742l-62 68l-62 -68h-113l96 131h158l11 -15l50 81h147l-110 -135h-47l45 -62h-113zM399 721q160 0 261 -102t101 -265t-101.5 -265.5t-260.5 -102.5t-260.5 102.5t-101.5 265.5t101 265t261 102zM399 119q96 0 157 65t61 170t-61 170t-157 65t-157 -65t-61 -170
t61 -170t157 -65z" />
    <glyph glyph-name="uni1ED1" unicode="&#x1ed1;" horiz-adv-x="628" 
d="M376 565l-60 78l-61 -78h-113l96 142h156l15 -22l57 93h148l-115 -142h-57l48 -71h-114zM314 514q124 -1 200.5 -71.5t76.5 -189.5q0 -121 -76.5 -191.5t-200.5 -71.5q-123 1 -199.5 71.5t-76.5 191.5q0 119 76.5 189.5t199.5 71.5zM314 100q62 0 100 42.5t38 110.5
q0 67 -38 109t-100 42t-100 -42t-38 -109q0 -68 38 -110.5t100 -42.5z" />
    <glyph glyph-name="uni1ED2" unicode="&#x1ed2;" horiz-adv-x="798" 
d="M688 804h-121l-109 135h147zM337 742h-113l96 131h158l96 -131h-113l-62 68zM399 -14q-159 0 -260.5 102.5t-101.5 265.5t101 265t261 102t261 -102t101 -265t-101.5 -265.5t-260.5 -102.5zM399 119q96 0 157 65t61 170t-61 170t-157 65t-157 -65t-61 -170t61 -170
t157 -65z" />
    <glyph glyph-name="uni1ED3" unicode="&#x1ed3;" horiz-adv-x="628" 
d="M615 636h-121l-115 142h148zM255 565h-113l96 142h156l96 -142h-114l-60 78zM314 -10q-123 1 -199.5 71.5t-76.5 191.5q0 119 76.5 189.5t199.5 71.5q124 -1 200.5 -71.5t76.5 -189.5q0 -121 -76.5 -191.5t-200.5 -71.5zM314 100q62 0 100 42.5t38 110.5q0 67 -38 109
t-100 42t-100 -42t-38 -109q0 -68 38 -110.5t100 -42.5z" />
    <glyph glyph-name="uni1ED4" unicode="&#x1ed4;" horiz-adv-x="798" 
d="M630 843v-41h-84v66q79 10 79 44q0 32 -45 32q-30 0 -56 -19l-36 48q52 30 104 30q57 0 88 -23t31 -61q0 -57 -81 -76zM399 810l-62 -68h-113l96 131h158l96 -131h-113zM399 -14q-159 0 -260.5 102.5t-101.5 265.5t101 265t261 102t261 -102t101 -265t-101.5 -265.5
t-260.5 -102.5zM399 119q96 0 157 65t61 170t-61 170t-157 65t-157 -65t-61 -170t61 -170t157 -65z" />
    <glyph glyph-name="uni1ED5" unicode="&#x1ed5;" horiz-adv-x="628" 
d="M547 676v-40h-99v58q79 10 79 44q0 32 -44 32q-28 0 -65 -19l-35 55q60 30 118 30q62 0 94.5 -22t32.5 -61q0 -58 -81 -77zM255 565h-113l96 142h156l96 -142h-114l-60 78zM314 -10q-123 1 -199.5 71.5t-76.5 191.5q0 119 76.5 189.5t199.5 71.5q124 -1 200.5 -71.5
t76.5 -189.5q0 -121 -76.5 -191.5t-200.5 -71.5zM314 100q62 0 100 42.5t38 110.5q0 67 -38 109t-100 42t-100 -42t-38 -109q0 -68 38 -110.5t100 -42.5z" />
    <glyph glyph-name="uni1ED6" unicode="&#x1ed6;" horiz-adv-x="798" 
d="M460 888q-49 0 -86 44q-22 27 -43 27q-32 0 -32 -64h-67q0 62 28.5 101t77.5 39q51 0 87 -45q22 -28 43 -28q30 0 30 66h68q0 -61 -28 -100.5t-78 -39.5zM399 810l-62 -68h-113l96 131h158l97 -131h-114zM399 -14q-159 0 -260.5 102.5t-101.5 265.5t101 265t261 102
t261 -102t101 -265t-101.5 -265.5t-260.5 -102.5zM399 119q96 0 157 65t61 170t-61 170t-157 65t-157 -65t-61 -170t61 -170t157 -65z" />
    <glyph glyph-name="uni1ED7" unicode="&#x1ed7;" horiz-adv-x="628" 
d="M376 736q-22 0 -40.5 8t-26 15.5t-19.5 21.5q-22 27 -43 27q-32 0 -32 -65h-67q0 63 28.5 102t77.5 39t87 -45q22 -28 43 -28q30 0 30 66h68q0 -61 -28 -101t-78 -40zM315 643l-60 -78h-114l96 142h156l96 -142h-113zM314 -10q-123 1 -199.5 71.5t-76.5 191.5
q0 119 76.5 189.5t199.5 71.5q124 -1 200.5 -71.5t76.5 -189.5q0 -121 -76.5 -191.5t-200.5 -71.5zM314 100q62 0 100 42.5t38 110.5q0 67 -38 109t-100 42t-100 -42t-38 -109q0 -68 38 -110.5t100 -42.5z" />
    <glyph glyph-name="uni1ED8" unicode="&#x1ed8;" horiz-adv-x="798" 
d="M337 742h-113l96 131h158l96 -131h-113l-62 68zM399 -14q-159 0 -260.5 102.5t-101.5 265.5t101 265t261 102t261 -102t101 -265t-101.5 -265.5t-260.5 -102.5zM399 119q96 0 157 65t61 170t-61 170t-157 65t-157 -65t-61 -170t61 -170t157 -65zM400 -222q-34 0 -57.5 23
t-23.5 57q0 33 23.5 56.5t57.5 23.5q32 0 55.5 -23.5t23.5 -56.5q0 -34 -23.5 -57t-55.5 -23z" />
    <glyph glyph-name="uni1ED9" unicode="&#x1ed9;" horiz-adv-x="628" 
d="M255 565h-113l96 142h156l96 -142h-114l-60 78zM314 -10q-123 1 -199.5 71.5t-76.5 191.5q0 119 76.5 189.5t199.5 71.5q124 -1 200.5 -71.5t76.5 -189.5q0 -121 -76.5 -191.5t-200.5 -71.5zM314 100q62 0 100 42.5t38 110.5q0 67 -38 109t-100 42t-100 -42t-38 -109
q0 -68 38 -110.5t100 -42.5zM317 -222q-34 0 -57.5 23t-23.5 57q0 33 23.5 56.5t57.5 23.5q32 0 55.5 -23.5t23.5 -56.5q0 -34 -23 -57t-56 -23z" />
    <glyph glyph-name="uni1EDA" unicode="&#x1eda;" horiz-adv-x="798" 
d="M422 873h147l-109 -136h-121zM700 691v63h95v-78q0 -98 -92 -111q58 -91 58 -211q0 -163 -101.5 -265.5t-260.5 -102.5t-260.5 102.5t-101.5 265.5t101 265t261 102q153 0 254 -95h2q27 0 36 13.5t9 51.5zM399 119q96 0 157 65t61 170t-61 170t-157 65t-157 -65t-61 -170
t61 -170t157 -65z" />
    <glyph glyph-name="uni1EDB" unicode="&#x1edb;" horiz-adv-x="628" 
d="M342 707h147l-114 -142h-121zM545 525v63h95v-78q0 -97 -89 -111q40 -62 40 -146q0 -121 -76.5 -191.5t-200.5 -71.5q-123 1 -199.5 71.5t-76.5 191.5q0 119 76.5 189.5t199.5 71.5q106 0 179 -54h7q27 0 36 13.5t9 51.5zM314 100q62 0 100 42.5t38 110.5q0 67 -38 109
t-100 42t-100 -42t-38 -109q0 -68 38 -110.5t100 -42.5z" />
    <glyph glyph-name="uni1EDC" unicode="&#x1edc;" horiz-adv-x="798" 
d="M376 873l84 -136h-121l-109 136h146zM700 691v63h95v-78q0 -98 -92 -111q58 -91 58 -211q0 -163 -101.5 -265.5t-260.5 -102.5t-260.5 102.5t-101.5 265.5t101 265t261 102q153 0 254 -95h2q27 0 36 13.5t9 51.5zM399 119q96 0 157 65t61 170t-61 170t-157 65t-157 -65
t-61 -170t61 -170t157 -65z" />
    <glyph glyph-name="uni1EDD" unicode="&#x1edd;" horiz-adv-x="628" 
d="M290 707l88 -142h-121l-114 142h147zM545 525v63h95v-78q0 -97 -89 -111q40 -62 40 -146q0 -121 -76.5 -191.5t-200.5 -71.5q-123 1 -199.5 71.5t-76.5 191.5q0 119 76.5 189.5t199.5 71.5q106 0 179 -54h7q27 0 36 13.5t9 51.5zM314 100q62 0 100 42.5t38 110.5
q0 67 -38 109t-100 42t-100 -42t-38 -109q0 -68 38 -110.5t100 -42.5z" />
    <glyph glyph-name="uni1EDE" unicode="&#x1ede;" horiz-adv-x="798" 
d="M392 880q-30 0 -57 -20l-35 48q52 30 103 30q57 0 88 -22.5t31 -61.5q0 -57 -81 -76v-41h-84v66q79 10 79 45q0 32 -44 32zM700 691v63h95v-78q0 -98 -92 -111q58 -91 58 -211q0 -163 -101.5 -265.5t-260.5 -102.5t-260.5 102.5t-101.5 265.5t101 265t261 102
q153 0 254 -95h2q27 0 36 13.5t9 51.5zM399 119q96 0 157 65t61 170t-61 170t-157 65t-157 -65t-61 -170t61 -170t157 -65z" />
    <glyph glyph-name="uni1EDF" unicode="&#x1edf;" horiz-adv-x="628" 
d="M300 676q-25 0 -64 -20l-35 56q61 29 118 29q62 0 94.5 -22t32.5 -61q0 -58 -81 -77v-40h-99v58q79 10 79 45q0 32 -45 32zM545 525v63h95v-78q0 -97 -89 -111q40 -62 40 -146q0 -121 -76.5 -191.5t-200.5 -71.5q-123 1 -199.5 71.5t-76.5 191.5q0 119 76.5 189.5
t199.5 71.5q106 0 179 -54h7q27 0 36 13.5t9 51.5zM314 100q62 0 100 42.5t38 110.5q0 67 -38 109t-100 42t-100 -42t-38 -109q0 -68 38 -110.5t100 -42.5z" />
    <glyph glyph-name="uni1EE0" unicode="&#x1ee0;" horiz-adv-x="798" 
d="M331 809q-32 0 -32 -65h-67q0 63 28.5 102t77.5 39q21 0 39.5 -8t27 -15.5t20.5 -21.5q22 -28 43 -28q30 0 30 66h68q0 -61 -28.5 -101t-78.5 -40q-49 0 -85 45q-23 27 -43 27zM700 691v63h95v-78q0 -98 -92 -111q58 -91 58 -211q0 -163 -101.5 -265.5t-260.5 -102.5
t-260.5 102.5t-101.5 265.5t101 265t261 102q153 0 254 -95h2q27 0 36 13.5t9 51.5zM399 119q96 0 157 65t61 170t-61 170t-157 65t-157 -65t-61 -170t61 -170t157 -65z" />
    <glyph glyph-name="uni1EE1" unicode="&#x1ee1;" horiz-adv-x="628" 
d="M248 630q-32 0 -32 -65h-67q0 62 28.5 101t77.5 39q47 0 87 -44q21 -28 43 -28q30 0 30 65h68q0 -61 -28.5 -100.5t-78.5 -39.5t-85 44q-24 28 -43 28zM545 525v63h95v-78q0 -97 -89 -111q40 -62 40 -146q0 -121 -76.5 -191.5t-200.5 -71.5q-123 1 -199.5 71.5
t-76.5 191.5q0 119 76.5 189.5t199.5 71.5q106 0 179 -54h7q27 0 36 13.5t9 51.5zM314 100q62 0 100 42.5t38 110.5q0 67 -38 109t-100 42t-100 -42t-38 -109q0 -68 38 -110.5t100 -42.5z" />
    <glyph glyph-name="uni1EE2" unicode="&#x1ee2;" horiz-adv-x="798" 
d="M700 691v63h95v-78q0 -98 -92 -111q58 -91 58 -211q0 -163 -101.5 -265.5t-260.5 -102.5t-260.5 102.5t-101.5 265.5t101 265t261 102q153 0 254 -95h2q27 0 36 13.5t9 51.5zM399 119q96 0 157 65t61 170t-61 170t-157 65t-157 -65t-61 -170t61 -170t157 -65zM400 -62
q32 0 55.5 -23.5t23.5 -56.5q0 -34 -23.5 -57t-55.5 -23q-34 0 -57.5 23t-23.5 57q0 33 23.5 56.5t57.5 23.5z" />
    <glyph glyph-name="uni1EE3" unicode="&#x1ee3;" horiz-adv-x="628" 
d="M545 525v63h95v-78q0 -97 -89 -111q40 -62 40 -146q0 -121 -76.5 -191.5t-200.5 -71.5q-123 1 -199.5 71.5t-76.5 191.5q0 119 76.5 189.5t199.5 71.5q106 0 179 -54h7q27 0 36 13.5t9 51.5zM314 100q62 0 100 42.5t38 110.5q0 67 -38 109t-100 42t-100 -42t-38 -109
q0 -68 38 -110.5t100 -42.5zM317 -62q32 0 55.5 -23.5t23.5 -56.5q0 -34 -23 -57t-56 -23q-34 0 -57.5 23t-23.5 57q0 33 23.5 56.5t57.5 23.5z" />
    <glyph glyph-name="uni1EE4" unicode="&#x1ee4;" horiz-adv-x="681" 
d="M341 -14q-126 0 -203.5 67.5t-77.5 197.5v456h144v-437q0 -78 37 -115.5t100 -37.5q62 0 99 37.5t37 115.5v437h145v-456q0 -130 -77.5 -197.5t-203.5 -67.5zM341 -222q-34 0 -57.5 23t-23.5 57q0 33 23.5 56.5t57.5 23.5q32 0 55.5 -23.5t23.5 -56.5q0 -34 -23 -57
t-56 -23z" />
    <glyph glyph-name="uni1EE5" unicode="&#x1ee5;" horiz-adv-x="609" 
d="M408 230v274h139v-504h-139v58q-57 -68 -160 -68q-94 0 -143 46.5t-49 130.5v337h138v-308q0 -48 26.5 -71.5t70.5 -23.5q51 0 83.5 31t33.5 98zM307 -62q32 0 55.5 -23.5t23.5 -56.5q0 -34 -23 -57t-56 -23q-34 0 -57.5 23t-23.5 57q0 33 23.5 56.5t57.5 23.5z" />
    <glyph glyph-name="uni1EE6" unicode="&#x1ee6;" horiz-adv-x="681" 
d="M381 737h-84v66q79 10 79 45q0 32 -44 32q-30 0 -57 -20l-35 48q52 30 103 30q57 0 88 -22.5t31 -61.5q0 -57 -81 -76v-41zM341 -14q-126 0 -203.5 67.5t-77.5 197.5v456h144v-437q0 -78 37 -115.5t100 -37.5q62 0 99 37.5t37 115.5v437h145v-456q0 -130 -77.5 -197.5
t-203.5 -67.5z" />
    <glyph glyph-name="uni1EE7" unicode="&#x1ee7;" horiz-adv-x="609" 
d="M286 676q-25 0 -64 -20l-35 56q61 29 118 29q62 0 94.5 -22t32.5 -61q0 -58 -81 -77v-40h-99v58q79 10 79 45q0 32 -45 32zM408 230v274h139v-504h-139v58q-57 -68 -160 -68q-94 0 -143 46.5t-49 130.5v337h138v-308q0 -48 26.5 -71.5t70.5 -23.5q51 0 83.5 31t33.5 98z
" />
    <glyph glyph-name="uni1EE8" unicode="&#x1ee8;" horiz-adv-x="681" 
d="M363 873h147l-109 -136h-121zM697 732v63h95v-78q0 -34 -11 -57.5t-29.5 -35t-37 -16t-38.5 -4.5q-22 0 -54 10v-363q0 -130 -77.5 -197.5t-203.5 -67.5t-203.5 67.5t-77.5 197.5v456h144v-437q0 -78 37 -115.5t100 -37.5q62 0 99 37.5t37 115.5v437h145v-34q18 -6 30 -6
q27 0 36 13.5t9 51.5z" />
    <glyph glyph-name="uni1EE9" unicode="&#x1ee9;" horiz-adv-x="609" 
d="M327 707h147l-114 -142h-121zM611 529v63h95v-78q0 -34 -11 -57.5t-29.5 -35t-37 -16t-38.5 -4.5q-22 0 -43 7v-408h-139v58q-57 -68 -160 -68q-94 0 -143 46.5t-49 130.5v337h138v-308q0 -48 26.5 -71.5t70.5 -23.5q51 0 83.5 31t33.5 98v274h139v-37q10 -3 19 -3
q27 0 36 13.5t9 51.5z" />
    <glyph glyph-name="uni1EEA" unicode="&#x1eea;" horiz-adv-x="681" 
d="M316 873l84 -136h-121l-109 136h146zM697 732v63h95v-78q0 -34 -11 -57.5t-29.5 -35t-37 -16t-38.5 -4.5q-22 0 -54 10v-363q0 -130 -77.5 -197.5t-203.5 -67.5t-203.5 67.5t-77.5 197.5v456h144v-437q0 -78 37 -115.5t100 -37.5q62 0 99 37.5t37 115.5v437h145v-34
q18 -6 30 -6q27 0 36 13.5t9 51.5z" />
    <glyph glyph-name="uni1EEB" unicode="&#x1eeb;" horiz-adv-x="609" 
d="M276 707l88 -142h-121l-114 142h147zM611 529v63h95v-78q0 -34 -11 -57.5t-29.5 -35t-37 -16t-38.5 -4.5q-22 0 -43 7v-408h-139v58q-57 -68 -160 -68q-94 0 -143 46.5t-49 130.5v337h138v-308q0 -48 26.5 -71.5t70.5 -23.5q51 0 83.5 31t33.5 98v274h139v-37
q10 -3 19 -3q27 0 36 13.5t9 51.5z" />
    <glyph glyph-name="uni1EEC" unicode="&#x1eec;" horiz-adv-x="681" 
d="M332 880q-30 0 -57 -20l-35 48q52 30 103 30q57 0 88 -22.5t31 -61.5q0 -57 -81 -76v-41h-84v66q79 10 79 45q0 32 -44 32zM697 732v63h95v-78q0 -34 -11 -57.5t-29.5 -35t-37 -16t-38.5 -4.5q-22 0 -54 10v-363q0 -130 -77.5 -197.5t-203.5 -67.5t-203.5 67.5
t-77.5 197.5v456h144v-437q0 -78 37 -115.5t100 -37.5q62 0 99 37.5t37 115.5v437h145v-34q18 -6 30 -6q27 0 36 13.5t9 51.5z" />
    <glyph glyph-name="uni1EED" unicode="&#x1eed;" horiz-adv-x="609" 
d="M286 676q-25 0 -64 -20l-35 56q61 29 118 29q62 0 94.5 -22t32.5 -61q0 -58 -81 -77v-40h-99v58q79 10 79 45q0 32 -45 32zM611 529v63h95v-78q0 -34 -11 -57.5t-29.5 -35t-37 -16t-38.5 -4.5q-22 0 -43 7v-408h-139v58q-57 -68 -160 -68q-94 0 -143 46.5t-49 130.5v337
h138v-308q0 -48 26.5 -71.5t70.5 -23.5q51 0 83.5 31t33.5 98v274h139v-37q10 -3 19 -3q27 0 36 13.5t9 51.5z" />
    <glyph glyph-name="uni1EEE" unicode="&#x1eee;" horiz-adv-x="681" 
d="M272 809q-32 0 -32 -65h-67q0 63 28.5 102t77.5 39q47 0 87 -45q22 -28 43 -28q30 0 30 66h68q0 -61 -28.5 -101t-78.5 -40q-49 0 -85 45q-23 27 -43 27zM697 732v63h95v-78q0 -34 -11 -57.5t-29.5 -35t-37 -16t-38.5 -4.5q-22 0 -54 10v-363q0 -130 -77.5 -197.5
t-203.5 -67.5t-203.5 67.5t-77.5 197.5v456h144v-437q0 -78 37 -115.5t100 -37.5q62 0 99 37.5t37 115.5v437h145v-34q18 -6 30 -6q27 0 36 13.5t9 51.5z" />
    <glyph glyph-name="uni1EEF" unicode="&#x1eef;" horiz-adv-x="609" 
d="M233 630q-32 0 -32 -65h-67q0 62 28.5 101t77.5 39q47 0 87 -44q21 -28 43 -28q30 0 30 65h68q0 -61 -28.5 -100.5t-78.5 -39.5t-85 44q-24 28 -43 28zM611 529v63h95v-78q0 -34 -11 -57.5t-29.5 -35t-37 -16t-38.5 -4.5q-22 0 -43 7v-408h-139v58q-57 -68 -160 -68
q-94 0 -143 46.5t-49 130.5v337h138v-308q0 -48 26.5 -71.5t70.5 -23.5q51 0 83.5 31t33.5 98v274h139v-37q10 -3 19 -3q27 0 36 13.5t9 51.5z" />
    <glyph glyph-name="uni1EF0" unicode="&#x1ef0;" horiz-adv-x="681" 
d="M697 732v63h95v-78q0 -34 -11 -57.5t-29.5 -35t-37 -16t-38.5 -4.5q-22 0 -54 10v-363q0 -130 -77.5 -197.5t-203.5 -67.5t-203.5 67.5t-77.5 197.5v456h144v-437q0 -78 37 -115.5t100 -37.5q62 0 99 37.5t37 115.5v437h145v-34q18 -6 30 -6q27 0 36 13.5t9 51.5z
M341 -62q32 0 55.5 -23.5t23.5 -56.5q0 -34 -23 -57t-56 -23q-34 0 -57.5 23t-23.5 57q0 33 23.5 56.5t57.5 23.5z" />
    <glyph glyph-name="uni1EF1" unicode="&#x1ef1;" horiz-adv-x="609" 
d="M611 529v63h95v-78q0 -34 -11 -57.5t-29.5 -35t-37 -16t-38.5 -4.5q-22 0 -43 7v-408h-139v58q-57 -68 -160 -68q-94 0 -143 46.5t-49 130.5v337h138v-308q0 -48 26.5 -71.5t70.5 -23.5q51 0 83.5 31t33.5 98v274h139v-37q10 -3 19 -3q27 0 36 13.5t9 51.5zM307 -62
q32 0 55.5 -23.5t23.5 -56.5q0 -34 -23 -57t-56 -23q-34 0 -57.5 23t-23.5 57q0 33 23.5 56.5t57.5 23.5z" />
    <glyph glyph-name="Ygrave" unicode="&#x1ef2;" horiz-adv-x="622" 
d="M288 873l84 -136h-121l-109 136h146zM462 707h158l-236 -371v-336h-145v334l-238 373h159l151 -247z" />
    <glyph glyph-name="ygrave" unicode="&#x1ef3;" horiz-adv-x="582" 
d="M270 707l88 -142h-121l-114 142h147zM291 165l126 339h151l-317 -747h-151l119 268l-205 479h150z" />
    <glyph glyph-name="uni1EF4" unicode="&#x1ef4;" horiz-adv-x="622" 
d="M384 0h-145v334l-238 373h159l151 -247l151 247h158l-236 -371v-336zM313 -62q32 0 55.5 -23.5t23.5 -56.5q0 -34 -23 -57t-56 -23q-34 0 -57.5 23t-23.5 57q0 33 23.5 56.5t57.5 23.5z" />
    <glyph glyph-name="uni1EF5" unicode="&#x1ef5;" horiz-adv-x="582" 
d="M291 165l126 339h151l-317 -747h-151l119 268l-205 479h150zM492 -62q32 0 55.5 -23.5t23.5 -56.5q0 -34 -23.5 -57t-55.5 -23q-34 0 -57.5 23t-23.5 57q0 33 23.5 56.5t57.5 23.5z" />
    <glyph glyph-name="uni1EF6" unicode="&#x1ef6;" horiz-adv-x="622" 
d="M304 880q-30 0 -57 -20l-35 48q52 30 103 30q57 0 88 -22.5t31 -61.5q0 -57 -81 -76v-41h-84v66q79 10 79 45q0 32 -44 32zM462 707h158l-236 -371v-336h-145v334l-238 373h159l151 -247z" />
    <glyph glyph-name="uni1EF7" unicode="&#x1ef7;" horiz-adv-x="582" 
d="M280 676q-25 0 -64 -20l-35 56q61 29 118 29q62 0 94.5 -22t32.5 -61q0 -58 -81 -77v-40h-99v58q79 10 79 45q0 32 -45 32zM291 165l126 339h151l-317 -747h-151l119 268l-205 479h150z" />
    <glyph glyph-name="uni1EF8" unicode="&#x1ef8;" horiz-adv-x="622" 
d="M243 809q-32 0 -32 -65h-67q0 63 28.5 102t77.5 39q21 0 39.5 -8t27 -15.5t20.5 -21.5q22 -28 43 -28q30 0 30 66h68q0 -61 -28.5 -101t-78.5 -40q-49 0 -85 45q-23 27 -43 27zM462 707h158l-236 -371v-336h-145v334l-238 373h159l151 -247z" />
    <glyph glyph-name="uni1EF9" unicode="&#x1ef9;" horiz-adv-x="582" 
d="M227 630q-32 0 -32 -65h-67q0 62 28.5 101t77.5 39q47 0 87 -44q21 -28 43 -28q30 0 30 65h68q0 -61 -28.5 -100.5t-78.5 -39.5t-85 44q-24 28 -43 28zM291 165l126 339h151l-317 -747h-151l119 268l-205 479h150z" />
    <glyph glyph-name="endash" unicode="&#x2013;" horiz-adv-x="500" 
d="M500 201h-500v104h500v-104z" />
    <glyph glyph-name="emdash" unicode="&#x2014;" horiz-adv-x="1000" 
d="M1000 201h-1000v104h1000v-104z" />
    <glyph glyph-name="quoteleft" unicode="&#x2018;" horiz-adv-x="295" 
d="M182 387h-142l104 320h99z" />
    <glyph glyph-name="quoteright" unicode="&#x2019;" horiz-adv-x="295" 
d="M151 387h-99l61 320h141z" />
    <glyph glyph-name="quotesinglbase" unicode="&#x201a;" horiz-adv-x="321" 
d="M164 -180h-99l61 321h142z" />
    <glyph glyph-name="quotedblleft" unicode="&#x201c;" horiz-adv-x="526" 
d="M182 387h-142l104 320h99zM413 387h-141l103 320h99z" />
    <glyph glyph-name="quotedblright" unicode="&#x201d;" horiz-adv-x="526" 
d="M151 387h-99l61 320h141zM382 387h-99l61 320h142z" />
    <glyph glyph-name="quotedblbase" unicode="&#x201e;" horiz-adv-x="548" 
d="M164 -180h-99l61 321h142zM391 -180h-99l61 321h141z" />
    <glyph glyph-name="dagger" unicode="&#x2020;" horiz-adv-x="508" 
d="M323 533h141v-89h-141v-577h-138v577h-141v89h141v174h138v-174z" />
    <glyph glyph-name="daggerdbl" unicode="&#x2021;" horiz-adv-x="533" 
d="M477 533v-89h-141v-306h141v-88h-141v-183h-139v183h-141v88h141v306h-141v89h141v174h139v-174h141z" />
    <glyph glyph-name="bullet" unicode="&#x2022;" horiz-adv-x="499" 
d="M250 67q-76 0 -131 53.5t-55 131.5q0 75 55.5 130.5t130.5 55.5q74 0 129.5 -55.5t55.5 -130.5q0 -78 -55 -131.5t-130 -53.5z" />
    <glyph glyph-name="ellipsis" unicode="&#x2026;" horiz-adv-x="885" 
d="M158 -10q-32 0 -55.5 23.5t-23.5 56.5q0 32 23.5 56t55.5 24q33 0 57 -24t24 -56q0 -33 -24 -56.5t-57 -23.5zM443 -10q-32 0 -55.5 23.5t-23.5 56.5q0 32 23.5 56t55.5 24q33 0 56.5 -24t23.5 -56q0 -33 -23.5 -56.5t-56.5 -23.5zM725 -10q-32 0 -55.5 23.5t-23.5 56.5
q0 32 23.5 56t55.5 24q33 0 57 -24t24 -56q0 -33 -24 -56.5t-57 -23.5z" />
    <glyph glyph-name="perthousand" unicode="&#x2030;" horiz-adv-x="1231" 
d="M216 384q-69 0 -117.5 48.5t-48.5 118.5q0 69 49 117.5t117 48.5q69 0 117.5 -49t48.5 -117q0 -69 -48.5 -118t-117.5 -49zM295 0h-113l368 707h115zM216 475q32 0 53.5 22t21.5 54q0 31 -22 53t-53 22t-53 -22t-22 -53q0 -32 22 -54t53 -22zM636 -9q-70 0 -119 49
t-49 118q0 70 49 118.5t119 48.5q68 0 116.5 -48.5t48.5 -118.5q0 -68 -48.5 -117.5t-116.5 -49.5zM1016 -9q-70 0 -118.5 49t-48.5 118q0 70 49 118.5t118 48.5t117.5 -48.5t48.5 -118.5q0 -69 -48.5 -118t-117.5 -49zM636 84q31 0 53 21.5t22 52.5t-22.5 53.5t-52.5 22.5
q-32 0 -54.5 -22t-22.5 -54q0 -31 22.5 -52.5t54.5 -21.5zM1016 84q31 0 53 21.5t22 52.5t-22 53.5t-53 22.5q-32 0 -54 -22t-22 -54q0 -31 22 -52.5t54 -21.5z" />
    <glyph glyph-name="guilsinglleft" unicode="&#x2039;" horiz-adv-x="321" 
d="M292 69h-112l-152 184l152 184h112l-152 -184z" />
    <glyph glyph-name="guilsinglright" unicode="&#x203a;" horiz-adv-x="321" 
d="M293 253l-152 -184h-112l152 184l-152 184h112z" />
    <glyph glyph-name="fraction" unicode="&#x2044;" horiz-adv-x="208" 
d="M-54 0h-84l399 707h85z" />
    <glyph glyph-name="uni2070" unicode="&#x2070;" horiz-adv-x="371" 
d="M185 395q-154 0 -154 220t154 220t154 -220t-154 -220zM185 469q71 0 71 146t-71 146t-71 -146t71 -146z" />
    <glyph glyph-name="uni2074" unicode="&#x2074;" horiz-adv-x="359" 
d="M292 560h45v-73h-45v-84h-83v84h-199v74l155 266h127v-267zM209 772l-121 -212h121v212z" />
    <glyph glyph-name="uni2075" unicode="&#x2075;" horiz-adv-x="361" 
d="M133 676h48q156 0 156 -133q0 -68 -41.5 -108t-110.5 -40t-110.5 37.5t-41.5 101.5q0 2 0.5 8t0.5 8h82q-1 -3 -1 -9q0 -34 19 -53t53 -19q31 0 48.5 19t17.5 49q0 42 -27.5 56.5t-72.5 14.5h-107l17 219h253v-74h-178z" />
    <glyph glyph-name="uni2076" unicode="&#x2076;" horiz-adv-x="343" 
d="M189 686q58 0 98.5 -40t40.5 -102q0 -63 -46.5 -106t-111.5 -43q-66 0 -110.5 44t-44.5 107q0 55 38 105l134 176h100l-110 -142q4 1 12 1zM247 546q1 34 -20.5 57t-57.5 23q-34 0 -54.5 -22t-22.5 -56q-1 -33 20 -56t56 -23q34 0 56 22.5t23 54.5z" />
    <glyph glyph-name="uni2077" unicode="&#x2077;" horiz-adv-x="315" 
d="M9 753v74h300v-74l-194 -350h-95l199 350h-210z" />
    <glyph glyph-name="uni2078" unicode="&#x2078;" horiz-adv-x="359" 
d="M180 395q-68 0 -111 36t-43 96q0 73 66 108q-49 31 -49 86q0 50 38.5 82t98.5 32q59 0 97 -32t38 -82q0 -55 -48 -86q66 -35 66 -108q0 -59 -43 -95.5t-110 -36.5zM180 659q25 0 42.5 16.5t17.5 42.5q0 24 -17.5 40t-42.5 16q-26 0 -43 -15.5t-17 -40.5q0 -26 17 -42.5
t43 -16.5zM180 469q30 0 50 18.5t20 48.5t-19.5 48.5t-50.5 18.5t-51 -18.5t-20 -48.5t20 -48.5t51 -18.5z" />
    <glyph glyph-name="uni2079" unicode="&#x2079;" horiz-adv-x="343" 
d="M173 835q66 0 110.5 -44t44.5 -107q0 -55 -38 -105l-134 -176h-100l110 142q-4 -1 -12 -1q-58 0 -98.5 40t-40.5 102t47 105.5t111 43.5zM251 682q1 33 -20 56t-56 23q-34 0 -56 -22.5t-23 -54.5q-1 -35 20.5 -58t57.5 -23q34 0 54.5 22t22.5 57z" />
    <glyph glyph-name="uni2080" unicode="&#x2080;" horiz-adv-x="371" 
d="M185 -168q-154 0 -154 220q0 221 154 221t154 -221q0 -220 -154 -220zM185 -94q71 0 71 146t-71 146t-71 -146t71 -146z" />
    <glyph glyph-name="uni2081" unicode="&#x2081;" horiz-adv-x="246" 
d="M10 182l101 82h80v-424h-83v328l-98 -80v94z" />
    <glyph glyph-name="uni2082" unicode="&#x2082;" horiz-adv-x="346" 
d="M258 33l-115 -119h179v-74h-296v66l169 173q37 36 37 69q0 24 -15.5 37.5t-42.5 13.5q-67 0 -67 -71v-20l-82 8v19q0 64 39 101t107 37q64 0 103.5 -33t39.5 -89q0 -62 -56 -118z" />
    <glyph glyph-name="uni2083" unicode="&#x2083;" horiz-adv-x="352" 
d="M178 -168q-76 0 -116.5 39.5t-40.5 112.5h85q2 -78 71 -78q31 0 48.5 18t17.5 46q0 35 -21.5 48.5t-47.5 13.5h-14v64h12q26 0 41.5 15t15.5 40q0 22 -15 35t-38 13q-28 0 -44 -18.5t-16 -49.5v-4l-84 8q0 65 38.5 101.5t103.5 36.5q58 0 95.5 -33.5t37.5 -80.5
q0 -33 -17 -56.5t-39 -32.5q33 -9 55 -35t22 -70q0 -60 -41 -96.5t-109 -36.5z" />
    <glyph glyph-name="uni2084" unicode="&#x2084;" horiz-adv-x="359" 
d="M292 -2h45v-74h-45v-84h-83v84h-199v74l155 266h127v-266zM209 210l-121 -212h121v212z" />
    <glyph glyph-name="uni2085" unicode="&#x2085;" horiz-adv-x="361" 
d="M133 113h48q156 0 156 -133q0 -67 -41.5 -107.5t-110.5 -40.5t-110.5 37.5t-41.5 101.5q0 3 0.5 8t0.5 8h82q-1 -3 -1 -9q0 -34 19 -53t53 -19q31 0 48.5 19t17.5 50q0 70 -100 70h-107l17 219h253v-73h-178z" />
    <glyph glyph-name="uni2086" unicode="&#x2086;" horiz-adv-x="343" 
d="M189 123q58 0 98.5 -40t40.5 -102q0 -63 -46.5 -106t-111.5 -43t-110 44.5t-45 106.5q0 55 38 105l134 176h100l-110 -141h12zM247 -17q1 35 -20.5 58t-57.5 23q-34 0 -54.5 -22t-22.5 -57q-1 -33 20 -56t56 -23q34 0 56 22.5t23 54.5z" />
    <glyph glyph-name="uni2087" unicode="&#x2087;" horiz-adv-x="315" 
d="M9 191v73h300v-73l-194 -351h-95l199 351h-210z" />
    <glyph glyph-name="uni2088" unicode="&#x2088;" horiz-adv-x="360" 
d="M180 -168q-67 0 -110 36t-43 96q0 74 66 108q-49 31 -49 86q0 50 38.5 82.5t97.5 32.5t97.5 -32.5t38.5 -82.5q0 -55 -48 -86q66 -35 66 -108q0 -59 -43.5 -95.5t-110.5 -36.5zM180 96q25 0 42.5 17t17.5 42q0 24 -17.5 40.5t-42.5 16.5t-42.5 -16.5t-17.5 -40.5
q0 -26 17.5 -42.5t42.5 -16.5zM180 -94q30 0 50 19t20 49t-19.5 48t-50.5 18q-30 0 -50 -18t-20 -48t20 -49t50 -19z" />
    <glyph glyph-name="uni2089" unicode="&#x2089;" horiz-adv-x="343" 
d="M173 273q65 0 110 -44.5t45 -106.5q0 -56 -38 -106l-134 -176h-100l110 142q-4 -1 -12 -1q-58 0 -98.5 40t-40.5 102t47 106t111 44zM251 119q1 33 -20 56.5t-56 23.5q-34 0 -56 -23t-23 -55q-1 -34 20.5 -57t57.5 -23q34 0 54.5 22t22.5 56z" />
    <glyph glyph-name="Euro" unicode="&#x20ac;" horiz-adv-x="770" 
d="M445 120q102 0 148 92l123 -75q-43 -68 -113 -107.5t-158 -39.5q-117 0 -201 67t-111 189h-70v73h60q-1 12 -1 36q0 23 1 34h-60v74h70q27 121 111 187.5t201 66.5q89 0 158.5 -38.5t112.5 -106.5l-123 -75q-45 92 -148 92q-127 0 -166 -126h200v-74h-213q-1 -11 -1 -34
q0 -25 1 -36h213v-73h-200q39 -126 166 -126z" />
    <glyph glyph-name="uni2113" unicode="&#x2113;" horiz-adv-x="581" 
d="M321 -10q-175 0 -188 162l-56 -38l-36 67l89 64v235q0 118 50 177.5t137 59.5q75 0 114 -44t39 -117q0 -162 -210 -332v-29q0 -44 25.5 -70t67.5 -26q73 0 131 80l55 -59q-77 -130 -218 -130zM261 495v-156q59 54 89 114.5t30 106.5q0 31 -13.5 49.5t-37.5 18.5
q-69 0 -68 -133z" />
    <glyph glyph-name="uni2116" unicode="&#x2116;" horiz-adv-x="1389" 
d="M1064 193q-116 0 -189 73t-73 190q0 116 72.5 188.5t189.5 72.5q116 0 188.5 -72.5t72.5 -188.5q0 -117 -72.5 -190t-188.5 -73zM274 707l318 -504v504h145v-707h-174l-316 507v-507h-145v707h172zM1062 601q-56 0 -88 -39t-32 -106q0 -68 32.5 -107t87.5 -39q57 0 90 39
t33 107q0 67 -33 106t-90 39zM1289 27h-451v89h451v-89z" />
    <glyph glyph-name="trademark" unicode="&#x2122;" horiz-adv-x="707" 
d="M170 359h-74v283h-85v65h242v-65h-83v-283zM350 359h-76l30 348h108l73 -207l75 207h106l29 -348h-74l-23 259l-88 -259h-49l-88 260z" />
    <glyph glyph-name="estimated" unicode="&#x212e;" horiz-adv-x="960" 
d="M485 -9q-177 0 -302 112.5t-125 270.5q0 160 125 273t302 113q178 0 303 -113t125 -273v-10h-692q-6 0 -6 -4v-210q0 -11 9 -24q111 -114 262 -114q81 0 153 34t123 94h61q-58 -69 -147 -109t-191 -40zM221 385h531q4 0 4 7v210q0 16 -10 25q-112 110 -260 110t-261 -113
q-10 -12 -10 -26v-206q0 -7 6 -7z" />
    <glyph glyph-name="oneeighth" unicode="&#x215b;" horiz-adv-x="812" 
d="M191 283h-83v327l-98 -79v94l101 82h80v-424zM108 0l399 707h85l-399 -707h-85zM720 232q66 -35 66 -108q0 -59 -43 -95.5t-110 -36.5q-68 0 -111 36t-43 96q0 73 66 108q-49 31 -49 86q0 50 38.5 82.5t98.5 32.5q59 0 97 -32.5t38 -82.5q0 -55 -48 -86zM633 372
q-26 0 -43 -16t-17 -41q0 -26 17 -42.5t43 -16.5q25 0 42.5 17t17.5 42q0 24 -17.5 40.5t-42.5 16.5zM633 66q30 0 50 19t20 49t-20 48t-50 18q-31 0 -51 -18t-20 -48t20 -49t51 -19z" />
    <glyph glyph-name="threeeighths" unicode="&#x215c;" horiz-adv-x="919" 
d="M178 275q-76 0 -116.5 39.5t-40.5 112.5h85q2 -78 71 -78q31 0 48.5 18t17.5 46q0 35 -21.5 48.5t-47.5 13.5h-14v64h12q26 0 41.5 15t15.5 40q0 22 -15 35t-38 13q-28 0 -44 -18.5t-16 -50.5v-4l-84 9q0 65 38.5 101t103.5 36q58 0 95.5 -33t37.5 -81q0 -32 -17 -55.5
t-39 -32.5q33 -9 55 -35t22 -70q0 -60 -41 -96.5t-109 -36.5zM299 0h-85l399 707h85zM740 -8q-68 0 -111 36t-43 96q0 73 66 108q-49 31 -49 86q0 50 38.5 82.5t98.5 32.5q59 0 97 -32.5t38 -82.5q0 -55 -48 -86q66 -35 66 -108q0 -59 -43 -95.5t-110 -36.5zM740 256
q25 0 42.5 17t17.5 42q0 24 -17.5 40.5t-42.5 16.5q-26 0 -43 -16t-17 -41q0 -26 17 -42.5t43 -16.5zM740 66q30 0 50 19t20 49t-20 48t-50 18q-31 0 -51 -18t-20 -48t20 -49t51 -19z" />
    <glyph glyph-name="fiveeighths" unicode="&#x215d;" horiz-adv-x="928" 
d="M337 423q0 -68 -41.5 -108t-110.5 -40t-110.5 37.5t-41.5 101.5q0 2 0.5 8t0.5 8h82q-1 -3 -1 -9q0 -34 19 -53t53 -19q31 0 48.5 19t17.5 49q0 42 -27.5 56.5t-72.5 14.5h-107l17 219h253v-74h-178l-5 -77h48q156 0 156 -133zM223 0l399 707h85l-399 -707h-85zM836 232
q66 -35 66 -108q0 -59 -43 -95.5t-110 -36.5q-68 0 -111 36t-43 96q0 73 66 108q-49 31 -49 86q0 50 38.5 82.5t98.5 32.5q59 0 97 -32.5t38 -82.5q0 -55 -48 -86zM749 372q-26 0 -43 -16t-17 -41q0 -26 17 -42.5t43 -16.5q25 0 42.5 17t17.5 42q0 24 -17.5 40.5t-42.5 16.5
zM749 66q30 0 50 19t20 49t-20 48t-50 18q-31 0 -51 -18t-20 -48t20 -49t51 -19z" />
    <glyph glyph-name="seveneighths" unicode="&#x215e;" horiz-adv-x="829" 
d="M9 707h300v-74l-194 -350h-95l199 350h-210v74zM124 0l399 707h85l-399 -707h-85zM736 232q66 -35 66 -108q0 -59 -43 -95.5t-110 -36.5q-68 0 -111 36t-43 96q0 73 66 108q-49 31 -49 86q0 50 38.5 82.5t98.5 32.5q59 0 97 -32.5t38 -82.5q0 -55 -48 -86zM649 372
q-26 0 -43 -16t-17 -41q0 -26 17 -42.5t43 -16.5q25 0 42.5 17t17.5 42q0 24 -17.5 40.5t-42.5 16.5zM649 66q30 0 50 19t20 49t-20 48t-50 18q-31 0 -51 -18t-20 -48t20 -49t51 -19z" />
    <glyph glyph-name="arrowleft" unicode="&#x2190;" horiz-adv-x="740" 
d="M292 69h-112l-152 184l152 184h112l-109 -132h557v-104h-557z" />
    <glyph glyph-name="arrowup" unicode="&#x2191;" horiz-adv-x="456" 
d="M44 555l184 152l184 -152v-111l-132 108v-552h-104v552l-132 -108v111z" />
    <glyph glyph-name="arrowright" unicode="&#x2192;" horiz-adv-x="740" 
d="M712 253l-152 -184h-112l109 132h-557v104h557l-109 132h112z" />
    <glyph glyph-name="arrowdown" unicode="&#x2193;" horiz-adv-x="456" 
d="M412 152l-184 -152l-184 152v112l132 -109v552h104v-552l132 109v-112z" />
    <glyph glyph-name="arrowboth" unicode="&#x2194;" horiz-adv-x="991" 
d="M690 437h111l152 -184l-152 -184h-111l109 132h-607l109 -132h-111l-152 184l152 184h111l-109 -132h607z" />
    <glyph glyph-name="arrowupdn" unicode="&#x2195;" horiz-adv-x="456" 
d="M412 152l-184 -152l-184 152v112l132 -109v398l-132 -109v111l184 152l184 -152v-111l-132 109v-398l132 109v-112z" />
    <glyph glyph-name="uni2196" unicode="&#x2196;" horiz-adv-x="696" 
d="M195 575h457v-575h-104v471h-353l109 -132h-112l-152 184l152 184h112z" />
    <glyph glyph-name="uni2197" unicode="&#x2197;" horiz-adv-x="696" 
d="M393 707h111l152 -184l-152 -184h-111l108 132h-352v-471h-104v575h456z" />
    <glyph glyph-name="uni2198" unicode="&#x2198;" horiz-adv-x="696" 
d="M393 368h111l152 -184l-152 -184h-111l108 132h-456v575h104v-471h352z" />
    <glyph glyph-name="uni2199" unicode="&#x2199;" horiz-adv-x="696" 
d="M548 236v471h104v-575h-457l109 -132h-112l-152 184l152 184h112l-109 -132h353z" />
    <glyph glyph-name="partialdiff" unicode="&#x2202;" horiz-adv-x="664" 
d="M302 750l250 -327q57 -75 57 -170q0 -121 -76.5 -191.5t-200.5 -71.5q-123 1 -199.5 71.5t-76.5 191.5q0 118 76 188.5t198 72.5l-184 236h156zM332 99q63 0 101 42.5t38 111.5q0 67 -38.5 109.5t-100.5 42.5t-100 -42.5t-38 -109.5q0 -69 38 -111.5t100 -42.5z" />
    <glyph glyph-name="emptyset" unicode="&#x2205;" horiz-adv-x="876" 
d="M763 735l56 -56l-98 -98q81 -98 81 -226q0 -151 -107 -258.5t-257 -107.5q-128 0 -228 81l-98 -98l-56 56l98 98q-80 101 -80 229q0 150 107 256t257 106q126 0 227 -80zM190 355q0 -82 47 -146l345 345q-63 47 -144 47q-102 0 -175 -72.5t-73 -173.5zM685 355
q0 80 -47 143l-345 -345q65 -46 145 -46q102 0 174.5 72.5t72.5 175.5z" />
    <glyph glyph-name="product" unicode="&#x220f;" horiz-adv-x="803" 
d="M261 0h-136v573h-78v134h710v-134h-78v-573h-135v573h-283v-573z" />
    <glyph glyph-name="summation" unicode="&#x2211;" horiz-adv-x="694" 
d="M68 707h566v-122h-404l294 -231l-294 -231h404v-123h-566v165l239 187l-239 190v165z" />
    <glyph glyph-name="minus" unicode="&#x2212;" horiz-adv-x="559" 
d="M505 201h-450v104h450v-104z" />
    <glyph glyph-name="radical" unicode="&#x221a;" horiz-adv-x="799" 
d="M351 165l279 585h130l-357 -750h-119l-135 388h-102v116h191z" />
    <glyph glyph-name="infinity" unicode="&#x221e;" horiz-adv-x="839" 
d="M241 83q-73 0 -119.5 48t-46.5 122q0 73 46.5 120.5t119.5 47.5q89 0 178 -92q91 92 178 92q74 0 120.5 -47.5t46.5 -120.5q0 -74 -47 -122t-120 -48q-86 0 -178 91q-91 -91 -178 -91zM240 187q48 0 109 66q-62 64 -109 64q-28 0 -44 -17.5t-16 -46.5q0 -30 16 -48
t44 -18zM598 187q29 0 45 18t16 48q0 29 -16 46.5t-45 17.5q-46 0 -108 -64q61 -66 108 -66z" />
    <glyph glyph-name="integral" unicode="&#x222b;" horiz-adv-x="442" 
d="M68 -196h-27v110h27q84 0 84 86v554q0 114 56 155t166 41h28v-110h-28q-83 0 -83 -86v-554q0 -114 -56.5 -155t-166.5 -41z" />
    <glyph glyph-name="approxequal" unicode="&#x2248;" horiz-adv-x="623" 
d="M414 271q-35 0 -68 17t-43.5 27.5t-31.5 33.5q-25 28 -51 28q-32 0 -50 -27.5t-18 -71.5h-97q0 89 44 143t122 54q74 0 131 -73q27 -36 55 -36q29 0 47.5 26.5t18.5 71.5h95q0 -85 -41 -139t-113 -54zM414 30q-35 0 -68 17t-43.5 27.5t-31.5 33.5q-14 16 -24.5 22.5
t-26.5 5.5q-33 -1 -50.5 -27.5t-17.5 -71.5h-97q0 90 44.5 144t121.5 54q68 0 131 -74q28 -36 55 -36q29 0 47.5 26t18.5 72h95q0 -84 -41 -138.5t-113 -54.5z" />
    <glyph glyph-name="notequal" unicode="&#x2260;" horiz-adv-x="619" 
d="M177 -92h-104l94 185h-112v104h165l58 111h-223v104h276l81 158h104l-81 -158h130v-104h-183l-58 -111h241v-104h-294z" />
    <glyph glyph-name="lessequal" unicode="&#x2264;" horiz-adv-x="491" 
d="M55 419l382 168v-112l-252 -103l252 -103v-113l-382 171v92zM437 13h-382v104h382v-104z" />
    <glyph glyph-name="greaterequal" unicode="&#x2265;" horiz-adv-x="491" 
d="M55 475v112l382 -168v-92l-382 -171v113l251 103zM437 13h-382v104h382v-104z" />
    <glyph glyph-name="lozenge" unicode="&#x25ca;" horiz-adv-x="663" 
d="M623 354l-291 -292l-292 291l292 292zM194 353l138 -137l138 138l-138 138z" />
    <glyph glyph-name="heart" unicode="&#x2665;" horiz-adv-x="742" 
d="M371 -10q-184 141 -259 235t-75 183q0 75 46 121t121 46q59 0 102 -33t59 -90h12q16 57 59 90t102 33q75 0 121 -46t46 -121q0 -89 -75 -183t-259 -235z" />
    <glyph glyph-name="uniF8FF" unicode="&#xf8ff;" horiz-adv-x="878" 
d="M439 0q-157 0 -268.5 111.5t-111.5 268.5t111.5 268.5t268.5 111.5t268.5 -111t111.5 -269q0 -157 -111.5 -268.5t-268.5 -111.5zM439 36q142 0 243 101t101 243t-100.5 243t-243.5 101q-142 0 -243 -101t-101 -243t101 -243t243 -101zM638 217q-8 0 -12 6l-145 144
q-12 14 0 26l145 145q12 12 25 0q13 -13 0 -26l-132 -132l132 -132q11 -11 0 -25q-5 -6 -13 -6zM240 217q-8 0 -13 5.5t-5 12.5v290q0 7 5 12.5t13 5.5t13 -5.5t5 -12.5v-290q0 -7 -5 -12.5t-13 -5.5zM439 217q-7 0 -12.5 5.5t-5.5 12.5v290q0 7 5.5 12.5t12.5 5.5
t12.5 -5.5t5.5 -12.5v-290q0 -7 -5.5 -12.5t-12.5 -5.5zM385 362h-91q-8 0 -13 5t-5 13t5 13t13 5h91q7 0 12.5 -5t5.5 -13t-5.5 -13t-12.5 -5z" />
    <glyph glyph-name="G.ss05" horiz-adv-x="785" 
d="M401 -14q-163 0 -263.5 101.5t-100.5 264.5q0 164 101 266.5t261 102.5q103 0 184.5 -45.5t128.5 -124.5l-127 -68q-56 110 -186 110q-97 0 -157.5 -64t-60.5 -173t61.5 -175.5t170.5 -66.5q75 0 130.5 40.5t64.5 116.5h-203v115h343v-68q-1 -84 -30.5 -149t-78.5 -104
t-109.5 -59t-128.5 -20z" />
    <glyph glyph-name="Gbreve.ss05" horiz-adv-x="785" 
d="M397 740q-85 0 -130 29.5t-47 103.5h87q3 -34 24.5 -49t65.5 -15q45 0 67 15t25 49h87q-3 -74 -48.5 -103.5t-130.5 -29.5zM401 -14q-163 0 -263.5 101.5t-100.5 264.5q0 164 101 266.5t261 102.5q103 0 184.5 -45.5t128.5 -124.5l-127 -68q-56 110 -186 110
q-97 0 -157.5 -64t-60.5 -173t61.5 -175.5t170.5 -66.5q75 0 130.5 40.5t64.5 116.5h-203v115h343v-68q-1 -84 -30.5 -149t-78.5 -104t-109.5 -59t-128.5 -20z" />
    <glyph glyph-name="Gdotaccent.ss05" horiz-adv-x="785" 
d="M400 746q-34 0 -57.5 23.5t-23.5 57.5q0 33 23.5 56t57.5 23q32 0 55.5 -23t23.5 -56q0 -34 -23.5 -57.5t-55.5 -23.5zM401 -14q-163 0 -263.5 101.5t-100.5 264.5q0 164 101 266.5t261 102.5q103 0 184.5 -45.5t128.5 -124.5l-127 -68q-56 110 -186 110
q-97 0 -157.5 -64t-60.5 -173t61.5 -175.5t170.5 -66.5q75 0 130.5 40.5t64.5 116.5h-203v115h343v-68q-1 -84 -30.5 -149t-78.5 -104t-109.5 -59t-128.5 -20z" />
    <glyph glyph-name="IJacute" horiz-adv-x="746" 
d="M200 737h-121l83 136h147zM672 737h-121l83 136h147zM212 0h-144v707h144v-707zM474 -14q-96 0 -188 53l61 118q55 -37 108 -37q42 0 62.5 27t20.5 87v473h145v-500q0 -104 -57.5 -162.5t-151.5 -58.5z" />
    <glyph glyph-name="M.ss03" horiz-adv-x="898" 
d="M448 259l151 448h232v-707h-145v572l-188 -572h-98l-188 575v-575h-144v707h231z" />
    <glyph glyph-name="Q.ss04" horiz-adv-x="798" 
d="M761 354q0 -156 -93 -257l81 -97l-126 -48l-61 68q-74 -34 -163 -34q-159 0 -260.5 102.5t-101.5 265.5q0 164 101 265.5t261 101.5t261 -101.5t101 -265.5zM181 354q0 -105 61 -170.5t157 -65.5q44 0 81 14l-119 133l128 44l86 -102q43 62 43 147q0 105 -61.5 170
t-157.5 65t-157 -65t-61 -170z" />
    <glyph glyph-name="a.ss02" horiz-adv-x="642" 
d="M442 442v62h138v-504h-138v61q-46 -71 -159 -71q-105 0 -175 70.5t-70 190.5t70.5 191.5t174.5 71.5q52 0 94.5 -19t64.5 -53zM313 105q59 0 97 39.5t38 106.5q0 68 -38 108.5t-97 40.5q-60 0 -98 -40.5t-38 -108.5t38 -107t98 -39z" />
    <glyph glyph-name="aacute.ss02" horiz-adv-x="642" 
d="M348 707h147l-114 -142h-121zM442 442v62h138v-504h-138v61q-46 -71 -159 -71q-105 0 -175 70.5t-70 190.5t70.5 191.5t174.5 71.5q52 0 94.5 -19t64.5 -53zM313 105q59 0 97 39.5t38 106.5q0 68 -38 108.5t-97 40.5q-60 0 -98 -40.5t-38 -108.5t38 -107t98 -39z" />
    <glyph glyph-name="abreve.ss02" horiz-adv-x="642" 
d="M322 555q-178 0 -178 152h98q0 -38 20.5 -59t59.5 -21q81 0 81 80h99q0 -152 -180 -152zM442 442v62h138v-504h-138v61q-46 -71 -159 -71q-105 0 -175 70.5t-70 190.5t70.5 191.5t174.5 71.5q52 0 94.5 -19t64.5 -53zM313 105q59 0 97 39.5t38 106.5q0 68 -38 108.5
t-97 40.5q-60 0 -98 -40.5t-38 -108.5t38 -107t98 -39z" />
    <glyph glyph-name="acircumflex.ss02" horiz-adv-x="642" 
d="M383 565l-60 78l-61 -78h-113l96 142h156l96 -142h-114zM442 442v62h138v-504h-138v61q-46 -71 -159 -71q-105 0 -175 70.5t-70 190.5t70.5 191.5t174.5 71.5q52 0 94.5 -19t64.5 -53zM313 105q59 0 97 39.5t38 106.5q0 68 -38 108.5t-97 40.5q-60 0 -98 -40.5
t-38 -108.5t38 -107t98 -39z" />
    <glyph glyph-name="acutecomb.case" 
d="M-177 737h-121l83 136h147z" />
    <glyph glyph-name="adieresis.ss02" horiz-adv-x="642" 
d="M220 582q-34 0 -57.5 23t-23.5 57q0 33 23.5 56t57.5 23q32 0 55.5 -23t23.5 -56q0 -34 -23.5 -57t-55.5 -23zM426 582q-33 0 -57 23.5t-24 56.5t24 56t57 23t56.5 -23t23.5 -56t-23.5 -56.5t-56.5 -23.5zM442 442v62h138v-504h-138v61q-46 -71 -159 -71
q-105 0 -175 70.5t-70 190.5t70.5 191.5t174.5 71.5q52 0 94.5 -19t64.5 -53zM313 105q59 0 97 39.5t38 106.5q0 68 -38 108.5t-97 40.5q-60 0 -98 -40.5t-38 -108.5t38 -107t98 -39z" />
    <glyph glyph-name="agrave.ss02" horiz-adv-x="642" 
d="M297 707l88 -142h-121l-114 142h147zM442 442v62h138v-504h-138v61q-46 -71 -159 -71q-105 0 -175 70.5t-70 190.5t70.5 191.5t174.5 71.5q52 0 94.5 -19t64.5 -53zM313 105q59 0 97 39.5t38 106.5q0 68 -38 108.5t-97 40.5q-60 0 -98 -40.5t-38 -108.5t38 -107t98 -39z
" />
    <glyph glyph-name="amacron.ss02" horiz-adv-x="642" 
d="M185 677h275v-89h-275v89zM442 442v62h138v-504h-138v61q-46 -71 -159 -71q-105 0 -175 70.5t-70 190.5t70.5 191.5t174.5 71.5q52 0 94.5 -19t64.5 -53zM313 105q59 0 97 39.5t38 106.5q0 68 -38 108.5t-97 40.5q-60 0 -98 -40.5t-38 -108.5t38 -107t98 -39z" />
    <glyph glyph-name="aogonek.ss02" horiz-adv-x="642" 
d="M580 504v-504q-37 -26 -59.5 -54.5t-22.5 -50.5q0 -27 39 -27q25 0 43 15v-86q-34 -13 -74 -13q-43 0 -70.5 17t-27.5 51q0 61 110 148h-76v61q-46 -71 -159 -71q-105 0 -175 70.5t-70 190.5t70.5 191.5t174.5 71.5q52 0 94.5 -19t64.5 -53v62h138zM313 105q59 0 97 39.5
t38 106.5q0 68 -38 108.5t-97 40.5q-60 0 -98 -40.5t-38 -108.5t38 -107t98 -39z" />
    <glyph glyph-name="aring.ss02" horiz-adv-x="642" 
d="M323 558q-56 0 -90 35t-34 86q0 50 34.5 85t89.5 35t88.5 -35t33.5 -85q0 -51 -34 -86t-88 -35zM323 733q-24 0 -39 -15t-15 -39q0 -23 15.5 -38.5t38.5 -15.5t38.5 15.5t15.5 38.5q0 24 -15.5 39t-38.5 15zM442 442v62h138v-504h-138v61q-46 -71 -159 -71
q-105 0 -175 70.5t-70 190.5t70.5 191.5t174.5 71.5q52 0 94.5 -19t64.5 -53zM313 105q59 0 97 39.5t38 106.5q0 68 -38 108.5t-97 40.5q-60 0 -98 -40.5t-38 -108.5t38 -107t98 -39z" />
    <glyph glyph-name="aringacute.ss02" horiz-adv-x="642" 
d="M323 558q-56 0 -90 35t-34 86q0 50 34.5 85t89.5 35q12 0 18 -1l50 81h147l-110 -137q17 -28 17 -63q0 -51 -34 -86t-88 -35zM323 733q-24 0 -39 -15t-15 -39q0 -23 15.5 -38.5t38.5 -15.5t38.5 15.5t15.5 38.5q0 24 -15.5 39t-38.5 15zM442 442v62h138v-504h-138v61
q-46 -71 -159 -71q-105 0 -175 70.5t-70 190.5t70.5 191.5t174.5 71.5q52 0 94.5 -19t64.5 -53zM313 105q59 0 97 39.5t38 106.5q0 68 -38 108.5t-97 40.5q-60 0 -98 -40.5t-38 -108.5t38 -107t98 -39z" />
    <glyph glyph-name="atilde.ss02" horiz-adv-x="642" 
d="M254 630q-32 0 -32 -65h-67q0 62 28.5 101t77.5 39q47 0 87 -44q21 -28 43 -28q30 0 30 65h68q0 -61 -28.5 -100.5t-78.5 -39.5t-85 44q-24 28 -43 28zM442 442v62h138v-504h-138v61q-46 -71 -159 -71q-105 0 -175 70.5t-70 190.5t70.5 191.5t174.5 71.5q52 0 94.5 -19
t64.5 -53zM313 105q59 0 97 39.5t38 106.5q0 68 -38 108.5t-97 40.5q-60 0 -98 -40.5t-38 -108.5t38 -107t98 -39z" />
    <glyph glyph-name="braceleft.case" horiz-adv-x="346" 
d="M319 -192h-62q-73 0 -115.5 39.5t-42.5 99.5v239q0 68 -13.5 90t-59.5 34v88q46 12 59.5 33.5t13.5 89.5v239q0 60 42.5 99.5t115.5 39.5h62v-100h-36q-23 0 -38 -14.5t-15 -41.5v-218q0 -70 -18 -111t-69 -60q51 -20 69 -61t18 -111v-218q0 -27 15 -41.5t38 -14.5h36
v-100z" />
    <glyph glyph-name="braceright.case" horiz-adv-x="346" 
d="M89 -192h-62v100h36q24 0 39 14.5t15 41.5v218q0 70 17.5 111t68.5 61q-50 19 -68 60t-18 111v218q0 27 -15 41.5t-39 14.5h-36v100h62q73 0 115.5 -39.5t42.5 -99.5v-239q0 -68 13.5 -89.5t59.5 -33.5v-88q-46 -12 -59.5 -34t-13.5 -90v-239q0 -60 -42.5 -99.5
t-115.5 -39.5z" />
    <glyph glyph-name="bracketleft.case" horiz-adv-x="341" 
d="M317 -192h-256v1091h256v-98h-134v-895h134v-98z" />
    <glyph glyph-name="bracketright.case" horiz-adv-x="341" 
d="M280 899v-1091h-256v98h134v895h-134v98h256z" />
    <glyph glyph-name="eight.dnom" horiz-adv-x="359" 
d="M180 -8q-68 0 -111 36t-43 96q0 73 66 108q-49 31 -49 86q0 50 38.5 82.5t98.5 32.5q59 0 97 -32.5t38 -82.5q0 -55 -48 -86q66 -35 66 -108q0 -59 -43 -95.5t-110 -36.5zM180 256q25 0 42.5 17t17.5 42q0 24 -17.5 40.5t-42.5 16.5q-26 0 -43 -16t-17 -41
q0 -26 17 -42.5t43 -16.5zM180 66q30 0 50 19t20 49t-20 48t-50 18q-31 0 -51 -18t-20 -48t20 -49t51 -19z" />
    <glyph glyph-name="eight.lf" horiz-adv-x="597" 
d="M299 -14q-112 0 -184 60.5t-72 159.5q0 61 29 107.5t81 73.5q-81 50 -81 143q0 84 63.5 137.5t163.5 53.5q98 0 162 -54t64 -137q0 -91 -80 -143q109 -57 109 -181q0 -99 -71.5 -159.5t-183.5 -60.5zM299 426q42 0 71 28.5t29 70.5q0 41 -29 67.5t-71 26.5
q-43 0 -71.5 -26.5t-28.5 -67.5q0 -43 29 -71t71 -28zM299 110q51 0 84 31.5t33 81.5t-33 80.5t-84 30.5q-52 0 -84.5 -30.5t-32.5 -80.5t33 -81.5t84 -31.5z" />
    <glyph glyph-name="eight.numr" horiz-adv-x="359" 
d="M180 275q-68 0 -111 36t-43 96q0 73 66 108q-49 31 -49 86q0 50 38.5 82t98.5 32q59 0 97 -32t38 -82q0 -55 -48 -86q66 -35 66 -108q0 -59 -43 -95.5t-110 -36.5zM180 539q25 0 42.5 16.5t17.5 42.5q0 24 -17.5 40t-42.5 16q-26 0 -43 -15.5t-17 -40.5q0 -26 17 -42.5
t43 -16.5zM180 349q30 0 50 18.5t20 48.5t-19.5 48.5t-50.5 18.5t-51 -18.5t-20 -48.5t20 -48.5t51 -18.5z" />
    <glyph glyph-name="exclamdown.case" horiz-adv-x="272" 
d="M135 717q34 0 57.5 -23t23.5 -56q0 -34 -23.5 -57.5t-57.5 -23.5q-32 0 -55.5 23.5t-23.5 57.5q0 33 23.5 56t55.5 23zM65 0l15 480h110l15 -480h-140z" />
    <glyph glyph-name="f_j" horiz-adv-x="653" 
d="M370 504v-106h-111v-398h-139v398h-101v106h101v50q0 105 66.5 155.5t176.5 50.5q88 0 145 -39.5t79 -110.5l-134 -35q-11 40 -33.5 57t-63.5 17q-97 0 -97 -95v-50h111zM453 9v495h139v-495q0 -130 -57.5 -191t-190.5 -61v107q66 0 87.5 31.5t21.5 113.5z" />
    <glyph glyph-name="f_t" horiz-adv-x="726" 
d="M259 0h-139v398h-101v106h101v50q0 114 56.5 155t166.5 41h27v-110h-27q-84 0 -84 -86v-50h121q83 0 83 75v87h116v-162h109v-106h-109v-224q0 -69 64 -69h43v-105h-91q-74 0 -114.5 41.5t-40.5 117.5v239h-181v-398z" />
    <glyph glyph-name="five.dnom" horiz-adv-x="361" 
d="M133 273h48q156 0 156 -133q0 -67 -41.5 -107.5t-110.5 -40.5t-110.5 37.5t-41.5 101.5q0 3 0.5 8t0.5 8h82q-1 -3 -1 -9q0 -34 19 -53t53 -19q31 0 48.5 19t17.5 50q0 70 -100 70h-107l17 219h253v-73h-178z" />
    <glyph glyph-name="five.lf" horiz-adv-x="596" 
d="M214 456h81q259 0 259 -222q0 -113 -68.5 -180.5t-183.5 -67.5t-184 63t-69 169q0 19 1 28h135v-16q0 -56 31 -88t88 -32q53 0 82 32t29 83q0 36 -14 61t-40 36.5t-52 15.5t-60 4h-179l28 365h422v-122h-296z" />
    <glyph glyph-name="five.numr" horiz-adv-x="361" 
d="M133 556h48q156 0 156 -133q0 -68 -41.5 -108t-110.5 -40t-110.5 37.5t-41.5 101.5q0 2 0.5 8t0.5 8h82q-1 -3 -1 -9q0 -34 19 -53t53 -19q31 0 48.5 19t17.5 49q0 42 -27.5 56.5t-72.5 14.5h-107l17 219h253v-74h-178z" />
    <glyph glyph-name="four.dnom" horiz-adv-x="359" 
d="M292 158h45v-74h-45v-84h-83v84h-199v74l155 266h127v-266zM209 370l-121 -212h121v212z" />
    <glyph glyph-name="four.lf" horiz-adv-x="607" 
d="M501 263h75v-123h-75v-140h-139v140h-331v124l259 443h211v-444zM362 616l-201 -353h201v353z" />
    <glyph glyph-name="four.numr" horiz-adv-x="359" 
d="M292 440h45v-73h-45v-84h-83v84h-199v74l155 266h127v-267zM209 652l-121 -212h121v212z" />
    <glyph glyph-name="g.ss01" horiz-adv-x="593" 
d="M358 504h198v-106h-66q16 -37 16 -78q0 -85 -60 -128t-153 -43q-57 0 -100 15q-13 -19 -13 -36q0 -29 34.5 -39.5t117.5 -19.5h3q48 -5 81.5 -12.5t68 -23t52 -44t17.5 -69.5q0 -85 -70.5 -127.5t-188.5 -42.5q-127 0 -196.5 39t-69.5 100q0 64 70 123q-39 31 -39 86
q0 68 53 113q-48 45 -48 118q0 85 63.5 135t154.5 50q42 0 75 -10zM288 246q43 0 67 23t24 60q0 38 -24.5 62t-66.5 24t-66.5 -24t-24.5 -62q0 -36 24.5 -59.5t66.5 -23.5zM416 -100q0 12 -4.5 21t-16 15.5t-21.5 10.5t-32 7.5t-35 5t-42 4.5q-35 3 -69 9q-29 -30 -29 -58
q0 -32 35.5 -52.5t92.5 -20.5q121 0 121 58z" />
    <glyph glyph-name="gbreve.ss01" horiz-adv-x="593" 
d="M294 555q-178 0 -178 152h98q0 -38 20.5 -59t59.5 -21q81 0 81 80h99q0 -152 -180 -152zM358 504h198v-106h-66q16 -37 16 -78q0 -85 -60 -128t-153 -43q-57 0 -100 15q-13 -19 -13 -36q0 -29 34.5 -39.5t117.5 -19.5h3q48 -5 81.5 -12.5t68 -23t52 -44t17.5 -69.5
q0 -85 -70.5 -127.5t-188.5 -42.5q-127 0 -196.5 39t-69.5 100q0 64 70 123q-39 31 -39 86q0 68 53 113q-48 45 -48 118q0 85 63.5 135t154.5 50q42 0 75 -10zM288 246q43 0 67 23t24 60q0 38 -24.5 62t-66.5 24t-66.5 -24t-24.5 -62q0 -36 24.5 -59.5t66.5 -23.5zM416 -100
q0 12 -4.5 21t-16 15.5t-21.5 10.5t-32 7.5t-35 5t-42 4.5q-35 3 -69 9q-29 -30 -29 -58q0 -32 35.5 -52.5t92.5 -20.5q121 0 121 58z" />
    <glyph glyph-name="gdotaccent.ss01" horiz-adv-x="593" 
d="M295 582q-34 0 -57.5 23t-23.5 57q0 33 23.5 56t57.5 23q32 0 55.5 -23t23.5 -56q0 -34 -23 -57t-56 -23zM358 504h198v-106h-66q16 -37 16 -78q0 -85 -60 -128t-153 -43q-57 0 -100 15q-13 -19 -13 -36q0 -29 34.5 -39.5t117.5 -19.5h3q48 -5 81.5 -12.5t68 -23t52 -44
t17.5 -69.5q0 -85 -70.5 -127.5t-188.5 -42.5q-127 0 -196.5 39t-69.5 100q0 64 70 123q-39 31 -39 86q0 68 53 113q-48 45 -48 118q0 85 63.5 135t154.5 50q42 0 75 -10zM288 246q43 0 67 23t24 60q0 38 -24.5 62t-66.5 24t-66.5 -24t-24.5 -62q0 -36 24.5 -59.5
t66.5 -23.5zM416 -100q0 12 -4.5 21t-16 15.5t-21.5 10.5t-32 7.5t-35 5t-42 4.5q-35 3 -69 9q-29 -30 -29 -58q0 -32 35.5 -52.5t92.5 -20.5q121 0 121 58z" />
    <glyph glyph-name="gravecomb.case" 
d="M-68 737h-121l-109 136h146z" />
    <glyph glyph-name="hookabovecomb.case" 
d="M-149 737h-84v66q79 10 79 45q0 32 -44 32q-30 0 -57 -20l-35 48q52 30 103 30q57 0 88 -22.5t31 -61.5q0 -57 -81 -76v-41z" />
    <glyph glyph-name="i.loclTRK" horiz-adv-x="259" 
d="M131 582q-34 0 -57.5 23t-23.5 57q0 33 23.5 56t57.5 23q32 0 55.5 -23t23.5 -56q0 -34 -23 -57t-56 -23zM199 0h-139v504h139v-504z" />
    <glyph glyph-name="ijacute" horiz-adv-x="516" 
d="M188 565h-121l88 142h147zM444 565h-121l88 142h147zM199 0h-139v504h139v-504zM205 -243v107q67 0 89 32t22 113v495h138v-495q0 -130 -58 -191t-191 -61z" />
    <glyph glyph-name="less_three" horiz-adv-x="742" 
d="M371 -10q-184 141 -259 235t-75 183q0 75 46 121t121 46q59 0 102 -33t59 -90h12q16 57 59 90t102 33q75 0 121 -46t46 -121q0 -89 -75 -183t-259 -235z" />
    <glyph glyph-name="nine.dnom" horiz-adv-x="343" 
d="M173 433q65 0 110 -44.5t45 -106.5q0 -56 -38 -106l-134 -176h-100l110 142q-4 -1 -12 -1q-58 0 -98.5 40t-40.5 102t47 106t111 44zM251 279q1 33 -20 56.5t-56 23.5q-34 0 -56 -23t-23 -55q-1 -34 20.5 -57t57.5 -23q34 0 54.5 22t22.5 56z" />
    <glyph glyph-name="nine.lf" horiz-adv-x="594" 
d="M299 721q109 0 184 -74t75 -178q0 -89 -64 -175l-224 -294h-166l184 236q-7 -1 -21 -1q-97 0 -164.5 66.5t-67.5 170.5t78 176.5t186 72.5zM428 465q2 55 -32.5 94t-93.5 39q-56 0 -93 -38t-39 -91q-1 -57 35 -95.5t95 -38.5q57 0 91.5 36.5t36.5 93.5z" />
    <glyph glyph-name="nine.numr" horiz-adv-x="343" 
d="M173 715q66 0 110.5 -44t44.5 -107q0 -55 -38 -105l-134 -176h-100l110 142q-4 -1 -12 -1q-58 0 -98.5 40t-40.5 102t47 105.5t111 43.5zM251 562q1 33 -20 56t-56 23q-34 0 -56 -22.5t-23 -54.5q-1 -35 20.5 -58t57.5 -23q34 0 54.5 22t22.5 57z" />
    <glyph glyph-name="one.dnom" horiz-adv-x="246" 
d="M10 342l101 82h80v-424h-83v328l-98 -80v94z" />
    <glyph glyph-name="one.lf" horiz-adv-x="415" 
d="M31 571l168 136h134v-707h-138v547l-164 -133v157z" />
    <glyph glyph-name="one.numr" horiz-adv-x="246" 
d="M10 625l101 82h80v-424h-83v327l-98 -79v94z" />
    <glyph glyph-name="parenleft.case" horiz-adv-x="354" 
d="M336 -192h-133q-75 92 -116 234.5t-41 311.5t41 311t116 234h133q-80 -84 -124 -227t-44 -318t44 -318.5t124 -227.5z" />
    <glyph glyph-name="parenright.case" horiz-adv-x="354" 
d="M151 -192h-133q80 84 124 227.5t44 318.5t-44 318t-124 227h133q75 -92 116 -234t41 -311t-41 -311.5t-116 -234.5z" />
    <glyph glyph-name="play" horiz-adv-x="823" 
d="M411 -10q-150 0 -256.5 107t-106.5 257t106.5 256.5t256.5 106.5t257 -106.5t107 -256.5t-107 -257t-257 -107zM411 63q121 0 206 84.5t85 206.5t-85 206.5t-206 84.5t-206 -84.5t-85 -206.5t85 -206.5t206 -84.5zM615 354l-291 -199v398z" />
    <glyph glyph-name="questiondown.case" horiz-adv-x="532" 
d="M270 717q33 0 56.5 -23t23.5 -56q0 -34 -23.5 -57t-56.5 -23q-32 0 -55.5 23t-23.5 57q0 33 23 56t56 23zM216 487h110v-42q0 -46 -19.5 -71.5t-59.5 -49.5q-26 -16 -39.5 -26.5t-27 -35.5t-13.5 -58q0 -49 29 -76t77 -27q50 0 79 29t29 75q0 16 -3 31l123 -7
q2 -18 2 -32q0 -93 -64 -152t-166 -59q-106 0 -171.5 56.5t-65.5 151.5q0 24 4 45.5t9 37t16 32t17.5 25t22 21t20.5 16.5t22 15t19 12q26 17 38 32.5t12 37.5v19z" />
    <glyph glyph-name="seven.dnom" horiz-adv-x="315" 
d="M9 351v73h300v-73l-194 -351h-95l199 351h-210z" />
    <glyph glyph-name="seven.lf" horiz-adv-x="556" 
d="M29 585v122h499v-122l-323 -585h-159l332 585h-349z" />
    <glyph glyph-name="seven.numr" horiz-adv-x="315" 
d="M9 633v74h300v-74l-194 -350h-95l199 350h-210z" />
    <glyph glyph-name="six.dnom" horiz-adv-x="343" 
d="M189 283q58 0 98.5 -40t40.5 -102q0 -63 -46.5 -106t-111.5 -43t-110 44.5t-45 106.5q0 55 38 105l134 176h100l-110 -141h12zM247 143q1 35 -20.5 58t-57.5 23q-34 0 -54.5 -22t-22.5 -56q-1 -33 20 -56.5t56 -23.5q34 0 56 22.5t23 54.5z" />
    <glyph glyph-name="six.lf" horiz-adv-x="593" 
d="M326 472q97 0 165 -66.5t68 -169.5q0 -105 -78 -177.5t-186 -72.5q-110 0 -184.5 74t-74.5 178q0 92 64 175l224 294h165l-184 -236q7 1 21 1zM423 239q2 57 -34 95.5t-96 38.5q-56 0 -91 -37t-37 -93q-2 -55 33 -94t93 -39q57 0 94 37.5t38 91.5z" />
    <glyph glyph-name="six.numr" horiz-adv-x="343" 
d="M189 566q58 0 98.5 -40t40.5 -102q0 -63 -46.5 -106t-111.5 -43q-66 0 -110.5 44t-44.5 107q0 55 38 105l134 176h100l-110 -142q4 1 12 1zM247 426q1 34 -20.5 57t-57.5 23q-34 0 -54.5 -22t-22.5 -56q-1 -33 20 -56t56 -23q34 0 56 22.5t23 54.5z" />
    <glyph glyph-name="t_t" horiz-adv-x="749" 
d="M363 0h-90q-74 0 -114.5 41.5t-40.5 117.5v239h-99v106h47q67 0 67 60v87h124v-147h155q67 0 67 60v87h123v-147h109v-106h-109v-224q0 -69 65 -69h42v-105h-90q-74 0 -114.5 41.5t-40.5 117.5v239h-207v-224q0 -69 64 -69h42v-105z" />
    <glyph glyph-name="three.dnom" horiz-adv-x="352" 
d="M178 -8q-76 0 -116.5 39.5t-40.5 112.5h85q2 -78 71 -78q31 0 48.5 18t17.5 46q0 35 -21.5 48.5t-47.5 13.5h-14v64h12q26 0 41.5 15t15.5 40q0 22 -15 35t-38 13q-28 0 -44 -18.5t-16 -49.5v-4l-84 8q0 65 38.5 101.5t103.5 36.5q58 0 95.5 -33.5t37.5 -80.5
q0 -33 -17 -56.5t-39 -32.5q33 -9 55 -35t22 -70q0 -60 -41 -96.5t-109 -36.5z" />
    <glyph glyph-name="three.lf" horiz-adv-x="590" 
d="M300 -14q-126 0 -194 66t-68 189h142q2 -131 117 -131q53 0 82.5 29.5t29.5 77.5q0 57 -36.5 80.5t-80.5 23.5h-23v106h21q42 0 68.5 25.5t26.5 65.5q0 37 -24.5 59t-64.5 22q-46 0 -73 -31t-27 -84v-6l-140 14q0 107 64 168t172 61q97 0 159.5 -55t62.5 -135
q0 -55 -28 -93.5t-65 -53.5q54 -14 91 -57.5t37 -117.5q0 -100 -68 -161.5t-181 -61.5z" />
    <glyph glyph-name="three.numr" horiz-adv-x="352" 
d="M178 275q-76 0 -116.5 39.5t-40.5 112.5h85q2 -78 71 -78q31 0 48.5 18t17.5 46q0 35 -21.5 48.5t-47.5 13.5h-14v64h12q26 0 41.5 15t15.5 40q0 22 -15 35t-38 13q-28 0 -44 -18.5t-16 -50.5v-4l-84 9q0 65 38.5 101t103.5 36q58 0 95.5 -33t37.5 -81q0 -32 -17 -55.5
t-39 -32.5q33 -9 55 -35t22 -70q0 -60 -41 -96.5t-109 -36.5z" />
    <glyph glyph-name="tildecomb.case" 
d="M-174 737q-49 0 -85 45q-23 27 -43 27q-32 0 -32 -65h-67q0 63 28.5 102t77.5 39q47 0 87 -45q22 -28 43 -28q30 0 30 66h68q0 -61 -28.5 -101t-78.5 -40z" />
    <glyph glyph-name="two.dnom" horiz-adv-x="346" 
d="M258 193l-115 -119h179v-74h-296v66l169 173q37 36 37 69q0 24 -15.5 37.5t-42.5 13.5q-67 0 -67 -71v-20l-82 8v19q0 64 39 101t107 37q64 0 103.5 -33t39.5 -89q0 -62 -56 -118z" />
    <glyph glyph-name="two.lf" horiz-adv-x="583" 
d="M434 321l-193 -198h300v-123h-495v111l283 287q62 62 62 115q0 40 -26 62.5t-71 22.5q-112 0 -112 -118v-34l-137 14v32q0 107 65 168t178 61q107 0 173.5 -55t66.5 -148q0 -55 -22 -100t-72 -97z" />
    <glyph glyph-name="two.numr" horiz-adv-x="346" 
d="M258 475l-116 -119h180v-73h-296v66l169 173q37 36 37 68q0 51 -58 51q-67 0 -67 -70v-21l-82 9v19q0 64 39 100.5t107 36.5q64 0 103.5 -33t39.5 -89q0 -61 -56 -118z" />
    <glyph glyph-name="uni004A0301" horiz-adv-x="466" 
d="M392 737h-121l83 136h147zM194 -14q-96 0 -188 53l61 118q55 -37 108 -37q42 0 62.5 27t20.5 87v473h145v-500q0 -104 -57.5 -162.5t-151.5 -58.5z" />
    <glyph glyph-name="uni006A0301" horiz-adv-x="257" 
d="M185 565h-121l88 142h147zM-54 -243v107q67 0 89 32t22 113v495h138v-495q0 -130 -58 -191t-191 -61z" />
    <glyph glyph-name="uni0122.ss05" horiz-adv-x="785" 
d="M401 -14q-163 0 -263.5 101.5t-100.5 264.5q0 164 101 266.5t261 102.5q103 0 184.5 -45.5t128.5 -124.5l-127 -68q-56 110 -186 110q-97 0 -157.5 -64t-60.5 -173t61.5 -175.5t170.5 -66.5q75 0 130.5 40.5t64.5 116.5h-203v115h343v-68q-1 -84 -30.5 -149t-78.5 -104
t-109.5 -59t-128.5 -20zM357 -173h-98l96 143h117z" />
    <glyph glyph-name="uni0123.ss01" horiz-adv-x="593" 
d="M350 707h99l-96 -142h-117zM358 504h198v-106h-66q16 -37 16 -78q0 -85 -60 -128t-153 -43q-57 0 -100 15q-13 -19 -13 -36q0 -29 34.5 -39.5t117.5 -19.5h3q48 -5 81.5 -12.5t68 -23t52 -44t17.5 -69.5q0 -85 -70.5 -127.5t-188.5 -42.5q-127 0 -196.5 39t-69.5 100
q0 64 70 123q-39 31 -39 86q0 68 53 113q-48 45 -48 118q0 85 63.5 135t154.5 50q42 0 75 -10zM288 246q43 0 67 23t24 60q0 38 -24.5 62t-66.5 24t-66.5 -24t-24.5 -62q0 -36 24.5 -59.5t66.5 -23.5zM416 -100q0 12 -4.5 21t-16 15.5t-21.5 10.5t-32 7.5t-35 5t-42 4.5
q-35 3 -69 9q-29 -30 -29 -58q0 -32 35.5 -52.5t92.5 -20.5q121 0 121 58z" />
    <glyph glyph-name="uni01CE.ss02" horiz-adv-x="642" 
d="M497 707l-96 -142h-156l-96 142h113l61 -78l60 78h114zM442 442v62h138v-504h-138v61q-46 -71 -159 -71q-105 0 -175 70.5t-70 190.5t70.5 191.5t174.5 71.5q52 0 94.5 -19t64.5 -53zM313 105q59 0 97 39.5t38 106.5q0 68 -38 108.5t-97 40.5q-60 0 -98 -40.5t-38 -108.5
t38 -107t98 -39z" />
    <glyph glyph-name="uni0302.case" 
d="M-305 742h-113l96 131h158l96 -131h-113l-62 68z" />
    <glyph glyph-name="uni03020300" 
d="M-68 636h-121l-115 142h148zM-428 565h-113l96 142h156l96 -142h-114l-60 78z" />
    <glyph glyph-name="uni03020300.case" 
d="M-68 804h-121l-109 135h147zM-419 742h-113l96 131h158l96 -131h-113l-62 68z" />
    <glyph glyph-name="uni03020301" 
d="M-215 778h148l-115 -142h-57l48 -71h-114l-60 78l-61 -78h-113l96 142h156l15 -22z" />
    <glyph glyph-name="uni03020301.case" 
d="M-214 939h147l-110 -135h-47l45 -62h-113l-62 68l-62 -68h-113l96 131h158l11 -15z" />
    <glyph glyph-name="uni03020303" 
d="M-194 736q-22 0 -40.5 8t-26 15.5t-19.5 21.5q-22 27 -43 27q-32 0 -32 -65h-67q0 63 28.5 102t77.5 39t87 -45q22 -28 43 -28q30 0 30 66h68q0 -61 -28 -101t-78 -40zM-255 643l-60 -78h-114l96 142h156l96 -142h-113z" />
    <glyph glyph-name="uni03020303.case" 
d="M-194 888q-49 0 -86 44q-22 27 -43 27q-32 0 -32 -64h-67q0 62 28.5 101t77.5 39q51 0 87 -45q22 -28 43 -28q30 0 30 66h68q0 -61 -28 -100.5t-78 -39.5zM-255 810l-62 -68h-113l96 131h158l97 -131h-114z" />
    <glyph glyph-name="uni03020309" 
d="M-149 676v-40h-99v58q79 10 79 44q0 32 -44 32q-28 0 -65 -19l-35 55q60 30 118 30q62 0 94.5 -22t32.5 -61q0 -58 -81 -77zM-441 565h-113l96 142h156l96 -142h-114l-60 78z" />
    <glyph glyph-name="uni03020309.case" 
d="M-148 843v-41h-84v66q79 10 79 44q0 32 -45 32q-30 0 -56 -19l-36 48q52 30 104 30q57 0 88 -23t31 -61q0 -57 -81 -76zM-379 810l-62 -68h-113l96 131h158l96 -131h-113z" />
    <glyph glyph-name="uni0304.case" 
d="M-67 775h-325v89h325v-89z" />
    <glyph glyph-name="uni0306.case" 
d="M-247 740q-85 0 -130 29.5t-47 103.5h87q3 -34 24.5 -49t65.5 -15q45 0 67 15t25 49h87q-3 -74 -48.5 -103.5t-130.5 -29.5z" />
    <glyph glyph-name="uni03060300" 
d="M-183 720h-121l-115 143h147zM-247 555q-179 0 -179 152h99q0 -80 80 -80q81 0 81 80h99q0 -152 -180 -152z" />
    <glyph glyph-name="uni03060300.case" 
d="M-184 888h-121l-110 135h147zM-246 740q-85 0 -130 29.5t-48 103.5h88q4 -64 90 -64q45 0 67 15t24 49h88q-3 -74 -48.5 -103.5t-130.5 -29.5z" />
    <glyph glyph-name="uni03060301" 
d="M-195 720h-121l88 143h148zM-255 555q-178 0 -178 152h98q0 -38 20.5 -59t59.5 -21q81 0 81 80h99q0 -152 -180 -152z" />
    <glyph glyph-name="uni03060301.case" 
d="M-192 888h-121l84 135h146zM-254 740q-85 0 -130 29.5t-47 103.5h87q3 -34 24.5 -49t65.5 -15q45 0 67 15t25 49h87q-3 -74 -48.5 -103.5t-130.5 -29.5z" />
    <glyph glyph-name="uni03060303" 
d="M-187 761q-49 0 -85 45q-23 27 -44 27q-32 0 -32 -65h-67q0 62 29 101.5t78 39.5q48 0 86 -45q24 -28 43 -28q30 0 30 66h68q0 -62 -28 -101.5t-78 -39.5zM-248 555q-179 0 -179 152h99q0 -80 80 -80q81 0 81 80h98q0 -152 -179 -152z" />
    <glyph glyph-name="uni03060303.case" 
d="M-187 903q-50 0 -85 44q-23 27 -44 27q-32 0 -32 -64h-67q0 62 29 101t78 39q50 0 86 -45q24 -28 43 -28q30 0 30 66h68q0 -61 -28 -100.5t-78 -39.5zM-248 740q-85 0 -130.5 29.5t-47.5 103.5h87q3 -34 24.5 -49t66.5 -15t66.5 15t24.5 49h87q-2 -74 -47.5 -103.5
t-130.5 -29.5z" />
    <glyph glyph-name="uni03060309" 
d="M-205 693h-84v50q79 10 79 45q0 32 -44 32q-31 0 -57 -19l-36 48q50 29 104 29q57 0 88 -22.5t31 -60.5q0 -58 -81 -77v-25zM-248 555q-178 0 -178 152h98q0 -38 20.5 -59t59.5 -21q81 0 81 80h99q0 -152 -180 -152z" />
    <glyph glyph-name="uni03060309.case" 
d="M-204 863h-84v65q79 10 79 45q0 32 -44 32q-32 0 -57 -20l-36 48q49 30 104 30q57 0 88 -22.5t31 -60.5q0 -58 -81 -77v-40zM-247 740q-85 0 -130 29.5t-47 103.5h87q3 -34 24.5 -49t65.5 -15q45 0 67 15t25 49h87q-3 -74 -48.5 -103.5t-130.5 -29.5z" />
    <glyph glyph-name="uni0307.case" 
d="M-147 746q-34 0 -57.5 23.5t-23.5 57.5q0 33 23.5 56t57.5 23q32 0 55.5 -23t23.5 -56q0 -34 -23.5 -57.5t-55.5 -23.5z" />
    <glyph glyph-name="uni0308.case" 
d="M-353 746q-34 0 -57.5 23.5t-23.5 57.5q0 33 23.5 56t57.5 23q32 0 55.5 -23t23.5 -56q0 -34 -23.5 -57.5t-55.5 -23.5zM-147 746q-33 0 -57 23.5t-24 57.5q0 33 24 56t57 23t56.5 -23t23.5 -56t-23.5 -57t-56.5 -24z" />
    <glyph glyph-name="uni030A.case" 
d="M-198 735q-55 0 -93 35.5t-38 91.5t37.5 91.5t93.5 35.5q55 0 92.5 -35.5t37.5 -91.5t-37.5 -91.5t-92.5 -35.5zM-198 799q27 0 45.5 18t18.5 45t-18.5 45t-45.5 18q-26 0 -44 -17.5t-18 -45.5t18 -45.5t44 -17.5z" />
    <glyph glyph-name="uni030B.case" 
d="M-371 737h-121l91 136h139zM-177 737h-121l91 136h139z" />
    <glyph glyph-name="uni030C.case" 
d="M-164 742h-158l-96 131h113l62 -68l62 68h113z" />
    <glyph glyph-name="uni0312.case" 
d="M-159 737h-116l109 136h99z" />
    <glyph glyph-name="uni0338.case" 
d="M-68 738l-542 -778l-53 32l542 778z" />
    <glyph glyph-name="uni1EA1.ss02" horiz-adv-x="642" 
d="M442 442v62h138v-504h-138v61q-46 -71 -159 -71q-105 0 -175 70.5t-70 190.5t70.5 191.5t174.5 71.5q52 0 94.5 -19t64.5 -53zM313 105q59 0 97 39.5t38 106.5q0 68 -38 108.5t-97 40.5q-60 0 -98 -40.5t-38 -108.5t38 -107t98 -39zM324 -62q32 0 55.5 -23.5t23.5 -56.5
q0 -34 -23.5 -57t-55.5 -23q-34 0 -57.5 23t-23.5 57q0 33 23.5 56.5t57.5 23.5z" />
    <glyph glyph-name="uni1EA3.ss02" horiz-adv-x="642" 
d="M307 676q-25 0 -64 -20l-35 56q61 29 118 29q62 0 94.5 -22t32.5 -61q0 -58 -81 -77v-40h-99v58q79 10 79 45q0 32 -45 32zM442 442v62h138v-504h-138v61q-46 -71 -159 -71q-105 0 -175 70.5t-70 190.5t70.5 191.5t174.5 71.5q52 0 94.5 -19t64.5 -53zM313 105
q59 0 97 39.5t38 106.5q0 68 -38 108.5t-97 40.5q-60 0 -98 -40.5t-38 -108.5t38 -107t98 -39z" />
    <glyph glyph-name="uni1EA5.ss02" horiz-adv-x="642" 
d="M383 565l-60 78l-61 -78h-113l96 142h156l15 -22l57 93h148l-115 -142h-57l48 -71h-114zM442 442v62h138v-504h-138v61q-46 -71 -159 -71q-105 0 -175 70.5t-70 190.5t70.5 191.5t174.5 71.5q52 0 94.5 -19t64.5 -53zM313 105q59 0 97 39.5t38 106.5q0 68 -38 108.5
t-97 40.5q-60 0 -98 -40.5t-38 -108.5t38 -107t98 -39z" />
    <glyph glyph-name="uni1EA7.ss02" horiz-adv-x="642" 
d="M534 778l88 -142h-121l-115 142h148zM383 565l-60 78l-61 -78h-113l96 142h156l96 -142h-114zM442 442v62h138v-504h-138v61q-46 -71 -159 -71q-105 0 -175 70.5t-70 190.5t70.5 191.5t174.5 71.5q52 0 94.5 -19t64.5 -53zM313 105q59 0 97 39.5t38 106.5q0 68 -38 108.5
t-97 40.5q-60 0 -98 -40.5t-38 -108.5t38 -107t98 -39z" />
    <glyph glyph-name="uni1EA9.ss02" horiz-adv-x="642" 
d="M508 836q62 0 94.5 -22t32.5 -61q0 -58 -81 -77v-40h-99v58q79 10 79 44q0 32 -44 32q-28 0 -65 -19l-35 55q60 30 118 30zM383 565l-60 78l-61 -78h-113l96 142h156l96 -142h-114zM442 442v62h138v-504h-138v61q-46 -71 -159 -71q-105 0 -175 70.5t-70 190.5t70.5 191.5
t174.5 71.5q52 0 94.5 -19t64.5 -53zM313 105q59 0 97 39.5t38 106.5q0 68 -38 108.5t-97 40.5q-60 0 -98 -40.5t-38 -108.5t38 -107t98 -39z" />
    <glyph glyph-name="uni1EAB.ss02" horiz-adv-x="642" 
d="M254 808q-32 0 -32 -65h-67q0 63 28.5 102t77.5 39t87 -45q22 -28 43 -28q30 0 30 66h68q0 -61 -28 -101t-78 -40q-22 0 -40.5 8t-26 15.5t-19.5 21.5q-22 27 -43 27zM383 565l-61 78l-60 -78h-114l96 142h156l96 -142h-113zM442 442v62h138v-504h-138v61
q-46 -71 -159 -71q-105 0 -175 70.5t-70 190.5t70.5 191.5t174.5 71.5q52 0 94.5 -19t64.5 -53zM313 105q59 0 97 39.5t38 106.5q0 68 -38 108.5t-97 40.5q-60 0 -98 -40.5t-38 -108.5t38 -107t98 -39z" />
    <glyph glyph-name="uni1EAD.ss02" horiz-adv-x="642" 
d="M383 565l-60 78l-61 -78h-113l96 142h156l96 -142h-114zM442 442v62h138v-504h-138v61q-46 -71 -159 -71q-105 0 -175 70.5t-70 190.5t70.5 191.5t174.5 71.5q52 0 94.5 -19t64.5 -53zM313 105q59 0 97 39.5t38 106.5q0 68 -38 108.5t-97 40.5q-60 0 -98 -40.5
t-38 -108.5t38 -107t98 -39zM324 -62q32 0 55.5 -23.5t23.5 -56.5q0 -34 -23.5 -57t-55.5 -23q-34 0 -57.5 23t-23.5 57q0 33 23.5 56.5t57.5 23.5z" />
    <glyph glyph-name="uni1EAF.ss02" horiz-adv-x="642" 
d="M349 863h148l-115 -143h-121zM322 555q-178 0 -178 152h98q0 -38 20.5 -59t59.5 -21q81 0 81 80h99q0 -152 -180 -152zM442 442v62h138v-504h-138v61q-46 -71 -159 -71q-105 0 -175 70.5t-70 190.5t70.5 191.5t174.5 71.5q52 0 94.5 -19t64.5 -53zM313 105q59 0 97 39.5
t38 106.5q0 68 -38 108.5t-97 40.5q-60 0 -98 -40.5t-38 -108.5t38 -107t98 -39z" />
    <glyph glyph-name="uni1EB1.ss02" horiz-adv-x="642" 
d="M297 863l89 -143h-121l-115 143h147zM322 555q-179 0 -179 152h99q0 -80 80 -80q81 0 81 80h99q0 -152 -180 -152zM442 442v62h138v-504h-138v61q-46 -71 -159 -71q-105 0 -175 70.5t-70 190.5t70.5 191.5t174.5 71.5q52 0 94.5 -19t64.5 -53zM313 105q59 0 97 39.5
t38 106.5q0 68 -38 108.5t-97 40.5q-60 0 -98 -40.5t-38 -108.5t38 -107t98 -39z" />
    <glyph glyph-name="uni1EB3.ss02" horiz-adv-x="642" 
d="M316 820q-31 0 -57 -19l-36 48q50 29 104 29q57 0 88 -22.5t31 -60.5q0 -58 -81 -77v-25h-84v50q79 10 79 45q0 32 -44 32zM322 555q-178 0 -178 152h98q0 -38 20.5 -59t59.5 -21q81 0 81 80h99q0 -152 -180 -152zM442 442v62h138v-504h-138v61q-46 -71 -159 -71
q-105 0 -175 70.5t-70 190.5t70.5 191.5t174.5 71.5q52 0 94.5 -19t64.5 -53zM313 105q59 0 97 39.5t38 106.5q0 68 -38 108.5t-97 40.5q-60 0 -98 -40.5t-38 -108.5t38 -107t98 -39z" />
    <glyph glyph-name="uni1EB5.ss02" horiz-adv-x="642" 
d="M255 833q-32 0 -32 -65h-67q0 62 29 101.5t78 39.5q48 0 86 -45q24 -28 43 -28q30 0 30 66h68q0 -62 -28 -101.5t-78 -39.5q-49 0 -85 45q-23 27 -44 27zM323 555q-179 0 -179 152h99q0 -80 80 -80q81 0 81 80h98q0 -152 -179 -152zM442 442v62h138v-504h-138v61
q-46 -71 -159 -71q-105 0 -175 70.5t-70 190.5t70.5 191.5t174.5 71.5q52 0 94.5 -19t64.5 -53zM313 105q59 0 97 39.5t38 106.5q0 68 -38 108.5t-97 40.5q-60 0 -98 -40.5t-38 -108.5t38 -107t98 -39z" />
    <glyph glyph-name="uni1EB7.ss02" horiz-adv-x="642" 
d="M322 555q-178 0 -178 152h98q0 -38 20.5 -59t59.5 -21q81 0 81 80h99q0 -152 -180 -152zM442 442v62h138v-504h-138v61q-46 -71 -159 -71q-105 0 -175 70.5t-70 190.5t70.5 191.5t174.5 71.5q52 0 94.5 -19t64.5 -53zM313 105q59 0 97 39.5t38 106.5q0 68 -38 108.5
t-97 40.5q-60 0 -98 -40.5t-38 -108.5t38 -107t98 -39zM324 -62q32 0 55.5 -23.5t23.5 -56.5q0 -34 -23.5 -57t-55.5 -23q-34 0 -57.5 23t-23.5 57q0 33 23.5 56.5t57.5 23.5z" />
    <glyph glyph-name="zero.dnom" horiz-adv-x="371" 
d="M185 -8q-154 0 -154 220q0 221 154 221t154 -221q0 -220 -154 -220zM185 66q71 0 71 146t-71 146t-71 -146t71 -146z" />
    <glyph glyph-name="zero.lf" horiz-adv-x="617" 
d="M309 -14q-125 0 -191 92t-66 276t66 275.5t191 91.5t190.5 -91.5t65.5 -275.5t-65.5 -276t-190.5 -92zM309 111q118 0 118 243t-118 243t-118 -243t118 -243z" />
    <glyph glyph-name="zero.numr" horiz-adv-x="371" 
d="M185 275q-154 0 -154 220t154 220t154 -220t-154 -220zM185 349q71 0 71 146t-71 146t-71 -146t71 -146z" />
    </font>
</defs>
</svg>
