<svg width="114" height="95" viewBox="0 0 114 95" fill="none" xmlns="http://www.w3.org/2000/svg">
<path d="M107.961 22.801C107.323 20.2701 106.269 17.8627 104.842 15.677C102.322 11.8263 98.8431 8.69825 94.747 6.60101C92.6897 5.53819 90.4736 4.81614 88.185 4.46301C86.0721 4.14798 83.9371 4.00384 81.801 4.03201C78.881 4.04801 75.961 4.04201 73.041 4.03201C69.316 4.02401 65.59 4.016 61.865 4.052C59.199 4.078 56.532 4.05199 53.865 4.02899C52.007 4.01199 50.149 3.995 48.292 3.995C44.877 3.995 41.464 4.05201 38.052 4.27301C31.6107 4.72643 25.4464 7.07029 20.331 11.011C16.8258 13.6826 13.818 16.9501 11.445 20.664C9.48672 23.6944 8.06838 27.0413 7.253 30.556C6.86506 32.372 6.57828 34.2082 6.394 36.056C6.09333 39.1751 6.22119 42.3206 6.774 45.405C6.945 46.443 7.23601 47.46 7.47401 48.488C8.13277 51.1991 9.18744 53.7984 10.604 56.202C13.1839 60.6744 16.6709 64.5575 20.841 67.602C23.1327 69.3121 25.6404 70.7115 28.299 71.764C30.4332 72.6576 32.6753 73.2678 34.968 73.579C36.882 73.798 38.794 74.114 40.714 74.172C43.181 74.247 45.651 74.226 48.121 74.21V74.225H54.187V83.337L62.869 90.662V47.584C62.8689 46.9606 62.9927 46.3433 63.2331 45.7681C63.4735 45.1929 63.8258 44.6712 64.2695 44.2332C64.7131 43.7952 65.2393 43.4497 65.8176 43.2167C66.3958 42.9837 67.0146 42.8679 67.638 42.876C73.931 42.958 81.633 43.076 83.407 43.048C84.4048 43.0282 85.3992 42.9255 86.38 42.741C88.3022 42.3845 90.1146 41.5843 91.673 40.404C93.4358 39.1665 94.879 37.5273 95.8833 35.622C96.8876 33.7166 97.4243 31.5997 97.449 29.446C97.4293 28.0649 97.234 26.6919 96.868 25.36C96.101 22.4379 94.3311 19.8783 91.868 18.129C89.4304 16.2666 86.4275 15.2969 83.361 15.382C70.1837 15.3747 57.0067 15.3747 43.83 15.382C43.505 15.382 43.18 15.382 42.856 15.382C41.0895 15.3024 39.3196 15.4225 37.58 15.74C36.1104 15.9976 34.6593 16.3514 33.236 16.799C28.8796 18.4443 25.087 21.3056 22.309 25.043C20.0445 27.9871 18.5429 31.4454 17.938 35.11C17.9076 35.3041 17.8969 35.5007 17.906 35.697C17.9054 36.1142 17.8584 36.5301 17.766 36.937C17.7558 36.9876 17.7484 37.0386 17.744 37.09C17.707 37.547 17.712 38.009 17.717 38.469C17.6639 40.263 17.7895 42.0579 18.092 43.827C18.4085 45.451 18.8973 47.0366 19.55 48.557C21.528 52.9269 24.7288 56.6307 28.766 59.221C32.064 61.3825 35.8787 62.6252 39.817 62.821H39.861C40.343 62.851 40.828 62.871 41.317 62.876C44.178 62.907 47.04 62.887 49.901 62.881L54.19 62.888V65.394H48.124V65.45C46.1787 65.45 44.2337 65.45 42.289 65.45C39.792 65.4931 37.2988 65.2363 34.863 64.685C32.7252 64.1722 30.666 63.374 28.741 62.312C25.2843 60.3761 22.2874 57.7152 19.956 54.512C18.1537 52.1402 16.8326 49.4388 16.067 46.56C15.7 45.139 15.467 43.681 15.222 42.232C15.0803 41.4313 14.9997 40.621 14.981 39.808C14.97 39.082 15.14 38.353 15.148 37.624C15.1879 35.5567 15.5092 33.5046 16.103 31.524C16.638 29.6496 17.4007 27.8479 18.374 26.159C20.3496 22.7778 23.0118 19.8482 26.189 17.559C28.7484 15.6868 31.6502 14.335 34.73 13.58C36.9017 13.0519 39.1301 12.7933 41.365 12.81C45.3977 12.81 49.431 12.81 53.465 12.81C63.0443 12.81 72.624 12.8163 82.204 12.829C83.8802 12.8557 85.5531 12.9869 87.213 13.222C88.135 13.3445 89.0352 13.5963 89.887 13.97C92.5892 15.1293 94.9462 16.9666 96.73 19.304C98.3124 21.2784 99.3305 23.6445 99.676 26.151C99.8223 27.6168 99.8754 29.0904 99.835 30.563C99.7795 32.6117 99.2497 34.6197 98.287 36.429C96.7988 39.3857 94.4741 41.8395 91.602 43.485C90.1958 44.321 88.6526 44.9013 87.044 45.199C85.7656 45.4112 84.4719 45.5176 83.176 45.517C81.653 45.543 80.131 45.539 78.608 45.534C77.445 45.534 76.348 45.399 75.186 45.409C74.81 45.409 74.061 45.378 73.251 45.338C71.264 45.238 68.262 45.194 67.494 45.738C64.715 47.71 65.54 50.538 65.479 54.957C65.4337 58.2963 65.4147 61.636 65.422 64.976H65.397V90.669L74.079 83.344V74.114H74.111C74.134 73.829 74.168 73.608 74.166 73.386C74.156 70.974 74.127 68.563 74.128 66.152C74.128 63.287 74.228 60.42 74.146 57.558C74.1258 57.1266 74.1963 56.6956 74.353 56.2931C74.5096 55.8906 74.7489 55.5254 75.0555 55.2211C75.362 54.9168 75.729 54.6802 76.1326 54.5266C76.5363 54.3729 76.9677 54.3056 77.399 54.329H82.744C84.7055 54.3931 86.6684 54.2591 88.603 53.929C90.5862 53.563 92.514 52.9432 94.339 52.085C99.0265 49.8202 102.928 46.2026 105.539 41.699C107.142 38.9501 108.163 35.901 108.539 32.741C108.981 29.4211 108.785 26.0473 107.961 22.801ZM49.097 54.04H44.631C43.01 54.04 41.389 54.023 39.768 53.981C38.6364 53.9267 37.519 53.7057 36.452 53.325C33.6074 52.3263 31.1266 50.4993 29.329 48.079C27.717 46.0063 26.7204 43.5221 26.453 40.91C26.2808 39.3946 26.333 37.8621 26.608 36.362C26.9482 34.2962 27.7501 32.3338 28.954 30.621C30.3705 28.5339 32.2878 26.8352 34.5303 25.6805C36.7729 24.5257 39.2693 23.9518 41.791 24.011C45.9243 24.011 50.0577 24.011 54.191 24.011H82.877V24.021C83.5376 24.0261 84.1959 24.0981 84.842 24.236C85.5028 24.3858 86.1261 24.6688 86.6738 25.0675C87.2216 25.4662 87.6824 25.9724 88.0281 26.5551C88.3738 27.1378 88.5971 27.7849 88.6844 28.4568C88.7718 29.1286 88.7212 29.8113 88.536 30.463C88.2415 31.5604 87.5884 32.5277 86.6808 33.2112C85.7732 33.8947 84.663 34.2551 83.527 34.235C83.309 34.235 83.093 34.235 82.877 34.23V34.235H63.053C60.7026 34.235 58.4486 35.1687 56.7866 36.8306C55.1247 38.4926 54.191 40.7467 54.191 43.097V54.038L49.097 54.04Z" fill="url(#paint0_linear)"/>
<defs>
<linearGradient id="paint0_linear" x1="8.08122" y1="15.0026" x2="103.141" y2="78.2022" gradientUnits="userSpaceOnUse">
<stop stop-color="#00F9FF"/>
<stop offset="0.90625" stop-color="#00B8FF"/>
</linearGradient>
</defs>
</svg>
